{"glyphs":{"0":{"ha":835,"x_min":69,"x_max":765,"o":"m 418 -14 q 610 51 533 -14 q 726 231 688 117 q 765 486 765 344 q 726 743 765 631 q 610 921 688 856 q 418 986 533 986 q 226 921 303 986 q 109 743 149 856 q 69 486 69 631 q 109 231 69 344 q 226 51 149 117 q 418 -14 303 -14 m 418 99 q 294 146 344 99 q 216 280 243 193 q 189 486 189 367 q 216 694 189 607 q 294 827 243 781 q 418 874 344 874 q 542 827 492 874 q 619 694 593 781 q 646 486 646 607 q 619 280 646 367 q 542 146 593 193 q 418 99 492 99 "},"1":{"ha":522,"x_min":32,"x_max":381,"o":"m 319 0 q 363 17 346 0 q 381 57 381 33 l 381 917 q 366 956 381 940 q 326 972 351 972 q 304 971 315 974 q 282 961 293 968 l 61 815 q 32 767 32 797 q 49 727 32 744 q 89 710 65 710 q 121 719 107 710 l 278 828 l 261 847 l 261 57 q 278 17 261 33 q 319 0 294 0 "},"2":{"ha":776,"x_min":81,"x_max":704,"o":"m 651 104 l 243 104 l 257 90 l 500 360 q 631 540 586 451 q 675 703 675 629 q 639 853 675 789 q 537 951 603 917 q 382 986 471 986 q 280 967 332 986 q 184 915 228 947 q 111 842 140 882 q 89 812 97 825 q 81 783 81 799 q 97 749 81 764 q 135 735 114 735 q 159 740 147 735 q 182 763 171 744 q 232 823 201 796 q 300 866 263 850 q 375 882 338 882 q 510 831 460 882 q 561 696 561 781 q 526 578 561 644 q 421 438 490 513 l 107 94 q 90 54 90 76 q 106 15 90 29 q 147 0 122 0 l 651 0 q 689 15 674 0 q 704 51 704 29 q 689 89 704 74 q 651 104 674 104 "},"3":{"ha":733,"x_min":63,"x_max":663,"o":"m 135 161 q 95 142 111 161 q 79 101 79 122 q 85 76 79 89 q 110 54 92 64 q 202 3 149 21 q 311 -14 256 -14 q 491 26 411 -14 q 617 140 571 67 q 663 314 663 214 q 624 472 663 404 q 519 578 585 540 q 376 615 454 615 q 335 610 360 615 q 303 600 310 606 l 335 572 l 604 865 q 620 886 614 875 q 626 910 626 897 q 613 948 626 931 q 568 965 599 965 l 115 965 q 78 951 93 965 q 63 914 63 936 q 78 876 63 892 q 115 861 93 861 l 510 861 l 488 888 l 218 596 q 202 573 207 583 q 197 550 197 563 q 210 513 197 528 q 244 497 222 497 q 272 501 257 497 q 303 508 286 506 q 339 511 319 511 q 440 490 392 511 q 519 423 488 468 q 550 307 550 378 q 519 192 550 242 q 438 115 488 142 q 328 88 388 88 q 242 103 279 88 q 176 143 204 118 q 153 158 164 154 q 135 161 143 161 "},"4":{"ha":760,"x_min":18,"x_max":722,"o":"m 521 0 q 560 17 544 0 q 576 57 576 33 l 576 917 q 561 956 576 940 q 522 972 546 972 q 497 967 510 972 q 475 950 485 963 l 32 381 q 18 344 18 365 q 35 306 18 322 q 74 289 53 289 l 669 289 q 707 303 692 289 q 722 339 722 318 q 707 376 722 361 q 669 392 692 392 l 150 392 l 156 375 l 488 808 l 465 817 l 465 57 q 481 17 465 33 q 521 0 497 0 "},"5":{"ha":772,"x_min":90,"x_max":692,"o":"m 329 -6 q 522 37 440 -6 q 647 156 603 79 q 692 333 692 232 q 650 496 692 425 q 537 608 608 567 q 375 649 465 649 q 291 639 332 649 q 219 615 250 629 q 172 588 188 601 l 194 558 l 246 872 l 232 860 l 617 860 q 654 874 639 860 q 669 911 669 889 q 654 950 669 935 q 617 965 639 965 l 204 965 q 167 951 182 965 q 147 919 151 938 l 93 560 q 96 526 92 544 q 114 497 100 508 q 154 485 128 485 q 203 500 175 485 q 270 530 232 515 q 357 544 308 544 q 473 518 422 544 q 552 444 524 492 q 581 332 581 396 q 550 208 581 261 q 463 126 519 156 q 328 97 406 97 q 253 111 290 97 q 185 149 215 125 q 143 167 161 167 q 105 151 119 167 q 90 118 90 135 q 97 89 90 104 q 115 64 104 74 q 216 12 158 29 q 329 -6 274 -6 "},"6":{"ha":754,"x_min":76,"x_max":710,"o":"m 399 -14 q 558 30 488 -14 q 669 145 628 74 q 710 301 710 217 q 687 422 710 364 q 624 524 664 479 q 531 594 583 568 q 417 621 478 621 q 312 600 360 621 q 228 546 264 579 q 168 475 192 513 l 201 486 q 247 615 214 553 q 324 730 279 676 q 423 823 369 783 q 532 883 476 863 q 565 905 553 890 q 578 939 578 919 q 560 981 578 969 q 521 993 543 993 q 499 990 511 993 q 339 903 408 960 q 219 776 269 847 q 138 628 169 706 q 92 478 107 551 q 76 344 76 404 q 97 213 76 276 q 158 97 118 149 q 259 16 199 46 q 399 -14 319 -14 m 397 90 q 287 119 333 90 q 215 196 240 149 q 190 299 190 243 q 216 408 190 358 q 289 486 242 457 q 401 515 336 515 q 506 485 463 515 q 574 407 550 456 q 597 301 597 358 q 571 192 597 240 q 499 117 544 144 q 397 90 454 90 "},"7":{"ha":729,"x_min":81,"x_max":692,"o":"m 257 -4 q 288 5 274 -4 q 310 31 303 14 l 686 886 q 692 911 692 899 q 676 950 692 935 q 635 965 660 965 l 133 965 q 96 951 111 965 q 81 914 81 936 q 96 876 81 890 q 133 861 111 861 l 581 861 l 564 886 l 206 74 q 200 49 200 61 q 217 10 200 25 q 257 -4 235 -4 "},"8":{"ha":754,"x_min":69,"x_max":685,"o":"m 515 490 q 583 534 550 506 q 638 605 615 563 q 660 704 660 647 q 622 840 660 779 q 519 937 583 901 q 376 972 456 972 q 233 937 299 972 q 131 840 168 901 q 93 704 93 779 q 114 608 93 650 q 167 535 135 565 q 236 490 200 506 l 243 513 q 160 460 200 493 q 95 379 121 426 q 69 269 69 332 q 110 131 69 194 q 221 31 151 68 q 376 -7 290 -7 q 533 31 463 -7 q 644 131 603 68 q 685 269 685 194 q 662 370 685 324 q 600 453 639 417 q 513 510 561 489 l 515 490 m 206 703 q 253 822 206 775 q 376 868 301 868 q 499 822 451 868 q 547 703 547 775 q 524 615 547 653 q 462 556 500 578 q 376 535 424 535 q 291 556 331 535 q 228 615 251 578 q 206 703 206 653 m 376 97 q 237 147 292 97 q 182 271 182 197 q 208 362 182 322 q 279 424 235 401 q 376 447 324 447 q 475 424 431 447 q 546 362 519 401 q 572 271 572 322 q 517 147 572 197 q 376 97 463 97 "},"9":{"ha":781,"x_min":76,"x_max":710,"o":"m 388 989 q 229 945 300 989 q 117 830 158 901 q 76 674 76 758 q 113 514 76 586 q 214 399 149 442 q 369 356 279 356 q 476 376 428 356 q 560 430 524 397 q 618 500 596 463 l 585 489 q 517 322 568 401 q 398 183 467 242 q 254 96 329 124 q 221 74 233 89 q 208 40 208 60 q 226 -1 208 13 q 265 -15 243 -15 q 288 -11 275 -15 q 447 75 378 19 q 567 201 517 131 q 648 347 617 271 q 694 497 679 424 q 710 631 710 571 q 689 763 710 699 q 628 878 668 826 q 527 959 588 929 q 388 989 467 989 m 389 885 q 499 856 453 885 q 571 780 546 826 q 596 676 596 733 q 570 569 596 618 q 497 490 544 519 q 385 461 450 461 q 278 490 322 461 q 212 567 235 518 q 189 674 189 615 q 215 783 189 735 q 287 858 242 831 q 389 885 332 885 "},"A":{"ha":894,"x_min":31,"x_max":864,"o":"m 458 828 l 428 829 l 758 35 q 779 7 765 17 q 810 -3 793 -3 q 847 12 831 -3 q 864 51 864 26 q 860 74 864 63 l 501 940 q 481 967 496 957 q 449 976 467 976 q 416 969 431 978 q 394 940 401 960 l 35 65 q 32 44 31 54 q 44 11 32 25 q 83 -3 57 -3 q 113 7 99 -3 q 132 33 126 17 l 458 828 m 201 260 l 682 260 l 661 368 l 249 368 l 201 260 "},"Á":{"ha":894,"x_min":31,"x_max":864,"o":"m 458 828 l 428 829 l 758 35 q 779 7 765 17 q 810 -3 793 -3 q 847 12 831 -3 q 864 51 864 26 q 860 74 864 63 l 501 940 q 481 967 496 957 q 449 976 467 976 q 416 969 431 978 q 394 940 401 960 l 35 65 q 32 44 31 54 q 44 11 32 25 q 83 -3 57 -3 q 113 7 99 -3 q 132 33 126 17 l 458 828 m 201 260 l 682 260 l 661 368 l 249 368 l 201 260 m 454 1032 q 469 1035 461 1032 q 485 1042 478 1038 l 621 1111 q 648 1133 639 1119 q 657 1164 657 1147 q 640 1201 657 1186 q 604 1215 624 1215 q 578 1209 590 1215 q 554 1194 565 1203 l 432 1094 q 421 1081 425 1088 q 417 1065 417 1074 q 426 1042 417 1051 q 454 1032 436 1032 "},"Ă":{"ha":894,"x_min":31,"x_max":864,"o":"m 458 828 l 428 829 l 758 35 q 779 7 765 17 q 810 -3 793 -3 q 847 12 831 -3 q 864 51 864 26 q 860 74 864 63 l 501 940 q 481 967 496 957 q 449 976 467 976 q 416 969 431 978 q 394 940 401 960 l 35 65 q 32 44 31 54 q 44 11 32 25 q 83 -3 57 -3 q 113 7 99 -3 q 132 33 126 17 l 458 828 m 201 260 l 682 260 l 661 368 l 249 368 l 201 260 m 450 1069 q 577 1105 525 1069 q 651 1207 629 1140 q 650 1244 660 1231 q 619 1258 640 1258 q 587 1249 599 1258 q 564 1222 575 1239 q 450 1156 531 1156 q 382 1172 410 1156 q 336 1222 354 1189 q 313 1249 324 1240 q 281 1258 303 1258 q 251 1244 261 1258 q 250 1206 242 1229 q 324 1105 272 1140 q 450 1069 376 1069 "},"Ắ":{"ha":894,"x_min":31,"x_max":864,"o":"m 458 828 l 428 829 l 758 35 q 779 7 765 17 q 810 -3 793 -3 q 847 12 831 -3 q 864 51 864 26 q 860 74 864 63 l 501 940 q 481 967 496 957 q 449 976 467 976 q 416 969 431 978 q 394 940 401 960 l 35 65 q 32 44 31 54 q 44 11 32 25 q 83 -3 57 -3 q 113 7 99 -3 q 132 33 126 17 l 458 828 m 201 260 l 682 260 l 661 368 l 249 368 l 201 260 m 450 1069 q 577 1105 525 1069 q 651 1207 629 1140 q 650 1244 660 1231 q 619 1258 640 1258 q 587 1249 599 1258 q 564 1222 575 1239 q 450 1156 531 1156 q 382 1172 410 1156 q 336 1222 354 1189 q 313 1249 324 1240 q 281 1258 303 1258 q 251 1244 261 1258 q 250 1206 242 1229 q 324 1105 272 1140 q 450 1069 376 1069 m 454 1303 q 469 1306 461 1303 q 485 1313 478 1308 l 621 1382 q 648 1404 639 1390 q 657 1435 657 1418 q 640 1472 657 1457 q 604 1486 624 1486 q 578 1480 590 1486 q 554 1465 565 1474 l 432 1365 q 421 1351 425 1358 q 417 1336 417 1344 q 426 1313 417 1322 q 454 1303 436 1303 "},"Ặ":{"ha":894,"x_min":31,"x_max":864,"o":"m 458 828 l 428 829 l 758 35 q 779 7 765 17 q 810 -3 793 -3 q 847 12 831 -3 q 864 51 864 26 q 860 74 864 63 l 501 940 q 481 967 496 957 q 449 976 467 976 q 416 969 431 978 q 394 940 401 960 l 35 65 q 32 44 31 54 q 44 11 32 25 q 83 -3 57 -3 q 113 7 99 -3 q 132 33 126 17 l 458 828 m 201 260 l 682 260 l 661 368 l 249 368 l 201 260 m 449 -197 q 501 -183 483 -197 q 518 -137 518 -168 l 518 -118 q 501 -73 518 -87 q 450 -58 485 -58 q 400 -73 418 -58 q 382 -118 382 -87 l 382 -137 q 399 -183 382 -168 q 449 -197 415 -197 m 450 1069 q 577 1105 525 1069 q 651 1207 629 1140 q 650 1244 660 1231 q 619 1258 640 1258 q 587 1249 599 1258 q 564 1222 575 1239 q 450 1156 531 1156 q 382 1172 410 1156 q 336 1222 354 1189 q 313 1249 324 1240 q 281 1258 303 1258 q 251 1244 261 1258 q 250 1206 242 1229 q 324 1105 272 1140 q 450 1069 376 1069 "},"Ằ":{"ha":894,"x_min":31,"x_max":864,"o":"m 458 828 l 428 829 l 758 35 q 779 7 765 17 q 810 -3 793 -3 q 847 12 831 -3 q 864 51 864 26 q 860 74 864 63 l 501 940 q 481 967 496 957 q 449 976 467 976 q 416 969 431 978 q 394 940 401 960 l 35 65 q 32 44 31 54 q 44 11 32 25 q 83 -3 57 -3 q 113 7 99 -3 q 132 33 126 17 l 458 828 m 201 260 l 682 260 l 661 368 l 249 368 l 201 260 m 450 1069 q 577 1105 525 1069 q 651 1207 629 1140 q 650 1244 660 1231 q 619 1258 640 1258 q 587 1249 599 1258 q 564 1222 575 1239 q 450 1156 531 1156 q 382 1172 410 1156 q 336 1222 354 1189 q 313 1249 324 1240 q 281 1258 303 1258 q 251 1244 261 1258 q 250 1206 242 1229 q 324 1105 272 1140 q 450 1069 376 1069 m 449 1306 q 476 1315 467 1306 q 486 1339 486 1325 q 482 1354 486 1347 q 469 1368 478 1361 l 347 1468 q 325 1483 338 1476 q 299 1489 313 1489 q 262 1474 278 1489 q 246 1438 246 1460 q 281 1385 246 1404 l 418 1315 q 433 1308 425 1311 q 449 1306 440 1306 "},"Ẳ":{"ha":894,"x_min":31,"x_max":864,"o":"m 458 828 l 428 829 l 758 35 q 779 7 765 17 q 810 -3 793 -3 q 847 12 831 -3 q 864 51 864 26 q 860 74 864 63 l 501 940 q 481 967 496 957 q 449 976 467 976 q 416 969 431 978 q 394 940 401 960 l 35 65 q 32 44 31 54 q 44 11 32 25 q 83 -3 57 -3 q 113 7 99 -3 q 132 33 126 17 l 458 828 m 201 260 l 682 260 l 661 368 l 249 368 l 201 260 m 450 1069 q 577 1105 525 1069 q 651 1207 629 1140 q 650 1244 660 1231 q 619 1258 640 1258 q 587 1249 599 1258 q 564 1222 575 1239 q 450 1156 531 1156 q 382 1172 410 1156 q 336 1222 354 1189 q 313 1249 324 1240 q 281 1258 303 1258 q 251 1244 261 1258 q 250 1206 242 1229 q 324 1105 272 1140 q 450 1069 376 1069 m 335 1536 q 319 1512 322 1526 q 328 1483 315 1497 q 353 1471 340 1469 q 378 1481 367 1472 q 406 1497 390 1489 q 439 1506 421 1506 q 474 1494 460 1506 q 489 1464 489 1483 q 478 1435 489 1450 q 451 1403 467 1421 q 435 1375 439 1389 q 431 1349 431 1361 q 440 1328 431 1335 q 461 1321 449 1321 q 489 1327 478 1321 q 500 1347 500 1333 q 508 1368 501 1358 q 524 1389 514 1378 q 552 1428 542 1410 q 563 1471 563 1447 q 552 1518 563 1493 q 515 1561 542 1543 q 440 1579 489 1579 q 381 1567 407 1579 q 335 1536 356 1556 "},"Ẵ":{"ha":894,"x_min":31,"x_max":864,"o":"m 458 828 l 428 829 l 758 35 q 779 7 765 17 q 810 -3 793 -3 q 847 12 831 -3 q 864 51 864 26 q 860 74 864 63 l 501 940 q 481 967 496 957 q 449 976 467 976 q 416 969 431 978 q 394 940 401 960 l 35 65 q 32 44 31 54 q 44 11 32 25 q 83 -3 57 -3 q 113 7 99 -3 q 132 33 126 17 l 458 828 m 201 260 l 682 260 l 661 368 l 249 368 l 201 260 m 450 1069 q 577 1105 525 1069 q 651 1207 629 1140 q 650 1244 660 1231 q 619 1258 640 1258 q 587 1249 599 1258 q 564 1222 575 1239 q 450 1156 531 1156 q 382 1172 410 1156 q 336 1222 354 1189 q 313 1249 324 1240 q 281 1258 303 1258 q 251 1244 261 1258 q 250 1206 242 1229 q 324 1105 272 1140 q 450 1069 376 1069 m 268 1325 q 297 1337 285 1325 q 306 1369 308 1349 q 321 1403 308 1392 q 350 1414 333 1414 q 409 1394 375 1414 q 483 1353 443 1374 q 561 1333 522 1333 q 622 1348 596 1333 q 662 1388 647 1363 q 681 1440 676 1413 q 669 1492 682 1472 q 632 1513 657 1513 q 603 1500 614 1513 q 596 1465 592 1488 q 585 1432 596 1444 q 556 1419 574 1419 q 499 1440 532 1419 q 428 1482 465 1461 q 354 1503 392 1503 q 264 1474 300 1503 q 222 1399 228 1444 q 233 1345 219 1365 q 268 1325 246 1325 "},"Ǎ":{"ha":894,"x_min":31,"x_max":864,"o":"m 458 828 l 428 829 l 758 35 q 779 7 765 17 q 810 -3 793 -3 q 847 12 831 -3 q 864 51 864 26 q 860 74 864 63 l 501 940 q 481 967 496 957 q 449 976 467 976 q 416 969 431 978 q 394 940 401 960 l 35 65 q 32 44 31 54 q 44 11 32 25 q 83 -3 57 -3 q 113 7 99 -3 q 132 33 126 17 l 458 828 m 201 260 l 682 260 l 661 368 l 249 368 l 201 260 m 433 1124 l 467 1126 l 346 1213 q 297 1233 315 1233 q 276 1226 285 1233 q 267 1208 267 1218 q 270 1195 267 1201 q 282 1179 274 1189 l 382 1069 q 408 1049 394 1056 q 440 1042 421 1042 l 458 1042 q 492 1049 478 1042 q 518 1069 506 1056 l 618 1179 q 629 1195 626 1189 q 632 1208 632 1201 q 624 1226 632 1218 q 603 1235 615 1235 q 581 1230 593 1235 q 554 1214 569 1225 l 433 1124 "},"Â":{"ha":894,"x_min":31,"x_max":864,"o":"m 458 828 l 428 829 l 758 35 q 779 7 765 17 q 810 -3 793 -3 q 847 12 831 -3 q 864 51 864 26 q 860 74 864 63 l 501 940 q 481 967 496 957 q 449 976 467 976 q 416 969 431 978 q 394 940 401 960 l 35 65 q 32 44 31 54 q 44 11 32 25 q 83 -3 57 -3 q 113 7 99 -3 q 132 33 126 17 l 458 828 m 201 260 l 682 260 l 661 368 l 249 368 l 201 260 m 465 1157 l 432 1154 l 553 1071 q 580 1055 568 1061 q 601 1049 592 1049 q 624 1057 615 1049 q 632 1074 632 1065 q 628 1088 632 1082 q 617 1103 625 1094 l 517 1213 q 491 1233 504 1226 q 458 1240 478 1240 l 440 1240 q 408 1233 421 1240 q 381 1213 394 1226 l 281 1103 q 269 1087 272 1093 q 267 1074 267 1081 q 275 1056 267 1064 q 296 1047 283 1047 q 318 1053 307 1047 q 344 1069 329 1060 l 465 1157 "},"Ấ":{"ha":894,"x_min":31,"x_max":864,"o":"m 458 828 l 428 829 l 758 35 q 779 7 765 17 q 810 -3 793 -3 q 847 12 831 -3 q 864 51 864 26 q 860 74 864 63 l 501 940 q 481 967 496 957 q 449 976 467 976 q 416 969 431 978 q 394 940 401 960 l 35 65 q 32 44 31 54 q 44 11 32 25 q 83 -3 57 -3 q 113 7 99 -3 q 132 33 126 17 l 458 828 m 201 260 l 682 260 l 661 368 l 249 368 l 201 260 m 465 1157 l 432 1154 l 553 1071 q 580 1055 568 1061 q 601 1049 592 1049 q 624 1057 615 1049 q 632 1074 632 1065 q 628 1088 632 1082 q 617 1103 625 1094 l 517 1213 q 491 1233 504 1226 q 458 1240 478 1240 l 440 1240 q 408 1233 421 1240 q 381 1213 394 1226 l 281 1103 q 269 1087 272 1093 q 267 1074 267 1081 q 275 1056 267 1064 q 296 1047 283 1047 q 318 1053 307 1047 q 344 1069 329 1060 l 465 1157 m 650 1144 q 665 1147 657 1144 q 681 1154 674 1150 l 817 1224 q 844 1246 835 1232 q 853 1276 853 1260 q 836 1313 853 1299 q 800 1328 819 1328 q 774 1322 786 1328 q 750 1307 761 1315 l 628 1207 q 617 1193 621 1200 q 613 1178 613 1186 q 622 1154 613 1164 q 650 1144 632 1144 "},"Ậ":{"ha":894,"x_min":31,"x_max":864,"o":"m 458 828 l 428 829 l 758 35 q 779 7 765 17 q 810 -3 793 -3 q 847 12 831 -3 q 864 51 864 26 q 860 74 864 63 l 501 940 q 481 967 496 957 q 449 976 467 976 q 416 969 431 978 q 394 940 401 960 l 35 65 q 32 44 31 54 q 44 11 32 25 q 83 -3 57 -3 q 113 7 99 -3 q 132 33 126 17 l 458 828 m 201 260 l 682 260 l 661 368 l 249 368 l 201 260 m 449 -197 q 501 -183 483 -197 q 518 -137 518 -168 l 518 -118 q 501 -73 518 -87 q 450 -58 485 -58 q 400 -73 418 -58 q 382 -118 382 -87 l 382 -137 q 399 -183 382 -168 q 449 -197 415 -197 m 465 1157 l 432 1154 l 553 1071 q 580 1055 568 1061 q 601 1049 592 1049 q 624 1057 615 1049 q 632 1074 632 1065 q 628 1088 632 1082 q 617 1103 625 1094 l 517 1213 q 491 1233 504 1226 q 458 1240 478 1240 l 440 1240 q 408 1233 421 1240 q 381 1213 394 1226 l 281 1103 q 269 1087 272 1093 q 267 1074 267 1081 q 275 1056 267 1064 q 296 1047 283 1047 q 318 1053 307 1047 q 344 1069 329 1060 l 465 1157 "},"Ầ":{"ha":894,"x_min":31,"x_max":864,"o":"m 458 828 l 428 829 l 758 35 q 779 7 765 17 q 810 -3 793 -3 q 847 12 831 -3 q 864 51 864 26 q 860 74 864 63 l 501 940 q 481 967 496 957 q 449 976 467 976 q 416 969 431 978 q 394 940 401 960 l 35 65 q 32 44 31 54 q 44 11 32 25 q 83 -3 57 -3 q 113 7 99 -3 q 132 33 126 17 l 458 828 m 201 260 l 682 260 l 661 368 l 249 368 l 201 260 m 465 1157 l 432 1154 l 553 1071 q 580 1055 568 1061 q 601 1049 592 1049 q 624 1057 615 1049 q 632 1074 632 1065 q 628 1088 632 1082 q 617 1103 625 1094 l 517 1213 q 491 1233 504 1226 q 458 1240 478 1240 l 440 1240 q 408 1233 421 1240 q 381 1213 394 1226 l 281 1103 q 269 1087 272 1093 q 267 1074 267 1081 q 275 1056 267 1064 q 296 1047 283 1047 q 318 1053 307 1047 q 344 1069 329 1060 l 465 1157 m 629 1215 q 657 1225 647 1215 q 667 1249 667 1235 q 663 1264 667 1257 q 650 1278 658 1271 l 528 1378 q 506 1392 518 1386 q 479 1399 493 1399 q 442 1384 458 1399 q 426 1347 426 1369 q 461 1294 426 1314 l 599 1225 q 613 1218 606 1221 q 629 1215 621 1215 "},"Ẩ":{"ha":894,"x_min":31,"x_max":864,"o":"m 458 828 l 428 829 l 758 35 q 779 7 765 17 q 810 -3 793 -3 q 847 12 831 -3 q 864 51 864 26 q 860 74 864 63 l 501 940 q 481 967 496 957 q 449 976 467 976 q 416 969 431 978 q 394 940 401 960 l 35 65 q 32 44 31 54 q 44 11 32 25 q 83 -3 57 -3 q 113 7 99 -3 q 132 33 126 17 l 458 828 m 201 260 l 682 260 l 661 368 l 249 368 l 201 260 m 465 1157 l 432 1154 l 553 1071 q 580 1055 568 1061 q 601 1049 592 1049 q 624 1057 615 1049 q 632 1074 632 1065 q 628 1088 632 1082 q 617 1103 625 1094 l 517 1213 q 491 1233 504 1226 q 458 1240 478 1240 l 440 1240 q 408 1233 421 1240 q 381 1213 394 1226 l 281 1103 q 269 1087 272 1093 q 267 1074 267 1081 q 275 1056 267 1064 q 296 1047 283 1047 q 318 1053 307 1047 q 344 1069 329 1060 l 465 1157 m 558 1339 q 542 1315 546 1329 q 551 1286 539 1300 q 577 1274 564 1272 q 601 1283 590 1275 q 629 1300 614 1292 q 663 1308 644 1308 q 698 1297 683 1308 q 713 1267 713 1286 q 701 1238 713 1253 q 675 1206 690 1224 q 658 1178 663 1192 q 654 1151 654 1164 q 663 1131 654 1138 q 685 1124 672 1124 q 713 1130 701 1124 q 724 1150 724 1136 q 731 1171 725 1161 q 747 1192 738 1181 q 776 1231 765 1213 q 786 1274 786 1250 q 776 1321 786 1296 q 739 1364 765 1346 q 664 1382 713 1382 q 605 1370 631 1382 q 558 1339 579 1358 "},"Ẫ":{"ha":894,"x_min":31,"x_max":864,"o":"m 458 828 l 428 829 l 758 35 q 779 7 765 17 q 810 -3 793 -3 q 847 12 831 -3 q 864 51 864 26 q 860 74 864 63 l 501 940 q 481 967 496 957 q 449 976 467 976 q 416 969 431 978 q 394 940 401 960 l 35 65 q 32 44 31 54 q 44 11 32 25 q 83 -3 57 -3 q 113 7 99 -3 q 132 33 126 17 l 458 828 m 201 260 l 682 260 l 661 368 l 249 368 l 201 260 m 465 1131 l 432 1128 l 553 1044 q 580 1028 568 1035 q 601 1022 592 1022 q 624 1031 615 1022 q 632 1047 632 1039 q 628 1062 632 1056 q 617 1076 625 1068 l 517 1186 q 491 1207 504 1200 q 458 1214 478 1214 l 440 1214 q 408 1207 421 1214 q 381 1186 394 1200 l 281 1076 q 269 1060 272 1067 q 267 1047 267 1054 q 275 1029 267 1038 q 296 1021 283 1021 q 318 1027 307 1021 q 344 1043 329 1033 l 465 1131 m 268 1219 q 297 1231 285 1219 q 306 1264 308 1243 q 321 1297 308 1286 q 350 1308 333 1308 q 409 1288 375 1308 q 483 1248 443 1268 q 561 1228 522 1228 q 622 1242 596 1228 q 662 1282 647 1257 q 681 1335 676 1307 q 669 1387 682 1367 q 632 1407 657 1407 q 603 1394 614 1407 q 596 1360 592 1382 q 585 1326 596 1339 q 556 1314 574 1314 q 499 1335 532 1314 q 428 1376 465 1356 q 354 1397 392 1397 q 264 1368 300 1397 q 222 1293 228 1339 q 233 1240 219 1260 q 268 1219 246 1219 "},"Ȁ":{"ha":894,"x_min":31,"x_max":864,"o":"m 458 828 l 428 829 l 758 35 q 779 7 765 17 q 810 -3 793 -3 q 847 12 831 -3 q 864 51 864 26 q 860 74 864 63 l 501 940 q 481 967 496 957 q 449 976 467 976 q 416 969 431 978 q 394 940 401 960 l 35 65 q 32 44 31 54 q 44 11 32 25 q 83 -3 57 -3 q 113 7 99 -3 q 132 33 126 17 l 458 828 m 201 260 l 682 260 l 661 368 l 249 368 l 201 260 m 358 1047 q 386 1057 376 1047 q 396 1081 396 1067 q 392 1096 396 1089 q 379 1110 388 1103 l 257 1210 q 235 1224 247 1218 q 208 1231 222 1231 q 172 1216 188 1231 q 156 1179 156 1201 q 190 1126 156 1146 l 328 1057 q 342 1050 335 1053 q 358 1047 350 1047 m 608 1051 q 636 1061 626 1051 q 646 1085 646 1071 q 642 1100 646 1093 q 631 1114 639 1107 l 508 1214 q 486 1228 499 1222 q 458 1235 474 1235 q 422 1220 439 1235 q 406 1183 406 1206 q 442 1131 406 1150 l 578 1061 q 594 1054 586 1057 q 608 1051 601 1051 "},"Ä":{"ha":894,"x_min":31,"x_max":864,"o":"m 458 828 l 428 829 l 758 35 q 779 7 765 17 q 810 -3 793 -3 q 847 12 831 -3 q 864 51 864 26 q 860 74 864 63 l 501 940 q 481 967 496 957 q 449 976 467 976 q 416 969 431 978 q 394 940 401 960 l 35 65 q 32 44 31 54 q 44 11 32 25 q 83 -3 57 -3 q 113 7 99 -3 q 132 33 126 17 l 458 828 m 201 260 l 682 260 l 661 368 l 249 368 l 201 260 m 575 1069 q 625 1084 608 1069 q 642 1129 642 1099 l 642 1147 q 625 1192 642 1178 q 575 1207 608 1207 q 526 1193 543 1207 q 508 1147 508 1179 l 508 1129 q 525 1084 508 1099 q 575 1069 542 1069 m 324 1069 q 374 1084 357 1069 q 390 1129 390 1099 l 390 1147 q 374 1192 390 1178 q 325 1207 357 1207 q 275 1193 293 1207 q 257 1147 257 1179 l 257 1129 q 274 1084 257 1099 q 324 1069 290 1069 "},"Ạ":{"ha":894,"x_min":31,"x_max":864,"o":"m 458 828 l 428 829 l 758 35 q 779 7 765 17 q 810 -3 793 -3 q 847 12 831 -3 q 864 51 864 26 q 860 74 864 63 l 501 940 q 481 967 496 957 q 449 976 467 976 q 416 969 431 978 q 394 940 401 960 l 35 65 q 32 44 31 54 q 44 11 32 25 q 83 -3 57 -3 q 113 7 99 -3 q 132 33 126 17 l 458 828 m 201 260 l 682 260 l 661 368 l 249 368 l 201 260 m 449 -197 q 501 -183 483 -197 q 518 -137 518 -168 l 518 -118 q 501 -73 518 -87 q 450 -58 485 -58 q 400 -73 418 -58 q 382 -118 382 -87 l 382 -137 q 399 -183 382 -168 q 449 -197 415 -197 "},"À":{"ha":894,"x_min":31,"x_max":864,"o":"m 458 828 l 428 829 l 758 35 q 779 7 765 17 q 810 -3 793 -3 q 847 12 831 -3 q 864 51 864 26 q 860 74 864 63 l 501 940 q 481 967 496 957 q 449 976 467 976 q 416 969 431 978 q 394 940 401 960 l 35 65 q 32 44 31 54 q 44 11 32 25 q 83 -3 57 -3 q 113 7 99 -3 q 132 33 126 17 l 458 828 m 201 260 l 682 260 l 661 368 l 249 368 l 201 260 m 449 1035 q 476 1044 467 1035 q 486 1068 486 1054 q 482 1083 486 1076 q 469 1097 478 1090 l 347 1197 q 325 1212 338 1206 q 299 1218 313 1218 q 262 1203 278 1218 q 246 1167 246 1189 q 281 1114 246 1133 l 418 1044 q 433 1038 425 1040 q 449 1035 440 1035 "},"Ả":{"ha":894,"x_min":31,"x_max":864,"o":"m 458 828 l 428 829 l 758 35 q 779 7 765 17 q 810 -3 793 -3 q 847 12 831 -3 q 864 51 864 26 q 860 74 864 63 l 501 940 q 481 967 496 957 q 449 976 467 976 q 416 969 431 978 q 394 940 401 960 l 35 65 q 32 44 31 54 q 44 11 32 25 q 83 -3 57 -3 q 113 7 99 -3 q 132 33 126 17 l 458 828 m 201 260 l 682 260 l 661 368 l 249 368 l 201 260 m 335 1265 q 319 1241 322 1256 q 328 1213 315 1226 q 353 1200 340 1199 q 378 1210 367 1201 q 406 1226 390 1218 q 439 1235 421 1235 q 474 1224 460 1235 q 489 1193 489 1213 q 478 1165 489 1179 q 451 1132 467 1150 q 435 1104 439 1118 q 431 1078 431 1090 q 440 1057 431 1064 q 461 1050 449 1050 q 489 1056 478 1050 q 500 1076 500 1063 q 508 1097 501 1088 q 524 1118 514 1107 q 552 1158 542 1139 q 563 1200 563 1176 q 552 1247 563 1222 q 515 1290 542 1272 q 440 1308 489 1308 q 381 1297 407 1308 q 335 1265 356 1285 "},"Ȃ":{"ha":894,"x_min":31,"x_max":864,"o":"m 458 828 l 428 829 l 758 35 q 779 7 765 17 q 810 -3 793 -3 q 847 12 831 -3 q 864 51 864 26 q 860 74 864 63 l 501 940 q 481 967 496 957 q 449 976 467 976 q 416 969 431 978 q 394 940 401 960 l 35 65 q 32 44 31 54 q 44 11 32 25 q 83 -3 57 -3 q 113 7 99 -3 q 132 33 126 17 l 458 828 m 201 260 l 682 260 l 661 368 l 249 368 l 201 260 m 449 1231 q 359 1213 400 1231 q 291 1165 318 1196 q 254 1096 264 1135 q 258 1060 247 1074 q 289 1046 269 1046 q 322 1056 310 1046 q 344 1085 335 1067 q 383 1130 356 1114 q 449 1146 411 1146 q 515 1130 488 1146 q 553 1085 542 1114 q 576 1056 564 1067 q 610 1046 588 1046 q 640 1060 629 1046 q 643 1097 650 1075 q 607 1167 635 1136 q 539 1214 579 1197 q 449 1231 499 1231 "},"Ā":{"ha":894,"x_min":31,"x_max":864,"o":"m 458 828 l 428 829 l 758 35 q 779 7 765 17 q 810 -3 793 -3 q 847 12 831 -3 q 864 51 864 26 q 860 74 864 63 l 501 940 q 481 967 496 957 q 449 976 467 976 q 416 969 431 978 q 394 940 401 960 l 35 65 q 32 44 31 54 q 44 11 32 25 q 83 -3 57 -3 q 113 7 99 -3 q 132 33 126 17 l 458 828 m 201 260 l 682 260 l 661 368 l 249 368 l 201 260 m 278 1078 l 626 1078 q 676 1121 676 1078 q 626 1165 676 1165 l 278 1165 q 228 1121 228 1165 q 278 1078 228 1078 "},"Ą":{"ha":897,"x_min":32,"x_max":894,"o":"m 764 -272 q 827 -259 797 -272 q 876 -226 857 -246 q 894 -186 894 -206 q 883 -155 894 -167 q 853 -143 871 -143 q 832 -148 843 -143 q 811 -165 821 -153 q 775 -182 800 -182 q 735 -165 753 -182 q 717 -114 717 -147 q 752 -45 717 -76 q 838 -1 788 -14 q 863 14 856 4 q 871 38 871 24 q 867 56 871 46 l 501 940 q 481 967 496 957 q 449 976 467 976 q 416 969 431 978 q 394 940 401 960 l 36 67 q 32 43 32 56 q 44 9 33 21 q 83 -3 56 -3 q 113 7 99 -3 q 132 33 126 17 l 458 828 l 428 829 l 767 15 l 810 29 l 807 60 q 744 36 776 51 q 683 -2 711 21 q 638 -57 656 -25 q 619 -133 619 -89 q 663 -237 619 -201 q 764 -272 707 -272 m 214 260 l 682 260 l 661 368 l 249 368 l 214 260 "},"Å":{"ha":897,"x_min":31,"x_max":864,"o":"m 450 907 q 522 926 489 907 q 576 978 556 946 q 597 1049 597 1010 q 576 1120 597 1088 q 522 1172 556 1153 q 450 1190 489 1190 q 377 1172 411 1190 q 323 1120 343 1153 q 303 1049 303 1088 q 323 978 303 1010 q 377 926 343 946 q 450 907 411 907 m 450 978 q 398 999 419 978 q 376 1049 376 1019 q 398 1100 376 1081 q 450 1119 419 1119 q 501 1100 479 1119 q 524 1049 524 1081 q 502 999 524 1019 q 450 978 481 978 m 458 828 l 428 829 l 758 35 q 779 7 765 17 q 810 -3 793 -3 q 847 12 831 -3 q 864 51 864 26 q 860 74 864 63 l 501 940 q 481 967 496 957 q 449 976 467 976 q 416 969 431 978 q 394 940 401 960 l 35 65 q 32 44 31 54 q 44 11 32 25 q 83 -3 57 -3 q 113 7 99 -3 q 132 33 126 17 l 458 828 m 201 260 l 682 260 l 661 368 l 249 368 l 201 260 "},"Ǻ":{"ha":897,"x_min":31,"x_max":864,"o":"m 450 907 q 522 926 489 907 q 576 978 556 946 q 597 1049 597 1010 q 576 1120 597 1088 q 522 1172 556 1153 q 450 1190 489 1190 q 377 1172 411 1190 q 323 1120 343 1153 q 303 1049 303 1088 q 323 978 303 1010 q 377 926 343 946 q 450 907 411 907 m 450 978 q 398 999 419 978 q 376 1049 376 1019 q 398 1100 376 1081 q 450 1119 419 1119 q 501 1100 479 1119 q 524 1049 524 1081 q 502 999 524 1019 q 450 978 481 978 m 458 828 l 428 829 l 758 35 q 779 7 765 17 q 810 -3 793 -3 q 847 12 831 -3 q 864 51 864 26 q 860 74 864 63 l 501 940 q 481 967 496 957 q 449 976 467 976 q 416 969 431 978 q 394 940 401 960 l 35 65 q 32 44 31 54 q 44 11 32 25 q 83 -3 57 -3 q 113 7 99 -3 q 132 33 126 17 l 458 828 m 201 260 l 682 260 l 661 368 l 249 368 l 201 260 m 454 1247 q 469 1250 461 1247 q 485 1257 478 1253 l 621 1326 q 648 1349 639 1335 q 657 1379 657 1363 q 640 1416 657 1401 q 604 1431 624 1431 q 578 1424 590 1431 q 554 1410 565 1418 l 432 1310 q 421 1296 425 1303 q 417 1281 417 1289 q 426 1257 417 1267 q 454 1247 436 1247 "},"Ã":{"ha":894,"x_min":31,"x_max":864,"o":"m 458 828 l 428 829 l 758 35 q 779 7 765 17 q 810 -3 793 -3 q 847 12 831 -3 q 864 51 864 26 q 860 74 864 63 l 501 940 q 481 967 496 957 q 449 976 467 976 q 416 969 431 978 q 394 940 401 960 l 35 65 q 32 44 31 54 q 44 11 32 25 q 83 -3 57 -3 q 113 7 99 -3 q 132 33 126 17 l 458 828 m 201 260 l 682 260 l 661 368 l 249 368 l 201 260 m 268 1054 q 297 1066 285 1054 q 306 1099 308 1078 q 321 1132 308 1121 q 350 1143 333 1143 q 409 1123 375 1143 q 483 1083 443 1103 q 561 1063 522 1063 q 622 1077 596 1063 q 662 1117 647 1092 q 681 1169 676 1142 q 669 1222 682 1201 q 632 1242 657 1242 q 603 1229 614 1242 q 596 1194 592 1217 q 585 1161 596 1174 q 556 1149 574 1149 q 499 1169 532 1149 q 428 1211 465 1190 q 354 1232 392 1232 q 264 1203 300 1232 q 222 1128 228 1174 q 233 1074 219 1094 q 268 1054 246 1054 "},"Æ":{"ha":1261,"x_min":8,"x_max":1199,"o":"m 254 329 l 186 222 l 642 222 l 613 242 l 613 57 q 628 17 613 33 q 668 0 644 0 l 1142 0 q 1182 15 1165 0 q 1199 54 1199 31 q 1182 92 1199 75 q 1142 108 1165 108 l 715 108 l 726 83 l 726 458 l 714 442 l 1079 442 q 1119 456 1103 442 q 1136 494 1136 471 q 1119 534 1136 518 q 1079 550 1103 550 l 717 550 l 726 529 l 726 878 l 715 865 l 1142 865 q 1182 880 1165 865 q 1199 918 1199 894 q 1182 957 1199 942 q 1142 972 1165 972 l 676 972 q 648 967 661 972 q 625 949 635 963 l 21 83 q 10 47 8 67 q 27 10 11 24 q 61 -4 43 -4 q 103 19 86 -4 l 636 793 l 613 813 l 613 292 l 636 329 l 254 329 "},"Ǽ":{"ha":1261,"x_min":8,"x_max":1199,"o":"m 254 329 l 186 222 l 642 222 l 613 242 l 613 57 q 628 17 613 33 q 668 0 644 0 l 1142 0 q 1182 15 1165 0 q 1199 54 1199 31 q 1182 92 1199 75 q 1142 108 1165 108 l 715 108 l 726 83 l 726 458 l 714 442 l 1079 442 q 1119 456 1103 442 q 1136 494 1136 471 q 1119 534 1136 518 q 1079 550 1103 550 l 717 550 l 726 529 l 726 878 l 715 865 l 1142 865 q 1182 880 1165 865 q 1199 918 1199 894 q 1182 957 1199 942 q 1142 972 1165 972 l 676 972 q 648 967 661 972 q 625 949 635 963 l 21 83 q 10 47 8 67 q 27 10 11 24 q 61 -4 43 -4 q 103 19 86 -4 l 636 793 l 613 813 l 613 292 l 636 329 l 254 329 m 858 1032 q 874 1035 865 1032 q 889 1042 882 1038 l 1025 1111 q 1052 1133 1043 1119 q 1061 1164 1061 1147 q 1044 1201 1061 1186 q 1008 1215 1028 1215 q 982 1209 994 1215 q 958 1194 969 1203 l 836 1094 q 825 1081 829 1088 q 821 1065 821 1074 q 831 1042 821 1051 q 858 1032 840 1032 "},"B":{"ha":907,"x_min":122,"x_max":844,"o":"m 540 972 l 178 972 q 138 956 154 972 q 122 917 122 940 l 122 57 q 138 17 122 33 q 178 0 154 0 l 543 0 q 651 14 597 0 q 748 60 704 28 q 818 147 792 93 q 844 279 844 200 q 817 403 844 353 q 747 483 790 453 q 651 528 703 514 q 551 542 600 542 l 554 503 q 685 536 632 506 q 767 618 739 567 q 794 731 794 669 q 728 909 794 846 q 540 972 663 972 m 524 863 q 635 824 594 863 q 675 717 675 786 q 631 599 675 639 q 526 560 588 560 l 226 560 l 242 542 l 242 888 l 225 863 l 524 863 m 535 449 q 626 435 582 449 q 697 384 669 421 q 725 279 725 347 q 673 150 725 192 q 539 108 621 108 l 231 108 l 242 96 l 242 458 l 232 449 l 535 449 "},"C":{"ha":896,"x_min":63,"x_max":854,"o":"m 822 908 q 697 964 765 944 q 556 983 628 983 q 362 946 451 983 q 205 842 272 908 q 100 685 138 775 q 63 486 63 594 q 102 278 63 371 q 210 121 142 186 q 367 21 278 56 q 556 -14 456 -14 q 652 -4 604 -14 q 744 23 700 6 q 824 61 789 40 q 850 97 846 72 q 838 143 854 121 q 804 163 824 160 q 765 156 785 165 q 665 111 718 126 q 556 96 613 96 q 409 122 476 96 q 291 199 342 149 q 211 322 240 250 q 182 486 182 394 q 210 643 182 572 q 288 765 238 714 q 406 845 338 817 q 556 874 474 874 q 667 858 614 874 q 765 814 719 842 q 804 806 785 804 q 836 825 824 807 q 849 871 853 846 q 822 908 846 896 "},"Ć":{"ha":896,"x_min":63,"x_max":854,"o":"m 822 908 q 697 964 765 944 q 556 983 628 983 q 362 946 451 983 q 205 842 272 908 q 100 685 138 775 q 63 486 63 594 q 102 278 63 371 q 210 121 142 186 q 367 21 278 56 q 556 -14 456 -14 q 652 -4 604 -14 q 744 23 700 6 q 824 61 789 40 q 850 97 846 72 q 838 143 854 121 q 804 163 824 160 q 765 156 785 165 q 665 111 718 126 q 556 96 613 96 q 409 122 476 96 q 291 199 342 149 q 211 322 240 250 q 182 486 182 394 q 210 643 182 572 q 288 765 238 714 q 406 845 338 817 q 556 874 474 874 q 667 858 614 874 q 765 814 719 842 q 804 806 785 804 q 836 825 824 807 q 849 871 853 846 q 822 908 846 896 m 535 1032 q 550 1035 542 1032 q 565 1042 558 1038 l 701 1111 q 728 1133 719 1119 q 738 1164 738 1147 q 721 1201 738 1186 q 685 1215 704 1215 q 658 1209 671 1215 q 635 1194 646 1203 l 513 1094 q 501 1081 506 1088 q 497 1065 497 1074 q 507 1042 497 1051 q 535 1032 517 1032 "},"Č":{"ha":896,"x_min":63,"x_max":854,"o":"m 822 908 q 697 964 765 944 q 556 983 628 983 q 362 946 451 983 q 205 842 272 908 q 100 685 138 775 q 63 486 63 594 q 102 278 63 371 q 210 121 142 186 q 367 21 278 56 q 556 -14 456 -14 q 652 -4 604 -14 q 744 23 700 6 q 824 61 789 40 q 850 97 846 72 q 838 143 854 121 q 804 163 824 160 q 765 156 785 165 q 665 111 718 126 q 556 96 613 96 q 409 122 476 96 q 291 199 342 149 q 211 322 240 250 q 182 486 182 394 q 210 643 182 572 q 288 765 238 714 q 406 845 338 817 q 556 874 474 874 q 667 858 614 874 q 765 814 719 842 q 804 806 785 804 q 836 825 824 807 q 849 871 853 846 q 822 908 846 896 m 514 1124 l 547 1126 l 426 1213 q 378 1233 396 1233 q 356 1226 365 1233 q 347 1208 347 1218 q 351 1195 347 1201 q 363 1179 354 1189 l 463 1069 q 488 1049 475 1056 q 521 1042 501 1042 l 539 1042 q 572 1049 558 1042 q 599 1069 586 1056 l 699 1179 q 710 1195 707 1189 q 713 1208 713 1201 q 704 1226 713 1218 q 683 1235 696 1235 q 662 1230 674 1235 q 635 1214 650 1225 l 514 1124 "},"Ç":{"ha":896,"x_min":63,"x_max":854,"o":"m 822 908 q 697 964 765 944 q 556 983 628 983 q 362 946 451 983 q 205 842 272 908 q 100 685 138 775 q 63 486 63 594 q 102 278 63 371 q 210 121 142 186 q 367 21 278 56 q 556 -14 456 -14 q 652 -4 604 -14 q 744 23 700 6 q 824 61 789 40 q 850 97 846 72 q 838 143 854 121 q 804 163 824 160 q 765 156 785 165 q 665 111 718 126 q 556 96 613 96 q 409 122 476 96 q 291 199 342 149 q 211 322 240 250 q 182 486 182 394 q 210 643 182 572 q 288 765 238 714 q 406 845 338 817 q 556 874 474 874 q 667 858 614 874 q 765 814 719 842 q 804 806 785 804 q 836 825 824 807 q 849 871 853 846 q 822 908 846 896 m 467 -203 q 510 -169 496 -203 l 594 28 l 525 28 l 408 -121 q 397 -151 397 -135 q 410 -178 397 -167 q 439 -197 422 -190 q 467 -203 456 -203 "},"Ḉ":{"ha":896,"x_min":63,"x_max":854,"o":"m 822 908 q 697 964 765 944 q 556 983 628 983 q 362 946 451 983 q 205 842 272 908 q 100 685 138 775 q 63 486 63 594 q 102 278 63 371 q 210 121 142 186 q 367 21 278 56 q 556 -14 456 -14 q 652 -4 604 -14 q 744 23 700 6 q 824 61 789 40 q 850 97 846 72 q 838 143 854 121 q 804 163 824 160 q 765 156 785 165 q 665 111 718 126 q 556 96 613 96 q 409 122 476 96 q 291 199 342 149 q 211 322 240 250 q 182 486 182 394 q 210 643 182 572 q 288 765 238 714 q 406 845 338 817 q 556 874 474 874 q 667 858 614 874 q 765 814 719 842 q 804 806 785 804 q 836 825 824 807 q 849 871 853 846 q 822 908 846 896 m 467 -203 q 510 -169 496 -203 l 594 28 l 525 28 l 408 -121 q 397 -151 397 -135 q 410 -178 397 -167 q 439 -197 422 -190 q 467 -203 456 -203 m 535 1032 q 550 1035 542 1032 q 565 1042 558 1038 l 701 1111 q 728 1133 719 1119 q 738 1164 738 1147 q 721 1201 738 1186 q 685 1215 704 1215 q 658 1209 671 1215 q 635 1194 646 1203 l 513 1094 q 501 1081 506 1088 q 497 1065 497 1074 q 507 1042 497 1051 q 535 1032 517 1032 "},"Ĉ":{"ha":896,"x_min":63,"x_max":854,"o":"m 822 908 q 697 964 765 944 q 556 983 628 983 q 362 946 451 983 q 205 842 272 908 q 100 685 138 775 q 63 486 63 594 q 102 278 63 371 q 210 121 142 186 q 367 21 278 56 q 556 -14 456 -14 q 652 -4 604 -14 q 744 23 700 6 q 824 61 789 40 q 850 97 846 72 q 838 143 854 121 q 804 163 824 160 q 765 156 785 165 q 665 111 718 126 q 556 96 613 96 q 409 122 476 96 q 291 199 342 149 q 211 322 240 250 q 182 486 182 394 q 210 643 182 572 q 288 765 238 714 q 406 845 338 817 q 556 874 474 874 q 667 858 614 874 q 765 814 719 842 q 804 806 785 804 q 836 825 824 807 q 849 871 853 846 q 822 908 846 896 m 546 1157 l 513 1154 l 633 1071 q 660 1055 649 1061 q 682 1049 672 1049 q 704 1057 696 1049 q 713 1074 713 1065 q 709 1088 713 1082 q 697 1103 706 1094 l 597 1213 q 572 1233 585 1226 q 539 1240 558 1240 l 521 1240 q 488 1233 501 1240 q 461 1213 475 1226 l 361 1103 q 350 1087 353 1093 q 347 1074 347 1081 q 356 1056 347 1064 q 376 1047 364 1047 q 399 1053 388 1047 q 425 1069 410 1060 l 546 1157 "},"Ċ":{"ha":896,"x_min":63,"x_max":854,"o":"m 822 908 q 697 964 765 944 q 556 983 628 983 q 362 946 451 983 q 205 842 272 908 q 100 685 138 775 q 63 486 63 594 q 102 278 63 371 q 210 121 142 186 q 367 21 278 56 q 556 -14 456 -14 q 652 -4 604 -14 q 744 23 700 6 q 824 61 789 40 q 850 97 846 72 q 838 143 854 121 q 804 163 824 160 q 765 156 785 165 q 665 111 718 126 q 556 96 613 96 q 409 122 476 96 q 291 199 342 149 q 211 322 240 250 q 182 486 182 394 q 210 643 182 572 q 288 765 238 714 q 406 845 338 817 q 556 874 474 874 q 667 858 614 874 q 765 814 719 842 q 804 806 785 804 q 836 825 824 807 q 849 871 853 846 q 822 908 846 896 m 515 1056 q 567 1070 550 1056 q 585 1115 585 1085 l 585 1135 q 568 1180 585 1165 q 517 1194 551 1194 q 467 1180 485 1194 q 449 1135 449 1165 l 449 1115 q 465 1070 449 1085 q 515 1056 482 1056 "},"D":{"ha":997,"x_min":122,"x_max":935,"o":"m 525 972 l 178 972 q 138 956 154 972 q 122 917 122 940 l 122 57 q 138 17 122 33 q 178 0 154 0 l 525 0 q 753 66 663 0 q 889 242 843 132 q 935 486 935 353 q 909 672 935 583 q 832 828 883 760 q 703 934 781 896 q 525 972 626 972 m 511 108 l 229 108 l 238 94 l 238 876 l 226 865 l 511 865 q 649 835 592 865 q 744 751 707 804 q 798 630 781 699 q 815 486 815 561 q 784 297 815 383 q 685 160 753 211 q 511 108 618 108 "},"Ǆ":{"ha":1893,"x_min":122,"x_max":1835,"o":"m 525 972 l 178 972 q 138 956 154 972 q 122 917 122 940 l 122 57 q 138 17 122 33 q 178 0 154 0 l 525 0 q 753 66 663 0 q 889 242 843 132 q 935 486 935 353 q 909 672 935 583 q 832 828 883 760 q 703 934 781 896 q 525 972 626 972 m 511 108 l 229 108 l 238 94 l 238 876 l 226 865 l 511 865 q 649 835 592 865 q 744 751 707 804 q 798 630 781 699 q 815 486 815 561 q 784 297 815 383 q 685 160 753 211 q 511 108 618 108 m 1774 972 l 1164 972 q 1124 958 1140 972 q 1107 919 1107 943 q 1124 882 1107 897 q 1164 867 1140 867 l 1683 867 l 1672 874 l 1076 90 q 1064 56 1064 74 q 1081 18 1064 36 q 1122 0 1097 0 l 1768 0 q 1808 15 1792 0 q 1825 54 1825 31 q 1808 92 1825 76 q 1768 107 1792 107 l 1217 107 l 1225 97 l 1822 883 q 1835 918 1835 900 q 1817 957 1835 942 q 1774 972 1799 972 m 1429 1124 l 1463 1126 l 1342 1213 q 1293 1233 1311 1233 q 1272 1226 1281 1233 q 1263 1208 1263 1218 q 1266 1195 1263 1201 q 1278 1179 1269 1189 l 1378 1069 q 1403 1049 1390 1056 q 1436 1042 1417 1042 l 1454 1042 q 1488 1049 1474 1042 q 1514 1069 1501 1056 l 1614 1179 q 1625 1195 1622 1189 q 1628 1208 1628 1201 q 1619 1226 1628 1218 q 1599 1235 1611 1235 q 1577 1230 1589 1235 q 1550 1214 1565 1225 l 1429 1124 "},"Ð":{"ha":997,"x_min":14,"x_max":935,"o":"m 525 972 l 178 972 q 138 956 154 972 q 122 917 122 940 l 122 57 q 138 17 122 33 q 178 0 154 0 l 525 0 q 753 66 663 0 q 889 242 843 132 q 935 486 935 353 q 909 672 935 583 q 832 828 883 760 q 703 934 781 896 q 525 972 626 972 m 511 108 l 229 108 l 238 94 l 238 876 l 226 865 l 511 865 q 649 835 592 865 q 744 751 707 804 q 798 630 781 699 q 815 486 815 561 q 784 297 815 383 q 685 160 753 211 q 511 108 618 108 m 71 438 l 303 438 q 343 451 328 438 q 358 489 358 465 q 343 526 358 511 q 303 540 328 540 l 71 540 q 30 526 46 540 q 14 489 14 511 q 30 451 14 465 q 71 438 46 438 "},"Ď":{"ha":997,"x_min":122,"x_max":935,"o":"m 525 972 l 178 972 q 138 956 154 972 q 122 917 122 940 l 122 57 q 138 17 122 33 q 178 0 154 0 l 525 0 q 753 66 663 0 q 889 242 843 132 q 935 486 935 353 q 909 672 935 583 q 832 828 883 760 q 703 934 781 896 q 525 972 626 972 m 511 108 l 229 108 l 238 94 l 238 876 l 226 865 l 511 865 q 649 835 592 865 q 744 751 707 804 q 798 630 781 699 q 815 486 815 561 q 784 297 815 383 q 685 160 753 211 q 511 108 618 108 m 415 1124 l 449 1126 l 328 1213 q 279 1233 297 1233 q 258 1226 267 1233 q 249 1208 249 1218 q 252 1195 249 1201 q 264 1179 256 1189 l 364 1069 q 390 1049 376 1056 q 422 1042 403 1042 l 440 1042 q 474 1049 460 1042 q 500 1069 488 1056 l 600 1179 q 611 1195 608 1189 q 614 1208 614 1201 q 606 1226 614 1218 q 585 1235 597 1235 q 563 1230 575 1235 q 536 1214 551 1225 l 415 1124 "},"Ḓ":{"ha":997,"x_min":122,"x_max":935,"o":"m 525 972 l 178 972 q 138 956 154 972 q 122 917 122 940 l 122 57 q 138 17 122 33 q 178 0 154 0 l 525 0 q 753 66 663 0 q 889 242 843 132 q 935 486 935 353 q 909 672 935 583 q 832 828 883 760 q 703 934 781 896 q 525 972 626 972 m 511 108 l 229 108 l 238 94 l 238 876 l 226 865 l 511 865 q 649 835 592 865 q 744 751 707 804 q 798 630 781 699 q 815 486 815 561 q 784 297 815 383 q 685 160 753 211 q 511 108 618 108 m 451 -157 l 408 -153 l 529 -253 q 552 -270 543 -264 q 576 -276 561 -276 q 598 -269 590 -276 q 606 -251 606 -261 q 603 -237 606 -243 q 593 -221 601 -231 l 507 -119 q 484 -97 496 -103 q 453 -90 472 -90 l 421 -90 q 361 -119 383 -90 l 271 -222 q 261 -237 264 -231 q 258 -251 258 -244 q 267 -269 258 -261 q 288 -278 275 -278 q 313 -271 304 -278 q 335 -254 322 -264 l 451 -157 "},"Đ":{"ha":997,"x_min":14,"x_max":935,"o":"m 525 972 l 178 972 q 138 956 154 972 q 122 917 122 940 l 122 57 q 138 17 122 33 q 178 0 154 0 l 525 0 q 753 66 663 0 q 889 242 843 132 q 935 486 935 353 q 909 672 935 583 q 832 828 883 760 q 703 934 781 896 q 525 972 626 972 m 511 108 l 229 108 l 238 94 l 238 876 l 226 865 l 511 865 q 649 835 592 865 q 744 751 707 804 q 798 630 781 699 q 815 486 815 561 q 784 297 815 383 q 685 160 753 211 q 511 108 618 108 m 71 438 l 303 438 q 343 451 328 438 q 358 489 358 465 q 343 526 358 511 q 303 540 328 540 l 71 540 q 30 526 46 540 q 14 489 14 511 q 30 451 14 465 q 71 438 46 438 "},"Ḍ":{"ha":997,"x_min":122,"x_max":935,"o":"m 525 972 l 178 972 q 138 956 154 972 q 122 917 122 940 l 122 57 q 138 17 122 33 q 178 0 154 0 l 525 0 q 753 66 663 0 q 889 242 843 132 q 935 486 935 353 q 909 672 935 583 q 832 828 883 760 q 703 934 781 896 q 525 972 626 972 m 511 108 l 229 108 l 238 94 l 238 876 l 226 865 l 511 865 q 649 835 592 865 q 744 751 707 804 q 798 630 781 699 q 815 486 815 561 q 784 297 815 383 q 685 160 753 211 q 511 108 618 108 m 432 -197 q 484 -183 467 -197 q 501 -137 501 -168 l 501 -118 q 485 -73 501 -87 q 433 -58 468 -58 q 383 -73 401 -58 q 365 -118 365 -87 l 365 -137 q 382 -183 365 -168 q 432 -197 399 -197 "},"Ḏ":{"ha":997,"x_min":122,"x_max":935,"o":"m 525 972 l 178 972 q 138 956 154 972 q 122 917 122 940 l 122 57 q 138 17 122 33 q 178 0 154 0 l 525 0 q 753 66 663 0 q 889 242 843 132 q 935 486 935 353 q 909 672 935 583 q 832 828 883 760 q 703 934 781 896 q 525 972 626 972 m 511 108 l 229 108 l 238 94 l 238 876 l 226 865 l 511 865 q 649 835 592 865 q 744 751 707 804 q 798 630 781 699 q 815 486 815 561 q 784 297 815 383 q 685 160 753 211 q 511 108 618 108 m 290 -186 l 597 -186 q 646 -143 646 -186 q 597 -99 646 -99 l 290 -99 q 242 -143 242 -99 q 290 -186 242 -186 "},"ǲ":{"ha":1663,"x_min":122,"x_max":1608,"o":"m 525 972 l 178 972 q 138 956 154 972 q 122 917 122 940 l 122 57 q 138 17 122 33 q 178 0 154 0 l 525 0 q 753 66 663 0 q 889 242 843 132 q 935 486 935 353 q 909 672 935 583 q 832 828 883 760 q 703 934 781 896 q 525 972 626 972 m 511 108 l 229 108 l 238 94 l 238 876 l 226 865 l 511 865 q 649 835 592 865 q 744 751 707 804 q 798 630 781 699 q 815 486 815 561 q 784 297 815 383 q 685 160 753 211 q 511 108 618 108 m 1554 103 l 1190 103 l 1200 96 l 1593 626 q 1604 648 1601 639 q 1608 667 1607 657 q 1594 706 1608 690 q 1557 722 1579 722 l 1131 722 q 1093 708 1108 722 q 1078 672 1078 693 q 1093 635 1078 650 q 1131 619 1108 619 l 1467 619 l 1465 635 l 1068 97 q 1056 75 1058 85 q 1051 51 1053 65 q 1065 18 1051 36 q 1104 0 1079 0 l 1554 0 q 1592 15 1576 0 q 1607 51 1607 31 q 1592 88 1607 74 q 1554 103 1576 103 "},"ǅ":{"ha":1664,"x_min":122,"x_max":1610,"o":"m 525 972 l 178 972 q 138 956 154 972 q 122 917 122 940 l 122 57 q 138 17 122 33 q 178 0 154 0 l 525 0 q 753 66 663 0 q 889 242 843 132 q 935 486 935 353 q 909 672 935 583 q 832 828 883 760 q 703 934 781 896 q 525 972 626 972 m 511 108 l 229 108 l 238 94 l 238 876 l 226 865 l 511 865 q 649 835 592 865 q 744 751 707 804 q 798 630 781 699 q 815 486 815 561 q 784 297 815 383 q 685 160 753 211 q 511 108 618 108 m 1556 103 l 1192 103 l 1201 96 l 1594 626 q 1606 648 1603 639 q 1610 667 1608 657 q 1595 706 1610 690 q 1558 722 1581 722 l 1132 722 q 1094 708 1110 722 q 1079 672 1079 693 q 1094 635 1079 650 q 1132 619 1110 619 l 1468 619 l 1467 635 l 1069 97 q 1057 75 1060 85 q 1053 51 1054 65 q 1067 18 1053 36 q 1106 0 1081 0 l 1556 0 q 1593 15 1578 0 q 1608 51 1608 31 q 1593 88 1608 74 q 1556 103 1578 103 m 1329 804 l 1361 804 q 1421 833 1399 804 l 1507 932 q 1519 949 1515 942 q 1522 964 1522 957 q 1513 983 1522 975 q 1492 990 1504 990 q 1464 985 1475 990 q 1440 968 1453 979 l 1335 878 l 1361 879 l 1253 967 q 1208 990 1225 990 q 1181 982 1190 990 q 1171 961 1171 974 q 1183 931 1171 946 l 1271 833 q 1329 804 1292 804 "},"E":{"ha":792,"x_min":122,"x_max":729,"o":"m 178 972 q 138 956 154 972 q 122 917 122 940 l 122 57 q 138 17 122 33 q 178 0 154 0 l 672 0 q 713 15 696 0 q 729 54 729 31 q 713 92 729 75 q 672 108 696 108 l 229 108 l 238 99 l 238 458 l 228 446 l 610 446 q 650 460 633 446 q 667 499 667 475 q 650 538 667 522 q 610 553 633 553 l 224 553 l 238 538 l 238 889 l 225 865 l 672 865 q 713 880 696 865 q 729 918 729 894 q 713 957 729 942 q 672 972 696 972 l 178 972 "},"É":{"ha":792,"x_min":122,"x_max":729,"o":"m 178 972 q 138 956 154 972 q 122 917 122 940 l 122 57 q 138 17 122 33 q 178 0 154 0 l 672 0 q 713 15 696 0 q 729 54 729 31 q 713 92 729 75 q 672 108 696 108 l 229 108 l 238 99 l 238 458 l 228 446 l 610 446 q 650 460 633 446 q 667 499 667 475 q 650 538 667 522 q 610 553 633 553 l 224 553 l 238 538 l 238 889 l 225 865 l 672 865 q 713 880 696 865 q 729 918 729 894 q 713 957 729 942 q 672 972 696 972 l 178 972 m 440 1032 q 456 1035 447 1032 q 471 1042 464 1038 l 607 1111 q 634 1133 625 1119 q 643 1164 643 1147 q 626 1201 643 1186 q 590 1215 610 1215 q 564 1209 576 1215 q 540 1194 551 1203 l 418 1094 q 407 1081 411 1088 q 403 1065 403 1074 q 413 1042 403 1051 q 440 1032 422 1032 "},"Ĕ":{"ha":792,"x_min":122,"x_max":729,"o":"m 178 972 q 138 956 154 972 q 122 917 122 940 l 122 57 q 138 17 122 33 q 178 0 154 0 l 672 0 q 713 15 696 0 q 729 54 729 31 q 713 92 729 75 q 672 108 696 108 l 229 108 l 238 99 l 238 458 l 228 446 l 610 446 q 650 460 633 446 q 667 499 667 475 q 650 538 667 522 q 610 553 633 553 l 224 553 l 238 538 l 238 889 l 225 865 l 672 865 q 713 880 696 865 q 729 918 729 894 q 713 957 729 942 q 672 972 696 972 l 178 972 m 436 1069 q 563 1105 511 1069 q 638 1207 615 1140 q 636 1244 646 1231 q 606 1258 626 1258 q 573 1249 585 1258 q 550 1222 561 1239 q 436 1156 517 1156 q 368 1172 396 1156 q 322 1222 340 1189 q 299 1249 310 1240 q 267 1258 289 1258 q 238 1244 247 1258 q 236 1206 228 1229 q 310 1105 258 1140 q 436 1069 363 1069 "},"Ě":{"ha":792,"x_min":122,"x_max":729,"o":"m 178 972 q 138 956 154 972 q 122 917 122 940 l 122 57 q 138 17 122 33 q 178 0 154 0 l 672 0 q 713 15 696 0 q 729 54 729 31 q 713 92 729 75 q 672 108 696 108 l 229 108 l 238 99 l 238 458 l 228 446 l 610 446 q 650 460 633 446 q 667 499 667 475 q 650 538 667 522 q 610 553 633 553 l 224 553 l 238 538 l 238 889 l 225 865 l 672 865 q 713 880 696 865 q 729 918 729 894 q 713 957 729 942 q 672 972 696 972 l 178 972 m 421 1124 l 454 1126 l 333 1213 q 285 1233 303 1233 q 263 1226 272 1233 q 254 1208 254 1218 q 258 1195 254 1201 q 269 1179 261 1189 l 369 1069 q 395 1049 382 1056 q 428 1042 408 1042 l 446 1042 q 479 1049 465 1042 q 506 1069 493 1056 l 606 1179 q 617 1195 614 1189 q 619 1208 619 1201 q 611 1226 619 1218 q 590 1235 603 1235 q 569 1230 581 1235 q 542 1214 557 1225 l 421 1124 "},"Ḝ":{"ha":792,"x_min":122,"x_max":729,"o":"m 178 972 q 138 956 154 972 q 122 917 122 940 l 122 57 q 138 17 122 33 q 178 0 154 0 l 672 0 q 713 15 696 0 q 729 54 729 31 q 713 92 729 75 q 672 108 696 108 l 229 108 l 238 99 l 238 458 l 228 446 l 610 446 q 650 460 633 446 q 667 499 667 475 q 650 538 667 522 q 610 553 633 553 l 224 553 l 238 538 l 238 889 l 225 865 l 672 865 q 713 880 696 865 q 729 918 729 894 q 713 957 729 942 q 672 972 696 972 l 178 972 m 335 -203 q 378 -169 364 -203 l 463 28 l 393 28 l 276 -121 q 265 -151 265 -135 q 278 -178 265 -167 q 307 -197 290 -190 q 335 -203 324 -203 m 436 1069 q 563 1105 511 1069 q 638 1207 615 1140 q 636 1244 646 1231 q 606 1258 626 1258 q 573 1249 585 1258 q 550 1222 561 1239 q 436 1156 517 1156 q 368 1172 396 1156 q 322 1222 340 1189 q 299 1249 310 1240 q 267 1258 289 1258 q 238 1244 247 1258 q 236 1206 228 1229 q 310 1105 258 1140 q 436 1069 363 1069 "},"Ê":{"ha":792,"x_min":122,"x_max":729,"o":"m 178 972 q 138 956 154 972 q 122 917 122 940 l 122 57 q 138 17 122 33 q 178 0 154 0 l 672 0 q 713 15 696 0 q 729 54 729 31 q 713 92 729 75 q 672 108 696 108 l 229 108 l 238 99 l 238 458 l 228 446 l 610 446 q 650 460 633 446 q 667 499 667 475 q 650 538 667 522 q 610 553 633 553 l 224 553 l 238 538 l 238 889 l 225 865 l 672 865 q 713 880 696 865 q 729 918 729 894 q 713 957 729 942 q 672 972 696 972 l 178 972 m 451 1157 l 418 1154 l 539 1071 q 566 1055 554 1061 q 588 1049 578 1049 q 610 1057 601 1049 q 618 1074 618 1065 q 615 1088 618 1082 q 603 1103 611 1094 l 503 1213 q 477 1233 490 1226 q 444 1240 464 1240 l 426 1240 q 394 1233 407 1240 q 367 1213 381 1226 l 267 1103 q 256 1087 258 1093 q 253 1074 253 1081 q 261 1056 253 1064 q 282 1047 269 1047 q 304 1053 293 1047 q 331 1069 315 1060 l 451 1157 "},"Ế":{"ha":792,"x_min":122,"x_max":858,"o":"m 178 972 q 138 956 154 972 q 122 917 122 940 l 122 57 q 138 17 122 33 q 178 0 154 0 l 672 0 q 713 15 696 0 q 729 54 729 31 q 713 92 729 75 q 672 108 696 108 l 229 108 l 238 99 l 238 458 l 228 446 l 610 446 q 650 460 633 446 q 667 499 667 475 q 650 538 667 522 q 610 553 633 553 l 224 553 l 238 538 l 238 889 l 225 865 l 672 865 q 713 880 696 865 q 729 918 729 894 q 713 957 729 942 q 672 972 696 972 l 178 972 m 451 1157 l 418 1154 l 539 1071 q 566 1055 554 1061 q 588 1049 578 1049 q 610 1057 601 1049 q 618 1074 618 1065 q 615 1088 618 1082 q 603 1103 611 1094 l 503 1213 q 477 1233 490 1226 q 444 1240 464 1240 l 426 1240 q 394 1233 407 1240 q 367 1213 381 1226 l 267 1103 q 256 1087 258 1093 q 253 1074 253 1081 q 261 1056 253 1064 q 282 1047 269 1047 q 304 1053 293 1047 q 331 1069 315 1060 l 451 1157 m 657 1138 q 672 1140 664 1138 q 688 1147 681 1143 l 824 1217 q 851 1239 842 1225 q 860 1269 860 1253 q 843 1306 860 1292 q 807 1321 826 1321 q 781 1315 793 1321 q 757 1300 768 1308 l 635 1200 q 624 1186 628 1193 q 619 1171 619 1179 q 629 1147 619 1157 q 657 1138 639 1138 "},"Ệ":{"ha":792,"x_min":122,"x_max":729,"o":"m 178 972 q 138 956 154 972 q 122 917 122 940 l 122 57 q 138 17 122 33 q 178 0 154 0 l 672 0 q 713 15 696 0 q 729 54 729 31 q 713 92 729 75 q 672 108 696 108 l 229 108 l 238 99 l 238 458 l 228 446 l 610 446 q 650 460 633 446 q 667 499 667 475 q 650 538 667 522 q 610 553 633 553 l 224 553 l 238 538 l 238 889 l 225 865 l 672 865 q 713 880 696 865 q 729 918 729 894 q 713 957 729 942 q 672 972 696 972 l 178 972 m 419 -197 q 472 -183 454 -197 q 489 -137 489 -168 l 489 -118 q 472 -73 489 -87 q 421 -58 456 -58 q 371 -73 389 -58 q 353 -118 353 -87 l 353 -137 q 369 -183 353 -168 q 419 -197 386 -197 m 451 1157 l 418 1154 l 539 1071 q 566 1055 554 1061 q 588 1049 578 1049 q 610 1057 601 1049 q 618 1074 618 1065 q 615 1088 618 1082 q 603 1103 611 1094 l 503 1213 q 477 1233 490 1226 q 444 1240 464 1240 l 426 1240 q 394 1233 407 1240 q 367 1213 381 1226 l 267 1103 q 256 1087 258 1093 q 253 1074 253 1081 q 261 1056 253 1064 q 282 1047 269 1047 q 304 1053 293 1047 q 331 1069 315 1060 l 451 1157 "},"Ề":{"ha":792,"x_min":122,"x_max":729,"o":"m 178 972 q 138 956 154 972 q 122 917 122 940 l 122 57 q 138 17 122 33 q 178 0 154 0 l 672 0 q 713 15 696 0 q 729 54 729 31 q 713 92 729 75 q 672 108 696 108 l 229 108 l 238 99 l 238 458 l 228 446 l 610 446 q 650 460 633 446 q 667 499 667 475 q 650 538 667 522 q 610 553 633 553 l 224 553 l 238 538 l 238 889 l 225 865 l 672 865 q 713 880 696 865 q 729 918 729 894 q 713 957 729 942 q 672 972 696 972 l 178 972 m 451 1157 l 418 1154 l 539 1071 q 566 1055 554 1061 q 588 1049 578 1049 q 610 1057 601 1049 q 618 1074 618 1065 q 615 1088 618 1082 q 603 1103 611 1094 l 503 1213 q 477 1233 490 1226 q 444 1240 464 1240 l 426 1240 q 394 1233 407 1240 q 367 1213 381 1226 l 267 1103 q 256 1087 258 1093 q 253 1074 253 1081 q 261 1056 253 1064 q 282 1047 269 1047 q 304 1053 293 1047 q 331 1069 315 1060 l 451 1157 m 618 1224 q 646 1233 636 1224 q 656 1257 656 1243 q 651 1272 656 1265 q 639 1286 647 1279 l 517 1386 q 494 1401 507 1394 q 468 1407 482 1407 q 431 1392 447 1407 q 415 1356 415 1378 q 450 1303 415 1322 l 588 1233 q 602 1226 594 1229 q 618 1224 610 1224 "},"Ể":{"ha":792,"x_min":122,"x_max":729,"o":"m 178 972 q 138 956 154 972 q 122 917 122 940 l 122 57 q 138 17 122 33 q 178 0 154 0 l 672 0 q 713 15 696 0 q 729 54 729 31 q 713 92 729 75 q 672 108 696 108 l 229 108 l 238 99 l 238 458 l 228 446 l 610 446 q 650 460 633 446 q 667 499 667 475 q 650 538 667 522 q 610 553 633 553 l 224 553 l 238 538 l 238 889 l 225 865 l 672 865 q 713 880 696 865 q 729 918 729 894 q 713 957 729 942 q 672 972 696 972 l 178 972 m 451 1157 l 418 1154 l 539 1071 q 566 1055 554 1061 q 588 1049 578 1049 q 610 1057 601 1049 q 618 1074 618 1065 q 615 1088 618 1082 q 603 1103 611 1094 l 503 1213 q 477 1233 490 1226 q 444 1240 464 1240 l 426 1240 q 394 1233 407 1240 q 367 1213 381 1226 l 267 1103 q 256 1087 258 1093 q 253 1074 253 1081 q 261 1056 253 1064 q 282 1047 269 1047 q 304 1053 293 1047 q 331 1069 315 1060 l 451 1157 m 321 1554 q 305 1530 308 1544 q 314 1501 301 1515 q 340 1489 326 1488 q 364 1499 353 1490 q 392 1515 376 1507 q 425 1524 407 1524 q 460 1513 446 1524 q 475 1482 475 1501 q 464 1453 475 1468 q 438 1421 453 1439 q 421 1393 425 1407 q 417 1367 417 1379 q 426 1346 417 1353 q 447 1339 435 1339 q 475 1345 464 1339 q 486 1365 486 1351 q 494 1386 488 1376 q 510 1407 500 1396 q 538 1447 528 1428 q 549 1489 549 1465 q 538 1536 549 1511 q 501 1579 528 1561 q 426 1597 475 1597 q 367 1585 393 1597 q 321 1554 342 1574 "},"Ễ":{"ha":792,"x_min":122,"x_max":729,"o":"m 178 972 q 138 956 154 972 q 122 917 122 940 l 122 57 q 138 17 122 33 q 178 0 154 0 l 672 0 q 713 15 696 0 q 729 54 729 31 q 713 92 729 75 q 672 108 696 108 l 229 108 l 238 99 l 238 458 l 228 446 l 610 446 q 650 460 633 446 q 667 499 667 475 q 650 538 667 522 q 610 553 633 553 l 224 553 l 238 538 l 238 889 l 225 865 l 672 865 q 713 880 696 865 q 729 918 729 894 q 713 957 729 942 q 672 972 696 972 l 178 972 m 451 1157 l 418 1154 l 539 1071 q 566 1055 554 1061 q 588 1049 578 1049 q 610 1057 601 1049 q 618 1074 618 1065 q 615 1088 618 1082 q 603 1103 611 1094 l 503 1213 q 477 1233 490 1226 q 444 1240 464 1240 l 426 1240 q 394 1233 407 1240 q 367 1213 381 1226 l 267 1103 q 256 1087 258 1093 q 253 1074 253 1081 q 261 1056 253 1064 q 282 1047 269 1047 q 304 1053 293 1047 q 331 1069 315 1060 l 451 1157 m 254 1246 q 283 1258 271 1246 q 292 1290 294 1269 q 307 1324 294 1313 q 336 1335 319 1335 q 395 1315 361 1335 q 469 1274 429 1294 q 547 1254 508 1254 q 608 1269 582 1254 q 648 1308 633 1283 q 667 1361 663 1333 q 656 1413 668 1393 q 618 1433 643 1433 q 589 1421 600 1433 q 582 1386 578 1408 q 571 1353 582 1365 q 542 1340 560 1340 q 485 1361 518 1340 q 415 1403 451 1382 q 340 1424 378 1424 q 250 1394 286 1424 q 208 1319 214 1365 q 219 1266 206 1286 q 254 1246 232 1246 "},"Ȅ":{"ha":792,"x_min":122,"x_max":729,"o":"m 178 972 q 138 956 154 972 q 122 917 122 940 l 122 57 q 138 17 122 33 q 178 0 154 0 l 672 0 q 713 15 696 0 q 729 54 729 31 q 713 92 729 75 q 672 108 696 108 l 229 108 l 238 99 l 238 458 l 228 446 l 610 446 q 650 460 633 446 q 667 499 667 475 q 650 538 667 522 q 610 553 633 553 l 224 553 l 238 538 l 238 889 l 225 865 l 672 865 q 713 880 696 865 q 729 918 729 894 q 713 957 729 942 q 672 972 696 972 l 178 972 m 346 1047 q 374 1057 364 1047 q 383 1081 383 1067 q 379 1096 383 1089 q 367 1110 375 1103 l 244 1210 q 222 1224 235 1218 q 196 1231 210 1231 q 159 1216 175 1231 q 143 1179 143 1201 q 178 1126 143 1146 l 315 1057 q 330 1050 322 1053 q 346 1047 338 1047 m 596 1051 q 624 1061 614 1051 q 633 1085 633 1071 q 630 1100 633 1093 q 618 1114 626 1107 l 496 1214 q 474 1228 486 1222 q 446 1235 461 1235 q 410 1220 426 1235 q 393 1183 393 1206 q 429 1131 393 1150 l 565 1061 q 581 1054 574 1057 q 596 1051 589 1051 "},"Ë":{"ha":792,"x_min":122,"x_max":729,"o":"m 178 972 q 138 956 154 972 q 122 917 122 940 l 122 57 q 138 17 122 33 q 178 0 154 0 l 672 0 q 713 15 696 0 q 729 54 729 31 q 713 92 729 75 q 672 108 696 108 l 229 108 l 238 99 l 238 458 l 228 446 l 610 446 q 650 460 633 446 q 667 499 667 475 q 650 538 667 522 q 610 553 633 553 l 224 553 l 238 538 l 238 889 l 225 865 l 672 865 q 713 880 696 865 q 729 918 729 894 q 713 957 729 942 q 672 972 696 972 l 178 972 m 563 1069 q 613 1084 596 1069 q 629 1129 629 1099 l 629 1147 q 613 1192 629 1178 q 563 1207 596 1207 q 513 1193 531 1207 q 496 1147 496 1179 l 496 1129 q 513 1084 496 1099 q 563 1069 529 1069 m 311 1069 q 361 1084 344 1069 q 378 1129 378 1099 l 378 1147 q 361 1192 378 1178 q 313 1207 344 1207 q 263 1193 281 1207 q 244 1147 244 1179 l 244 1129 q 261 1084 244 1099 q 311 1069 278 1069 "},"Ė":{"ha":792,"x_min":122,"x_max":729,"o":"m 178 972 q 138 956 154 972 q 122 917 122 940 l 122 57 q 138 17 122 33 q 178 0 154 0 l 672 0 q 713 15 696 0 q 729 54 729 31 q 713 92 729 75 q 672 108 696 108 l 229 108 l 238 99 l 238 458 l 228 446 l 610 446 q 650 460 633 446 q 667 499 667 475 q 650 538 667 522 q 610 553 633 553 l 224 553 l 238 538 l 238 889 l 225 865 l 672 865 q 713 880 696 865 q 729 918 729 894 q 713 957 729 942 q 672 972 696 972 l 178 972 m 435 1056 q 487 1070 469 1056 q 504 1115 504 1085 l 504 1135 q 488 1180 504 1165 q 436 1194 471 1194 q 386 1180 404 1194 q 368 1135 368 1165 l 368 1115 q 385 1070 368 1085 q 435 1056 401 1056 "},"Ẹ":{"ha":792,"x_min":122,"x_max":729,"o":"m 178 972 q 138 956 154 972 q 122 917 122 940 l 122 57 q 138 17 122 33 q 178 0 154 0 l 672 0 q 713 15 696 0 q 729 54 729 31 q 713 92 729 75 q 672 108 696 108 l 229 108 l 238 99 l 238 458 l 228 446 l 610 446 q 650 460 633 446 q 667 499 667 475 q 650 538 667 522 q 610 553 633 553 l 224 553 l 238 538 l 238 889 l 225 865 l 672 865 q 713 880 696 865 q 729 918 729 894 q 713 957 729 942 q 672 972 696 972 l 178 972 m 419 -197 q 472 -183 454 -197 q 489 -137 489 -168 l 489 -118 q 472 -73 489 -87 q 421 -58 456 -58 q 371 -73 389 -58 q 353 -118 353 -87 l 353 -137 q 369 -183 353 -168 q 419 -197 386 -197 "},"È":{"ha":792,"x_min":122,"x_max":729,"o":"m 178 972 q 138 956 154 972 q 122 917 122 940 l 122 57 q 138 17 122 33 q 178 0 154 0 l 672 0 q 713 15 696 0 q 729 54 729 31 q 713 92 729 75 q 672 108 696 108 l 229 108 l 238 99 l 238 458 l 228 446 l 610 446 q 650 460 633 446 q 667 499 667 475 q 650 538 667 522 q 610 553 633 553 l 224 553 l 238 538 l 238 889 l 225 865 l 672 865 q 713 880 696 865 q 729 918 729 894 q 713 957 729 942 q 672 972 696 972 l 178 972 m 436 1035 q 464 1044 454 1035 q 474 1068 474 1054 q 469 1083 474 1076 q 457 1097 465 1090 l 335 1197 q 313 1212 325 1206 q 286 1218 300 1218 q 249 1203 265 1218 q 233 1167 233 1189 q 268 1114 233 1133 l 406 1044 q 420 1038 413 1040 q 436 1035 428 1035 "},"Ẻ":{"ha":792,"x_min":122,"x_max":729,"o":"m 178 972 q 138 956 154 972 q 122 917 122 940 l 122 57 q 138 17 122 33 q 178 0 154 0 l 672 0 q 713 15 696 0 q 729 54 729 31 q 713 92 729 75 q 672 108 696 108 l 229 108 l 238 99 l 238 458 l 228 446 l 610 446 q 650 460 633 446 q 667 499 667 475 q 650 538 667 522 q 610 553 633 553 l 224 553 l 238 538 l 238 889 l 225 865 l 672 865 q 713 880 696 865 q 729 918 729 894 q 713 957 729 942 q 672 972 696 972 l 178 972 m 321 1265 q 305 1241 308 1256 q 314 1213 301 1226 q 340 1200 326 1199 q 364 1210 353 1201 q 392 1226 376 1218 q 425 1235 407 1235 q 460 1224 446 1235 q 475 1193 475 1213 q 464 1165 475 1179 q 438 1132 453 1150 q 421 1104 425 1118 q 417 1078 417 1090 q 426 1057 417 1064 q 447 1050 435 1050 q 475 1056 464 1050 q 486 1076 486 1063 q 494 1097 488 1088 q 510 1118 500 1107 q 538 1158 528 1139 q 549 1200 549 1176 q 538 1247 549 1222 q 501 1290 528 1272 q 426 1308 475 1308 q 367 1297 393 1308 q 321 1265 342 1285 "},"Ȇ":{"ha":792,"x_min":122,"x_max":729,"o":"m 178 972 q 138 956 154 972 q 122 917 122 940 l 122 57 q 138 17 122 33 q 178 0 154 0 l 672 0 q 713 15 696 0 q 729 54 729 31 q 713 92 729 75 q 672 108 696 108 l 229 108 l 238 99 l 238 458 l 228 446 l 610 446 q 650 460 633 446 q 667 499 667 475 q 650 538 667 522 q 610 553 633 553 l 224 553 l 238 538 l 238 889 l 225 865 l 672 865 q 713 880 696 865 q 729 918 729 894 q 713 957 729 942 q 672 972 696 972 l 178 972 m 435 1231 q 345 1213 386 1231 q 277 1165 304 1196 q 240 1096 250 1135 q 244 1060 233 1074 q 275 1046 256 1046 q 308 1056 296 1046 q 331 1085 321 1067 q 369 1130 342 1114 q 435 1146 397 1146 q 501 1130 474 1146 q 539 1085 528 1114 q 562 1056 550 1067 q 596 1046 574 1046 q 626 1060 615 1046 q 629 1097 636 1075 q 593 1167 621 1136 q 525 1214 565 1197 q 435 1231 485 1231 "},"Ē":{"ha":792,"x_min":122,"x_max":729,"o":"m 178 972 q 138 956 154 972 q 122 917 122 940 l 122 57 q 138 17 122 33 q 178 0 154 0 l 672 0 q 713 15 696 0 q 729 54 729 31 q 713 92 729 75 q 672 108 696 108 l 229 108 l 238 99 l 238 458 l 228 446 l 610 446 q 650 460 633 446 q 667 499 667 475 q 650 538 667 522 q 610 553 633 553 l 224 553 l 238 538 l 238 889 l 225 865 l 672 865 q 713 880 696 865 q 729 918 729 894 q 713 957 729 942 q 672 972 696 972 l 178 972 m 265 1078 l 614 1078 q 664 1121 664 1078 q 614 1165 664 1165 l 265 1165 q 215 1121 215 1165 q 265 1078 215 1078 "},"Ḗ":{"ha":792,"x_min":122,"x_max":729,"o":"m 178 972 q 138 956 154 972 q 122 917 122 940 l 122 57 q 138 17 122 33 q 178 0 154 0 l 672 0 q 713 15 696 0 q 729 54 729 31 q 713 92 729 75 q 672 108 696 108 l 229 108 l 238 99 l 238 458 l 228 446 l 610 446 q 650 460 633 446 q 667 499 667 475 q 650 538 667 522 q 610 553 633 553 l 224 553 l 238 538 l 238 889 l 225 865 l 672 865 q 713 880 696 865 q 729 918 729 894 q 713 957 729 942 q 672 972 696 972 l 178 972 m 265 1078 l 614 1078 q 664 1121 664 1078 q 614 1165 664 1165 l 265 1165 q 215 1121 215 1165 q 265 1078 215 1078 m 440 1253 q 456 1256 447 1253 q 471 1263 464 1258 l 607 1332 q 634 1354 625 1340 q 643 1385 643 1368 q 626 1422 643 1407 q 590 1436 610 1436 q 564 1430 576 1436 q 540 1415 551 1424 l 418 1315 q 407 1301 411 1308 q 403 1286 403 1294 q 413 1263 403 1272 q 440 1253 422 1253 "},"Ḕ":{"ha":792,"x_min":122,"x_max":729,"o":"m 178 972 q 138 956 154 972 q 122 917 122 940 l 122 57 q 138 17 122 33 q 178 0 154 0 l 672 0 q 713 15 696 0 q 729 54 729 31 q 713 92 729 75 q 672 108 696 108 l 229 108 l 238 99 l 238 458 l 228 446 l 610 446 q 650 460 633 446 q 667 499 667 475 q 650 538 667 522 q 610 553 633 553 l 224 553 l 238 538 l 238 889 l 225 865 l 672 865 q 713 880 696 865 q 729 918 729 894 q 713 957 729 942 q 672 972 696 972 l 178 972 m 265 1078 l 614 1078 q 664 1121 664 1078 q 614 1165 664 1165 l 265 1165 q 215 1121 215 1165 q 265 1078 215 1078 m 436 1256 q 464 1265 454 1256 q 474 1289 474 1275 q 469 1304 474 1297 q 457 1318 465 1311 l 335 1418 q 313 1433 325 1426 q 286 1439 300 1439 q 249 1424 265 1439 q 233 1388 233 1410 q 268 1335 233 1354 l 406 1265 q 420 1258 413 1261 q 436 1256 428 1256 "},"Ę":{"ha":801,"x_min":122,"x_max":729,"o":"m 592 -272 q 656 -259 626 -272 q 704 -226 686 -246 q 722 -186 722 -206 q 710 -155 722 -167 q 682 -143 699 -143 q 660 -148 672 -143 q 639 -165 647 -153 q 601 -182 629 -182 q 560 -164 579 -182 q 542 -112 542 -146 q 560 -62 542 -85 q 608 -22 579 -39 q 671 0 638 -6 q 713 17 697 4 q 729 54 729 31 q 713 93 729 78 q 672 108 696 108 l 229 108 l 238 99 l 238 458 l 228 446 l 610 446 q 650 462 633 446 q 667 499 667 478 q 650 538 667 522 q 610 553 633 553 l 224 553 l 238 538 l 238 889 l 225 865 l 672 865 q 713 881 696 865 q 729 918 729 897 q 713 957 729 942 q 672 972 696 972 l 178 972 q 138 956 154 972 q 122 917 122 940 l 122 57 q 138 17 122 33 q 178 0 154 0 l 640 0 l 640 51 q 575 26 608 42 q 513 -11 542 11 q 465 -64 483 -33 q 447 -133 447 -94 q 491 -237 447 -201 q 592 -272 535 -272 "},"Ẽ":{"ha":792,"x_min":122,"x_max":729,"o":"m 178 972 q 138 956 154 972 q 122 917 122 940 l 122 57 q 138 17 122 33 q 178 0 154 0 l 672 0 q 713 15 696 0 q 729 54 729 31 q 713 92 729 75 q 672 108 696 108 l 229 108 l 238 99 l 238 458 l 228 446 l 610 446 q 650 460 633 446 q 667 499 667 475 q 650 538 667 522 q 610 553 633 553 l 224 553 l 238 538 l 238 889 l 225 865 l 672 865 q 713 880 696 865 q 729 918 729 894 q 713 957 729 942 q 672 972 696 972 l 178 972 m 254 1054 q 283 1066 271 1054 q 292 1099 294 1078 q 307 1132 294 1121 q 336 1143 319 1143 q 395 1123 361 1143 q 469 1083 429 1103 q 547 1063 508 1063 q 608 1077 582 1063 q 648 1117 633 1092 q 667 1169 663 1142 q 656 1222 668 1201 q 618 1242 643 1242 q 589 1229 600 1242 q 582 1194 578 1217 q 571 1161 582 1174 q 542 1149 560 1149 q 485 1169 518 1149 q 415 1211 451 1190 q 340 1232 378 1232 q 250 1203 286 1232 q 208 1128 214 1174 q 219 1074 206 1094 q 254 1054 232 1054 "},"F":{"ha":785,"x_min":122,"x_max":722,"o":"m 179 0 q 219 17 203 0 q 236 57 236 33 l 236 456 l 226 443 l 603 443 q 643 459 626 443 q 660 496 660 475 q 643 535 660 519 q 603 551 626 551 l 229 551 l 236 536 l 236 876 l 228 865 l 665 865 q 706 881 689 865 q 722 918 722 896 q 706 957 722 942 q 665 972 689 972 l 178 972 q 138 956 154 972 q 122 917 122 940 l 122 57 q 138 17 122 33 q 179 0 154 0 "},"G":{"ha":965,"x_min":63,"x_max":889,"o":"m 565 -14 q 723 10 647 -14 q 861 75 799 35 q 881 96 874 83 q 889 125 889 108 l 889 446 q 874 486 889 469 q 833 503 858 503 l 581 503 q 541 487 557 503 q 525 447 525 471 q 541 408 525 424 q 581 392 557 392 l 793 392 l 771 411 l 771 118 l 781 151 q 680 113 739 128 q 565 97 621 97 q 369 149 456 97 q 232 288 282 200 q 182 486 182 376 q 232 685 182 597 q 369 824 282 772 q 565 875 456 875 q 671 862 621 875 q 764 826 721 849 q 780 821 772 824 q 796 818 788 818 q 833 835 817 818 q 849 875 849 851 q 842 901 849 889 q 822 921 836 914 q 702 970 768 954 q 565 986 636 986 q 367 949 458 986 q 208 843 276 911 q 101 684 139 775 q 63 486 63 593 q 101 290 63 381 q 208 131 139 199 q 367 24 276 63 q 565 -14 458 -14 "},"Ğ":{"ha":965,"x_min":63,"x_max":889,"o":"m 565 -14 q 723 10 647 -14 q 861 75 799 35 q 881 96 874 83 q 889 125 889 108 l 889 446 q 874 486 889 469 q 833 503 858 503 l 581 503 q 541 487 557 503 q 525 447 525 471 q 541 408 525 424 q 581 392 557 392 l 793 392 l 771 411 l 771 118 l 781 151 q 680 113 739 128 q 565 97 621 97 q 369 149 456 97 q 232 288 282 200 q 182 486 182 376 q 232 685 182 597 q 369 824 282 772 q 565 875 456 875 q 671 862 621 875 q 764 826 721 849 q 780 821 772 824 q 796 818 788 818 q 833 835 817 818 q 849 875 849 851 q 842 901 849 889 q 822 921 836 914 q 702 970 768 954 q 565 986 636 986 q 367 949 458 986 q 208 843 276 911 q 101 684 139 775 q 63 486 63 593 q 101 290 63 381 q 208 131 139 199 q 367 24 276 63 q 565 -14 458 -14 m 532 1069 q 659 1105 607 1069 q 733 1207 711 1140 q 732 1244 742 1231 q 701 1258 722 1258 q 669 1249 681 1258 q 646 1222 657 1239 q 532 1156 613 1156 q 464 1172 492 1156 q 418 1222 436 1189 q 395 1249 406 1240 q 363 1258 385 1258 q 333 1244 343 1258 q 332 1206 324 1229 q 406 1105 354 1140 q 532 1069 458 1069 "},"Ǧ":{"ha":965,"x_min":63,"x_max":889,"o":"m 565 -14 q 723 10 647 -14 q 861 75 799 35 q 881 96 874 83 q 889 125 889 108 l 889 446 q 874 486 889 469 q 833 503 858 503 l 581 503 q 541 487 557 503 q 525 447 525 471 q 541 408 525 424 q 581 392 557 392 l 793 392 l 771 411 l 771 118 l 781 151 q 680 113 739 128 q 565 97 621 97 q 369 149 456 97 q 232 288 282 200 q 182 486 182 376 q 232 685 182 597 q 369 824 282 772 q 565 875 456 875 q 671 862 621 875 q 764 826 721 849 q 780 821 772 824 q 796 818 788 818 q 833 835 817 818 q 849 875 849 851 q 842 901 849 889 q 822 921 836 914 q 702 970 768 954 q 565 986 636 986 q 367 949 458 986 q 208 843 276 911 q 101 684 139 775 q 63 486 63 593 q 101 290 63 381 q 208 131 139 199 q 367 24 276 63 q 565 -14 458 -14 m 515 1124 l 549 1126 l 428 1213 q 379 1233 397 1233 q 358 1226 367 1233 q 349 1208 349 1218 q 352 1195 349 1201 q 364 1179 356 1189 l 464 1069 q 490 1049 476 1056 q 522 1042 503 1042 l 540 1042 q 574 1049 560 1042 q 600 1069 588 1056 l 700 1179 q 711 1195 708 1189 q 714 1208 714 1201 q 706 1226 714 1218 q 685 1235 697 1235 q 663 1230 675 1235 q 636 1214 651 1225 l 515 1124 "},"Ĝ":{"ha":965,"x_min":63,"x_max":889,"o":"m 565 -14 q 723 10 647 -14 q 861 75 799 35 q 881 96 874 83 q 889 125 889 108 l 889 446 q 874 486 889 469 q 833 503 858 503 l 581 503 q 541 487 557 503 q 525 447 525 471 q 541 408 525 424 q 581 392 557 392 l 793 392 l 771 411 l 771 118 l 781 151 q 680 113 739 128 q 565 97 621 97 q 369 149 456 97 q 232 288 282 200 q 182 486 182 376 q 232 685 182 597 q 369 824 282 772 q 565 875 456 875 q 671 862 621 875 q 764 826 721 849 q 780 821 772 824 q 796 818 788 818 q 833 835 817 818 q 849 875 849 851 q 842 901 849 889 q 822 921 836 914 q 702 970 768 954 q 565 986 636 986 q 367 949 458 986 q 208 843 276 911 q 101 684 139 775 q 63 486 63 593 q 101 290 63 381 q 208 131 139 199 q 367 24 276 63 q 565 -14 458 -14 m 547 1157 l 514 1154 l 635 1071 q 662 1055 650 1061 q 683 1049 674 1049 q 706 1057 697 1049 q 714 1074 714 1065 q 710 1088 714 1082 q 699 1103 707 1094 l 599 1213 q 573 1233 586 1226 q 540 1240 560 1240 l 522 1240 q 490 1233 503 1240 q 463 1213 476 1226 l 363 1103 q 351 1087 354 1093 q 349 1074 349 1081 q 357 1056 349 1064 q 378 1047 365 1047 q 400 1053 389 1047 q 426 1069 411 1060 l 547 1157 "},"Ģ":{"ha":965,"x_min":63,"x_max":889,"o":"m 565 -14 q 723 10 647 -14 q 861 75 799 35 q 881 96 874 83 q 889 125 889 108 l 889 446 q 874 486 889 469 q 833 503 858 503 l 581 503 q 541 487 557 503 q 525 447 525 471 q 541 408 525 424 q 581 392 557 392 l 793 392 l 771 411 l 771 118 l 781 151 q 680 113 739 128 q 565 97 621 97 q 369 149 456 97 q 232 288 282 200 q 182 486 182 376 q 232 685 182 597 q 369 824 282 772 q 565 875 456 875 q 671 862 621 875 q 764 826 721 849 q 780 821 772 824 q 796 818 788 818 q 833 835 817 818 q 849 875 849 851 q 842 901 849 889 q 822 921 836 914 q 702 970 768 954 q 565 986 636 986 q 367 949 458 986 q 208 843 276 911 q 101 684 139 775 q 63 486 63 593 q 101 290 63 381 q 208 131 139 199 q 367 24 276 63 q 565 -14 458 -14 m 643 -147 q 618 -79 643 -103 q 556 -56 593 -56 q 497 -71 519 -56 q 475 -112 475 -86 q 486 -144 475 -131 q 517 -157 497 -157 q 536 -151 532 -157 q 550 -144 540 -144 q 564 -162 564 -144 q 556 -192 564 -182 q 535 -204 547 -203 q 510 -203 519 -206 q 493 -200 500 -200 q 477 -206 485 -200 q 469 -228 469 -212 q 483 -251 469 -240 q 524 -261 496 -261 q 583 -244 557 -261 q 626 -202 610 -228 q 643 -147 643 -176 "},"Ġ":{"ha":965,"x_min":63,"x_max":889,"o":"m 565 -14 q 723 10 647 -14 q 861 75 799 35 q 881 96 874 83 q 889 125 889 108 l 889 446 q 874 486 889 469 q 833 503 858 503 l 581 503 q 541 487 557 503 q 525 447 525 471 q 541 408 525 424 q 581 392 557 392 l 793 392 l 771 411 l 771 118 l 781 151 q 680 113 739 128 q 565 97 621 97 q 369 149 456 97 q 232 288 282 200 q 182 486 182 376 q 232 685 182 597 q 369 824 282 772 q 565 875 456 875 q 671 862 621 875 q 764 826 721 849 q 780 821 772 824 q 796 818 788 818 q 833 835 817 818 q 849 875 849 851 q 842 901 849 889 q 822 921 836 914 q 702 970 768 954 q 565 986 636 986 q 367 949 458 986 q 208 843 276 911 q 101 684 139 775 q 63 486 63 593 q 101 290 63 381 q 208 131 139 199 q 367 24 276 63 q 565 -14 458 -14 m 531 1056 q 583 1070 565 1056 q 600 1115 600 1085 l 600 1135 q 583 1180 600 1165 q 532 1194 567 1194 q 482 1180 500 1194 q 464 1135 464 1165 l 464 1115 q 481 1070 464 1085 q 531 1056 497 1056 "},"Ḡ":{"ha":965,"x_min":63,"x_max":889,"o":"m 565 -14 q 723 10 647 -14 q 861 75 799 35 q 881 96 874 83 q 889 125 889 108 l 889 446 q 874 486 889 469 q 833 503 858 503 l 581 503 q 541 487 557 503 q 525 447 525 471 q 541 408 525 424 q 581 392 557 392 l 793 392 l 771 411 l 771 118 l 781 151 q 680 113 739 128 q 565 97 621 97 q 369 149 456 97 q 232 288 282 200 q 182 486 182 376 q 232 685 182 597 q 369 824 282 772 q 565 875 456 875 q 671 862 621 875 q 764 826 721 849 q 780 821 772 824 q 796 818 788 818 q 833 835 817 818 q 849 875 849 851 q 842 901 849 889 q 822 921 836 914 q 702 970 768 954 q 565 986 636 986 q 367 949 458 986 q 208 843 276 911 q 101 684 139 775 q 63 486 63 593 q 101 290 63 381 q 208 131 139 199 q 367 24 276 63 q 565 -14 458 -14 m 360 1078 l 708 1078 q 758 1121 758 1078 q 708 1165 758 1165 l 360 1165 q 310 1121 310 1165 q 360 1078 310 1078 "},"H":{"ha":1000,"x_min":122,"x_max":878,"o":"m 181 972 q 139 956 156 972 q 122 915 122 940 l 122 57 q 138 17 122 33 q 179 0 153 0 q 220 17 203 0 q 238 57 238 33 l 238 915 q 221 956 238 940 q 181 972 204 972 m 821 972 q 780 956 797 972 q 763 915 763 940 l 763 57 q 779 17 763 33 q 819 0 796 0 q 861 17 844 0 q 878 57 878 33 l 878 915 q 862 956 878 940 q 821 972 846 972 m 175 549 l 171 440 l 821 440 l 822 549 l 175 549 "},"Ħ":{"ha":1143,"x_min":97,"x_max":1046,"o":"m 147 681 l 997 681 q 1032 694 1018 681 q 1046 728 1046 707 q 1032 764 1046 750 q 997 778 1018 778 l 147 778 q 112 764 126 778 q 97 729 97 750 q 112 694 97 708 q 147 681 126 681 m 253 972 q 210 956 226 972 q 193 915 193 940 l 193 57 q 209 17 193 33 q 251 0 225 0 q 291 17 274 0 q 310 57 308 33 l 310 915 q 292 956 310 940 q 253 972 275 972 m 892 972 q 851 956 868 972 q 833 915 833 940 l 833 57 q 850 17 833 33 q 890 0 867 0 q 933 17 917 0 q 950 57 949 33 l 950 915 q 934 956 950 940 q 892 972 918 972 m 247 549 l 243 440 l 892 440 l 893 549 l 247 549 "},"Ḫ":{"ha":1000,"x_min":122,"x_max":878,"o":"m 181 972 q 139 956 156 972 q 122 915 122 940 l 122 57 q 138 17 122 33 q 179 0 153 0 q 220 17 203 0 q 238 57 238 33 l 238 915 q 221 956 238 940 q 181 972 204 972 m 821 972 q 780 956 797 972 q 763 915 763 940 l 763 57 q 779 17 763 33 q 819 0 796 0 q 861 17 844 0 q 878 57 878 33 l 878 915 q 862 956 878 940 q 821 972 846 972 m 175 549 l 171 440 l 821 440 l 822 549 l 175 549 m 501 -226 q 592 -206 551 -226 q 660 -149 633 -185 q 696 -69 688 -114 q 692 -35 703 -49 q 663 -21 682 -21 q 628 -31 640 -21 q 606 -60 617 -42 q 567 -119 594 -97 q 501 -140 540 -140 q 436 -119 464 -140 q 397 -60 408 -99 q 375 -31 388 -42 q 342 -21 363 -21 q 312 -35 322 -21 q 308 -71 301 -49 q 344 -150 317 -115 q 412 -206 371 -185 q 501 -226 453 -226 "},"Ĥ":{"ha":1000,"x_min":122,"x_max":878,"o":"m 181 972 q 139 956 156 972 q 122 915 122 940 l 122 57 q 138 17 122 33 q 179 0 153 0 q 220 17 203 0 q 238 57 238 33 l 238 915 q 221 956 238 940 q 181 972 204 972 m 821 972 q 780 956 797 972 q 763 915 763 940 l 763 57 q 779 17 763 33 q 819 0 796 0 q 861 17 844 0 q 878 57 878 33 l 878 915 q 862 956 878 940 q 821 972 846 972 m 175 549 l 171 440 l 821 440 l 822 549 l 175 549 m 515 1157 l 482 1154 l 603 1071 q 630 1055 618 1061 q 651 1049 642 1049 q 674 1057 665 1049 q 682 1074 682 1065 q 678 1088 682 1082 q 667 1103 675 1094 l 567 1213 q 541 1233 554 1226 q 508 1240 528 1240 l 490 1240 q 458 1233 471 1240 q 431 1213 444 1226 l 331 1103 q 319 1087 322 1093 q 317 1074 317 1081 q 325 1056 317 1064 q 346 1047 333 1047 q 368 1053 357 1047 q 394 1069 379 1060 l 515 1157 "},"Ḥ":{"ha":1000,"x_min":122,"x_max":878,"o":"m 181 972 q 139 956 156 972 q 122 915 122 940 l 122 57 q 138 17 122 33 q 179 0 153 0 q 220 17 203 0 q 238 57 238 33 l 238 915 q 221 956 238 940 q 181 972 204 972 m 821 972 q 780 956 797 972 q 763 915 763 940 l 763 57 q 779 17 763 33 q 819 0 796 0 q 861 17 844 0 q 878 57 878 33 l 878 915 q 862 956 878 940 q 821 972 846 972 m 175 549 l 171 440 l 821 440 l 822 549 l 175 549 m 499 -197 q 551 -183 533 -197 q 568 -137 568 -168 l 568 -118 q 551 -73 568 -87 q 500 -58 535 -58 q 450 -73 468 -58 q 432 -118 432 -87 l 432 -137 q 449 -183 432 -168 q 499 -197 465 -197 "},"I":{"ha":360,"x_min":122,"x_max":238,"o":"m 238 57 l 238 915 q 221 956 238 940 q 181 972 204 972 q 139 956 156 972 q 122 915 122 940 l 122 57 q 138 17 122 33 q 179 0 153 0 q 220 17 203 0 q 238 57 238 33 "},"Ĳ":{"ha":826,"x_min":122,"x_max":706,"o":"m 253 393 l 253 915 q 236 956 253 940 q 196 972 219 972 q 154 956 171 972 q 138 915 138 940 l 138 393 q 153 353 138 369 q 194 336 168 336 q 235 353 218 336 q 253 393 253 369 m 393 -14 q 553 26 483 -14 q 665 136 624 67 q 706 290 706 206 l 706 917 q 690 956 706 940 q 649 972 674 972 q 606 956 624 972 q 589 917 589 940 l 589 290 q 563 191 589 235 q 494 122 538 147 q 393 97 450 97 q 297 125 339 97 q 228 200 256 153 q 205 221 218 213 q 176 229 192 229 q 140 215 158 229 q 122 176 122 200 q 132 144 122 161 q 240 29 171 72 q 393 -14 308 -14 "},"Í":{"ha":360,"x_min":122,"x_max":388,"o":"m 238 57 l 238 915 q 221 956 238 940 q 181 972 204 972 q 139 956 156 972 q 122 915 122 940 l 122 57 q 138 17 122 33 q 179 0 153 0 q 220 17 203 0 q 238 57 238 33 m 186 1032 q 201 1035 193 1032 q 217 1042 210 1038 l 353 1111 q 380 1133 371 1119 q 389 1164 389 1147 q 372 1201 389 1186 q 336 1215 356 1215 q 310 1209 322 1215 q 286 1194 297 1203 l 164 1094 q 153 1081 157 1088 q 149 1065 149 1074 q 158 1042 149 1051 q 186 1032 168 1032 "},"Ĭ":{"ha":360,"x_min":-26,"x_max":390,"o":"m 238 57 l 238 915 q 221 956 238 940 q 181 972 204 972 q 139 956 156 972 q 122 915 122 940 l 122 57 q 138 17 122 33 q 179 0 153 0 q 220 17 203 0 q 238 57 238 33 m 182 1069 q 309 1105 257 1069 q 383 1207 361 1140 q 382 1244 392 1231 q 351 1258 372 1258 q 319 1249 331 1258 q 296 1222 307 1239 q 182 1156 263 1156 q 114 1172 142 1156 q 68 1222 86 1189 q 45 1249 56 1240 q 13 1258 35 1258 q -17 1244 -7 1258 q -18 1206 -26 1229 q 56 1105 4 1140 q 182 1069 108 1069 "},"Ǐ":{"ha":360,"x_min":-1,"x_max":364,"o":"m 238 57 l 238 915 q 221 956 238 940 q 181 972 204 972 q 139 956 156 972 q 122 915 122 940 l 122 57 q 138 17 122 33 q 179 0 153 0 q 220 17 203 0 q 238 57 238 33 m 165 1124 l 199 1126 l 78 1213 q 29 1233 47 1233 q 8 1226 17 1233 q -1 1208 -1 1218 q 2 1195 -1 1201 q 14 1179 6 1189 l 114 1069 q 140 1049 126 1056 q 172 1042 153 1042 l 190 1042 q 224 1049 210 1042 q 250 1069 238 1056 l 350 1179 q 361 1195 358 1189 q 364 1208 364 1201 q 356 1226 364 1218 q 335 1235 347 1235 q 313 1230 325 1235 q 286 1214 301 1225 l 165 1124 "},"Î":{"ha":360,"x_min":-3,"x_max":363,"o":"m 238 57 l 238 915 q 221 956 238 940 q 181 972 204 972 q 139 956 156 972 q 122 915 122 940 l 122 57 q 138 17 122 33 q 179 0 153 0 q 220 17 203 0 q 238 57 238 33 m 197 1157 l 164 1154 l 285 1071 q 312 1055 300 1061 q 333 1049 324 1049 q 356 1057 347 1049 q 364 1074 364 1065 q 360 1088 364 1082 q 349 1103 357 1094 l 249 1213 q 223 1233 236 1226 q 190 1240 210 1240 l 172 1240 q 140 1233 153 1240 q 113 1213 126 1226 l 13 1103 q 1 1087 4 1093 q -1 1074 -1 1081 q 7 1056 -1 1064 q 28 1047 15 1047 q 50 1053 39 1047 q 76 1069 61 1060 l 197 1157 "},"Ȉ":{"ha":360,"x_min":-112,"x_max":378,"o":"m 238 57 l 238 915 q 221 956 238 940 q 181 972 204 972 q 139 956 156 972 q 122 915 122 940 l 122 57 q 138 17 122 33 q 179 0 153 0 q 220 17 203 0 q 238 57 238 33 m 90 1047 q 118 1057 108 1047 q 128 1081 128 1067 q 124 1096 128 1089 q 111 1110 119 1103 l -11 1210 q -33 1224 -21 1218 q -60 1231 -46 1231 q -97 1216 -81 1231 q -112 1179 -112 1201 q -78 1126 -112 1146 l 60 1057 q 74 1050 67 1053 q 90 1047 82 1047 m 340 1051 q 368 1061 358 1051 q 378 1085 378 1071 q 374 1100 378 1093 q 363 1114 371 1107 l 240 1214 q 218 1228 231 1222 q 190 1235 206 1235 q 154 1220 171 1235 q 138 1183 138 1206 q 174 1131 138 1150 l 310 1061 q 326 1054 318 1057 q 340 1051 333 1051 "},"Ï":{"ha":360,"x_min":-11,"x_max":374,"o":"m 238 57 l 238 915 q 221 956 238 940 q 181 972 204 972 q 139 956 156 972 q 122 915 122 940 l 122 57 q 138 17 122 33 q 179 0 153 0 q 220 17 203 0 q 238 57 238 33 m 307 1069 q 357 1084 340 1069 q 374 1129 374 1099 l 374 1147 q 357 1192 374 1178 q 307 1207 340 1207 q 258 1193 275 1207 q 240 1147 240 1179 l 240 1129 q 257 1084 240 1099 q 307 1069 274 1069 m 56 1069 q 106 1084 89 1069 q 122 1129 122 1099 l 122 1147 q 106 1192 122 1178 q 57 1207 89 1207 q 7 1193 25 1207 q -11 1147 -11 1179 l -11 1129 q 6 1084 -11 1099 q 56 1069 22 1069 "},"Ḯ":{"ha":360,"x_min":-11,"x_max":388,"o":"m 238 57 l 238 915 q 221 956 238 940 q 181 972 204 972 q 139 956 156 972 q 122 915 122 940 l 122 57 q 138 17 122 33 q 179 0 153 0 q 220 17 203 0 q 238 57 238 33 m 307 1069 q 357 1084 340 1069 q 374 1129 374 1099 l 374 1147 q 357 1192 374 1178 q 307 1207 340 1207 q 258 1193 275 1207 q 240 1147 240 1179 l 240 1129 q 257 1084 240 1099 q 307 1069 274 1069 m 56 1069 q 106 1084 89 1069 q 122 1129 122 1099 l 122 1147 q 106 1192 122 1178 q 57 1207 89 1207 q 7 1193 25 1207 q -11 1147 -11 1179 l -11 1129 q 6 1084 -11 1099 q 56 1069 22 1069 m 186 1281 q 201 1283 193 1281 q 217 1290 210 1286 l 353 1360 q 380 1382 371 1368 q 389 1413 389 1396 q 372 1449 389 1435 q 336 1464 356 1464 q 310 1458 322 1464 q 286 1443 297 1451 l 164 1343 q 153 1329 157 1336 q 149 1314 149 1322 q 158 1290 149 1300 q 186 1281 168 1281 "},"İ":{"ha":360,"x_min":114,"x_max":249,"o":"m 238 57 l 238 915 q 221 956 238 940 q 181 972 204 972 q 139 956 156 972 q 122 915 122 940 l 122 57 q 138 17 122 33 q 179 0 153 0 q 220 17 203 0 q 238 57 238 33 m 181 1056 q 233 1070 215 1056 q 250 1115 250 1085 l 250 1135 q 233 1180 250 1165 q 182 1194 217 1194 q 132 1180 150 1194 q 114 1135 114 1165 l 114 1115 q 131 1070 114 1085 q 181 1056 147 1056 "},"Ị":{"ha":360,"x_min":114,"x_max":249,"o":"m 238 57 l 238 915 q 221 956 238 940 q 181 972 204 972 q 139 956 156 972 q 122 915 122 940 l 122 57 q 138 17 122 33 q 179 0 153 0 q 220 17 203 0 q 238 57 238 33 m 181 -197 q 233 -183 215 -197 q 250 -137 250 -168 l 250 -118 q 233 -73 250 -87 q 182 -58 217 -58 q 132 -73 150 -58 q 114 -118 114 -87 l 114 -137 q 131 -183 114 -168 q 181 -197 147 -197 "},"Ì":{"ha":360,"x_min":-22,"x_max":238,"o":"m 238 57 l 238 915 q 221 956 238 940 q 181 972 204 972 q 139 956 156 972 q 122 915 122 940 l 122 57 q 138 17 122 33 q 179 0 153 0 q 220 17 203 0 q 238 57 238 33 m 181 1035 q 208 1044 199 1035 q 218 1068 218 1054 q 214 1083 218 1076 q 201 1097 210 1090 l 79 1197 q 57 1212 69 1206 q 31 1218 44 1218 q -6 1203 10 1218 q -22 1167 -22 1189 q 13 1114 -22 1133 l 150 1044 q 165 1038 157 1040 q 181 1035 172 1035 "},"Ỉ":{"ha":360,"x_min":47,"x_max":294,"o":"m 238 57 l 238 915 q 221 956 238 940 q 181 972 204 972 q 139 956 156 972 q 122 915 122 940 l 122 57 q 138 17 122 33 q 179 0 153 0 q 220 17 203 0 q 238 57 238 33 m 67 1265 q 51 1241 54 1256 q 60 1213 47 1226 q 85 1200 72 1199 q 110 1210 99 1201 q 138 1226 122 1218 q 171 1235 153 1235 q 206 1224 192 1235 q 221 1193 221 1213 q 210 1165 221 1179 q 183 1132 199 1150 q 167 1104 171 1118 q 163 1078 163 1090 q 172 1057 163 1064 q 193 1050 181 1050 q 221 1056 210 1050 q 232 1076 232 1063 q 240 1097 233 1088 q 256 1118 246 1107 q 284 1158 274 1139 q 294 1200 294 1176 q 284 1247 294 1222 q 247 1290 274 1272 q 172 1308 221 1308 q 113 1297 139 1308 q 67 1265 88 1285 "},"Ȋ":{"ha":360,"x_min":-21,"x_max":382,"o":"m 238 57 l 238 915 q 221 956 238 940 q 181 972 204 972 q 139 956 156 972 q 122 915 122 940 l 122 57 q 138 17 122 33 q 179 0 153 0 q 220 17 203 0 q 238 57 238 33 m 181 1231 q 91 1213 132 1231 q 23 1165 50 1196 q -14 1096 -4 1135 q -10 1060 -21 1074 q 21 1046 1 1046 q 54 1056 42 1046 q 76 1085 67 1067 q 115 1130 88 1114 q 181 1146 143 1146 q 247 1130 219 1146 q 285 1085 274 1114 q 308 1056 296 1067 q 342 1046 319 1046 q 372 1060 361 1046 q 375 1097 382 1075 q 339 1167 367 1136 q 271 1214 311 1197 q 181 1231 231 1231 "},"Ī":{"ha":360,"x_min":-40,"x_max":408,"o":"m 238 57 l 238 915 q 221 956 238 940 q 181 972 204 972 q 139 956 156 972 q 122 915 122 940 l 122 57 q 138 17 122 33 q 179 0 153 0 q 220 17 203 0 q 238 57 238 33 m 10 1078 l 358 1078 q 408 1121 408 1078 q 358 1165 408 1165 l 10 1165 q -40 1121 -40 1165 q 10 1078 -40 1078 "},"Į":{"ha":347,"x_min":-7,"x_max":268,"o":"m 138 -272 q 202 -259 172 -272 q 250 -226 232 -246 q 268 -186 268 -206 q 256 -155 268 -167 q 228 -143 244 -143 q 201 -153 211 -143 q 179 -172 190 -162 q 147 -182 168 -182 q 106 -164 125 -182 q 88 -112 88 -146 q 124 -42 88 -71 q 208 3 161 -12 q 233 21 226 10 q 240 46 240 32 l 240 915 q 224 956 240 940 q 181 972 207 972 q 138 956 156 972 q 121 915 121 940 l 121 39 l 169 14 l 178 60 q 113 36 146 51 q 53 -2 81 21 q 10 -57 26 -25 q -7 -133 -7 -89 q 37 -237 -7 -201 q 138 -272 81 -272 "},"Ĩ":{"ha":360,"x_min":-50,"x_max":414,"o":"m 238 57 l 238 915 q 221 956 238 940 q 181 972 204 972 q 139 956 156 972 q 122 915 122 940 l 122 57 q 138 17 122 33 q 179 0 153 0 q 220 17 203 0 q 238 57 238 33 m 0 1054 q 28 1066 17 1054 q 38 1099 40 1078 q 53 1132 40 1121 q 82 1143 65 1143 q 141 1123 107 1143 q 215 1083 175 1103 q 293 1063 254 1063 q 353 1077 328 1063 q 394 1117 379 1092 q 413 1169 408 1142 q 401 1222 414 1201 q 364 1242 389 1242 q 335 1229 346 1242 q 328 1194 324 1217 q 317 1161 328 1174 q 288 1149 306 1149 q 231 1169 264 1149 q 160 1211 197 1190 q 86 1232 124 1232 q -4 1203 32 1232 q -46 1128 -40 1174 q -35 1074 -49 1094 q 0 1054 -22 1054 "},"J":{"ha":785,"x_min":81,"x_max":664,"o":"m 351 -14 q 512 26 442 -14 q 623 136 582 67 q 664 290 664 206 l 664 917 q 648 956 664 940 q 607 972 632 972 q 565 956 582 972 q 547 917 547 940 l 547 290 q 522 191 547 235 q 452 122 496 147 q 351 97 408 97 q 256 125 297 97 q 186 200 214 153 q 163 221 176 213 q 135 229 150 229 q 99 215 117 229 q 81 176 81 200 q 90 144 81 161 q 198 29 129 72 q 351 -14 267 -14 "},"Ĵ":{"ha":785,"x_min":81,"x_max":788,"o":"m 351 -14 q 512 26 442 -14 q 623 136 582 67 q 664 290 664 206 l 664 917 q 648 956 664 940 q 607 972 632 972 q 565 956 582 972 q 547 917 547 940 l 547 290 q 522 191 547 235 q 452 122 496 147 q 351 97 408 97 q 256 125 297 97 q 186 200 214 153 q 163 221 176 213 q 135 229 150 229 q 99 215 117 229 q 81 176 81 200 q 90 144 81 161 q 198 29 129 72 q 351 -14 267 -14 m 622 1157 l 589 1154 l 710 1071 q 737 1055 725 1061 q 758 1049 749 1049 q 781 1057 772 1049 q 789 1074 789 1065 q 785 1088 789 1082 q 774 1103 782 1094 l 674 1213 q 648 1233 661 1226 q 615 1240 635 1240 l 597 1240 q 565 1233 578 1240 q 538 1213 551 1226 l 438 1103 q 426 1087 429 1093 q 424 1074 424 1081 q 432 1056 424 1064 q 453 1047 440 1047 q 475 1053 464 1047 q 501 1069 486 1060 l 622 1157 "},"K":{"ha":929,"x_min":122,"x_max":871,"o":"m 808 -3 q 851 13 831 -3 q 871 56 871 28 q 858 93 871 75 l 482 575 l 397 489 l 767 18 q 808 -3 783 -3 m 804 974 q 760 953 781 974 l 215 431 l 225 301 l 839 882 q 856 918 856 899 q 841 956 856 938 q 804 974 826 974 m 179 0 q 222 17 206 0 q 238 57 238 33 l 238 915 q 222 956 238 940 q 181 972 207 972 q 139 956 156 972 q 122 915 122 940 l 122 57 q 138 17 122 33 q 179 0 153 0 "},"Ķ":{"ha":929,"x_min":122,"x_max":871,"o":"m 808 -3 q 851 13 831 -3 q 871 56 871 28 q 858 93 871 75 l 482 575 l 397 489 l 767 18 q 808 -3 783 -3 m 804 974 q 760 953 781 974 l 215 431 l 225 301 l 839 882 q 856 918 856 899 q 841 956 856 938 q 804 974 826 974 m 179 0 q 222 17 206 0 q 238 57 238 33 l 238 915 q 222 956 238 940 q 181 972 207 972 q 139 956 156 972 q 122 915 122 940 l 122 57 q 138 17 122 33 q 179 0 153 0 m 531 -147 q 506 -79 531 -103 q 443 -56 481 -56 q 385 -71 407 -56 q 363 -112 363 -86 q 374 -144 363 -131 q 404 -157 385 -157 q 424 -151 419 -157 q 438 -144 428 -144 q 451 -162 451 -144 q 443 -192 451 -182 q 422 -204 435 -203 q 397 -203 407 -206 q 381 -200 388 -200 q 365 -206 372 -200 q 357 -228 357 -212 q 370 -251 357 -240 q 411 -261 383 -261 q 471 -244 444 -261 q 514 -202 497 -228 q 531 -147 531 -176 "},"L":{"ha":753,"x_min":122,"x_max":715,"o":"m 658 110 l 210 110 l 238 85 l 238 917 q 221 956 238 940 q 181 972 204 972 q 139 956 156 972 q 122 917 122 940 l 122 57 q 138 17 122 33 q 178 0 154 0 l 658 0 q 699 15 682 0 q 715 54 715 31 q 699 94 715 78 q 658 110 682 110 "},"Ǉ":{"ha":1538,"x_min":122,"x_max":1417,"o":"m 658 110 l 210 110 l 238 85 l 238 917 q 221 956 238 940 q 181 972 204 972 q 139 956 156 972 q 122 917 122 940 l 122 57 q 138 17 122 33 q 178 0 154 0 l 658 0 q 699 15 682 0 q 715 54 715 31 q 699 94 715 78 q 658 110 682 110 m 1104 -14 q 1265 26 1194 -14 q 1376 136 1335 67 q 1417 290 1417 206 l 1417 917 q 1401 956 1417 940 q 1360 972 1385 972 q 1317 956 1335 972 q 1300 917 1300 940 l 1300 290 q 1274 191 1300 235 q 1205 122 1249 147 q 1104 97 1161 97 q 1008 125 1050 97 q 939 200 967 153 q 916 221 929 213 q 888 229 903 229 q 851 215 869 229 q 833 176 833 200 q 843 144 833 161 q 951 29 882 72 q 1104 -14 1019 -14 "},"Ĺ":{"ha":753,"x_min":122,"x_max":715,"o":"m 658 110 l 210 110 l 238 85 l 238 917 q 221 956 238 940 q 181 972 204 972 q 139 956 156 972 q 122 917 122 940 l 122 57 q 138 17 122 33 q 178 0 154 0 l 658 0 q 699 15 682 0 q 715 54 715 31 q 699 94 715 78 q 658 110 682 110 m 172 1032 q 188 1035 179 1032 q 203 1042 196 1038 l 339 1111 q 366 1133 357 1119 q 375 1164 375 1147 q 358 1201 375 1186 q 322 1215 342 1215 q 296 1209 308 1215 q 272 1194 283 1203 l 150 1094 q 139 1081 143 1088 q 135 1065 135 1074 q 144 1042 135 1051 q 172 1032 154 1032 "},"Ľ":{"ha":753,"x_min":122,"x_max":715,"o":"m 658 110 l 210 110 l 238 85 l 238 917 q 221 956 238 940 q 181 972 204 972 q 139 956 156 972 q 122 917 122 940 l 122 57 q 138 17 122 33 q 178 0 154 0 l 658 0 q 699 15 682 0 q 715 54 715 31 q 699 94 715 78 q 658 110 682 110 m 593 925 q 565 1007 593 974 q 493 1040 538 1040 q 426 1019 456 1040 q 396 967 397 997 q 403 942 396 951 q 419 925 410 932 q 437 933 426 931 q 457 936 447 936 q 485 926 474 936 q 497 899 497 915 q 485 862 497 878 q 453 835 474 846 q 419 822 435 826 q 404 794 404 818 q 417 763 404 772 q 442 754 429 754 q 513 780 478 754 q 570 845 547 806 q 593 925 593 885 "},"Ḽ":{"ha":753,"x_min":122,"x_max":715,"o":"m 658 110 l 210 110 l 238 85 l 238 917 q 221 956 238 940 q 181 972 204 972 q 139 956 156 972 q 122 917 122 940 l 122 57 q 138 17 122 33 q 178 0 154 0 l 658 0 q 699 15 682 0 q 715 54 715 31 q 699 94 715 78 q 658 110 682 110 m 413 -157 l 369 -153 l 490 -253 q 513 -270 504 -264 q 538 -276 522 -276 q 559 -269 551 -276 q 567 -251 567 -261 q 565 -237 567 -243 q 554 -221 563 -231 l 468 -119 q 445 -97 457 -103 q 414 -90 433 -90 l 382 -90 q 322 -119 344 -90 l 232 -222 q 222 -237 225 -231 q 219 -251 219 -244 q 228 -269 219 -261 q 249 -278 236 -278 q 274 -271 265 -278 q 296 -254 283 -264 l 413 -157 "},"Ļ":{"ha":753,"x_min":122,"x_max":715,"o":"m 658 110 l 210 110 l 238 85 l 238 917 q 221 956 238 940 q 181 972 204 972 q 139 956 156 972 q 122 917 122 940 l 122 57 q 138 17 122 33 q 178 0 154 0 l 658 0 q 699 15 682 0 q 715 54 715 31 q 699 94 715 78 q 658 110 682 110 m 489 -147 q 464 -79 489 -103 q 401 -56 439 -56 q 343 -71 365 -56 q 321 -112 321 -86 q 332 -144 321 -131 q 363 -157 343 -157 q 382 -151 378 -157 q 396 -144 386 -144 q 410 -162 410 -144 q 401 -192 410 -182 q 381 -204 393 -203 q 356 -203 365 -206 q 339 -200 346 -200 q 323 -206 331 -200 q 315 -228 315 -212 q 328 -251 315 -240 q 369 -261 342 -261 q 429 -244 403 -261 q 472 -202 456 -228 q 489 -147 489 -176 "},"Ŀ":{"ha":750,"x_min":122,"x_max":715,"o":"m 658 110 l 210 110 l 238 85 l 238 917 q 221 956 238 940 q 181 972 204 972 q 139 956 156 972 q 122 917 122 940 l 122 57 q 138 17 122 33 q 178 0 154 0 l 658 0 q 699 15 682 0 q 715 54 715 31 q 699 94 715 78 q 658 110 682 110 m 560 454 l 571 454 q 618 471 601 454 q 635 517 635 488 l 635 544 q 618 592 635 575 q 571 608 601 608 l 560 608 q 513 592 531 608 q 496 544 496 575 l 496 517 q 513 471 496 488 q 560 454 531 454 "},"Ḷ":{"ha":753,"x_min":122,"x_max":715,"o":"m 658 110 l 210 110 l 238 85 l 238 917 q 221 956 238 940 q 181 972 204 972 q 139 956 156 972 q 122 917 122 940 l 122 57 q 138 17 122 33 q 178 0 154 0 l 658 0 q 699 15 682 0 q 715 54 715 31 q 699 94 715 78 q 658 110 682 110 m 393 -197 q 445 -183 428 -197 q 463 -137 463 -168 l 463 -118 q 446 -73 463 -87 q 394 -58 429 -58 q 344 -73 363 -58 q 326 -118 326 -87 l 326 -137 q 343 -183 326 -168 q 393 -197 360 -197 "},"ǈ":{"ha":1131,"x_min":122,"x_max":997,"o":"m 658 110 l 210 110 l 238 85 l 238 917 q 221 956 238 940 q 181 972 204 972 q 139 956 156 972 q 122 917 122 940 l 122 57 q 138 17 122 33 q 178 0 154 0 l 658 0 q 699 15 682 0 q 715 54 715 31 q 699 94 715 78 q 658 110 682 110 m 986 -47 l 986 663 q 971 703 986 686 q 931 719 956 719 q 891 703 907 719 q 875 663 875 686 l 875 -22 q 863 -90 875 -61 q 828 -135 850 -118 q 774 -161 806 -153 q 739 -179 753 -167 q 725 -212 725 -192 l 725 -222 q 740 -258 725 -243 q 778 -274 754 -274 q 876 -246 829 -274 q 955 -168 924 -218 q 986 -47 986 -118 m 931 822 q 981 836 964 822 q 999 879 999 850 l 999 899 q 982 942 999 928 q 932 956 965 956 q 881 942 899 956 q 863 899 863 928 l 863 879 q 879 836 863 850 q 931 822 896 822 "},"Ḻ":{"ha":753,"x_min":122,"x_max":715,"o":"m 658 110 l 210 110 l 238 85 l 238 917 q 221 956 238 940 q 181 972 204 972 q 139 956 156 972 q 122 917 122 940 l 122 57 q 138 17 122 33 q 178 0 154 0 l 658 0 q 699 15 682 0 q 715 54 715 31 q 699 94 715 78 q 658 110 682 110 m 251 -186 l 558 -186 q 607 -143 607 -186 q 558 -99 607 -99 l 251 -99 q 203 -143 203 -99 q 251 -186 203 -186 "},"Ł":{"ha":829,"x_min":60,"x_max":792,"o":"m 107 429 q 118 431 113 429 q 129 435 124 432 l 472 586 q 503 631 503 600 q 492 663 503 644 q 456 681 481 681 q 433 675 446 681 l 90 524 q 60 479 60 510 q 72 446 60 463 q 107 429 83 429 m 310 99 l 310 917 q 294 956 310 940 q 254 972 279 972 q 215 956 231 972 q 199 917 199 940 l 199 57 q 215 17 199 33 q 254 0 231 0 l 735 0 q 775 16 758 0 q 792 56 792 32 q 775 95 792 79 q 735 111 758 111 l 300 111 l 310 99 "},"M":{"ha":1144,"x_min":122,"x_max":1024,"o":"m 179 974 q 138 956 154 974 q 122 917 122 939 l 122 57 q 137 17 122 33 q 175 0 151 0 q 214 17 199 0 q 229 57 229 33 l 229 840 l 200 804 l 524 306 q 544 289 532 296 q 569 282 557 282 q 594 289 582 282 q 614 306 606 296 l 942 804 l 907 811 l 907 57 q 924 17 907 33 q 965 0 940 0 q 1007 17 990 0 q 1024 57 1024 33 l 1024 917 q 1007 957 1024 942 q 968 974 990 972 q 921 949 939 975 l 549 393 l 597 392 l 229 949 q 206 967 221 960 q 179 974 192 974 "},"Ṃ":{"ha":1144,"x_min":122,"x_max":1024,"o":"m 179 974 q 138 956 154 974 q 122 917 122 939 l 122 57 q 137 17 122 33 q 175 0 151 0 q 214 17 199 0 q 229 57 229 33 l 229 840 l 200 804 l 524 306 q 544 289 532 296 q 569 282 557 282 q 594 289 582 282 q 614 306 606 296 l 942 804 l 907 811 l 907 57 q 924 17 907 33 q 965 0 940 0 q 1007 17 990 0 q 1024 57 1024 33 l 1024 917 q 1007 957 1024 942 q 968 974 990 972 q 921 949 939 975 l 549 393 l 597 392 l 229 949 q 206 967 221 960 q 179 974 192 974 m 572 -197 q 624 -183 607 -197 q 642 -137 642 -168 l 642 -118 q 625 -73 642 -87 q 574 -58 608 -58 q 524 -73 542 -58 q 506 -118 506 -87 l 506 -137 q 522 -183 506 -168 q 572 -197 539 -197 "},"N":{"ha":1014,"x_min":122,"x_max":893,"o":"m 842 972 q 805 958 819 972 q 790 921 790 943 l 790 156 l 808 178 l 222 953 q 202 967 215 963 q 176 972 189 972 q 138 957 154 972 q 122 917 122 942 l 122 51 q 136 15 122 29 q 172 0 150 0 q 210 15 196 0 q 225 51 225 29 l 225 821 l 197 804 l 792 18 q 811 5 799 10 q 836 0 824 0 q 876 16 860 0 q 893 58 893 32 l 893 921 q 879 958 893 943 q 842 972 865 972 "},"Ǌ":{"ha":1799,"x_min":122,"x_max":1678,"o":"m 842 972 q 805 958 819 972 q 790 921 790 943 l 790 156 l 808 178 l 222 953 q 202 967 215 963 q 176 972 189 972 q 138 957 154 972 q 122 917 122 942 l 122 51 q 136 15 122 29 q 172 0 150 0 q 210 15 196 0 q 225 51 225 29 l 225 821 l 197 804 l 792 18 q 811 5 799 10 q 836 0 824 0 q 876 16 860 0 q 893 58 893 32 l 893 921 q 879 958 893 943 q 842 972 865 972 m 1365 -14 q 1526 26 1456 -14 q 1637 136 1596 67 q 1678 290 1678 206 l 1678 917 q 1662 956 1678 940 q 1621 972 1646 972 q 1578 956 1596 972 q 1561 917 1561 940 l 1561 290 q 1535 191 1561 235 q 1466 122 1510 147 q 1365 97 1422 97 q 1269 125 1311 97 q 1200 200 1228 153 q 1177 221 1190 213 q 1149 229 1164 229 q 1113 215 1131 229 q 1094 176 1094 200 q 1104 144 1094 161 q 1212 29 1143 72 q 1365 -14 1281 -14 "},"Ń":{"ha":1014,"x_min":122,"x_max":893,"o":"m 842 972 q 805 958 819 972 q 790 921 790 943 l 790 156 l 808 178 l 222 953 q 202 967 215 963 q 176 972 189 972 q 138 957 154 972 q 122 917 122 942 l 122 51 q 136 15 122 29 q 172 0 150 0 q 210 15 196 0 q 225 51 225 29 l 225 821 l 197 804 l 792 18 q 811 5 799 10 q 836 0 824 0 q 876 16 860 0 q 893 58 893 32 l 893 921 q 879 958 893 943 q 842 972 865 972 m 513 1032 q 528 1035 519 1032 q 543 1042 536 1038 l 679 1111 q 706 1133 697 1119 q 715 1164 715 1147 q 699 1201 715 1186 q 663 1215 682 1215 q 636 1209 649 1215 q 613 1194 624 1203 l 490 1094 q 479 1081 483 1088 q 475 1065 475 1074 q 485 1042 475 1051 q 513 1032 494 1032 "},"Ň":{"ha":1014,"x_min":122,"x_max":893,"o":"m 842 972 q 805 958 819 972 q 790 921 790 943 l 790 156 l 808 178 l 222 953 q 202 967 215 963 q 176 972 189 972 q 138 957 154 972 q 122 917 122 942 l 122 51 q 136 15 122 29 q 172 0 150 0 q 210 15 196 0 q 225 51 225 29 l 225 821 l 197 804 l 792 18 q 811 5 799 10 q 836 0 824 0 q 876 16 860 0 q 893 58 893 32 l 893 921 q 879 958 893 943 q 842 972 865 972 m 492 1124 l 525 1126 l 404 1213 q 356 1233 374 1233 q 334 1226 343 1233 q 325 1208 325 1218 q 328 1195 325 1201 q 340 1179 332 1189 l 440 1069 q 466 1049 453 1056 q 499 1042 479 1042 l 517 1042 q 550 1049 536 1042 q 576 1069 564 1056 l 676 1179 q 688 1195 685 1189 q 690 1208 690 1201 q 682 1226 690 1218 q 661 1235 674 1235 q 640 1230 651 1235 q 613 1214 628 1225 l 492 1124 "},"Ṋ":{"ha":1014,"x_min":122,"x_max":893,"o":"m 842 972 q 805 958 819 972 q 790 921 790 943 l 790 156 l 808 178 l 222 953 q 202 967 215 963 q 176 972 189 972 q 138 957 154 972 q 122 917 122 942 l 122 51 q 136 15 122 29 q 172 0 150 0 q 210 15 196 0 q 225 51 225 29 l 225 821 l 197 804 l 792 18 q 811 5 799 10 q 836 0 824 0 q 876 16 860 0 q 893 58 893 32 l 893 921 q 879 958 893 943 q 842 972 865 972 m 526 -157 l 483 -153 l 604 -253 q 627 -270 618 -264 q 651 -276 636 -276 q 673 -269 665 -276 q 681 -251 681 -261 q 678 -237 681 -243 q 668 -221 676 -231 l 582 -119 q 559 -97 571 -103 q 528 -90 547 -90 l 496 -90 q 436 -119 458 -90 l 346 -222 q 336 -237 339 -231 q 333 -251 333 -244 q 342 -269 333 -261 q 363 -278 350 -278 q 388 -271 379 -278 q 410 -254 397 -264 l 526 -157 "},"Ņ":{"ha":1014,"x_min":122,"x_max":893,"o":"m 842 972 q 805 958 819 972 q 790 921 790 943 l 790 156 l 808 178 l 222 953 q 202 967 215 963 q 176 972 189 972 q 138 957 154 972 q 122 917 122 942 l 122 51 q 136 15 122 29 q 172 0 150 0 q 210 15 196 0 q 225 51 225 29 l 225 821 l 197 804 l 792 18 q 811 5 799 10 q 836 0 824 0 q 876 16 860 0 q 893 58 893 32 l 893 921 q 879 958 893 943 q 842 972 865 972 m 603 -147 q 578 -79 603 -103 q 515 -56 553 -56 q 457 -71 479 -56 q 435 -112 435 -86 q 446 -144 435 -131 q 476 -157 457 -157 q 496 -151 492 -157 q 510 -144 500 -144 q 524 -162 524 -144 q 515 -192 524 -182 q 494 -204 507 -203 q 469 -203 479 -206 q 453 -200 460 -200 q 437 -206 444 -200 q 429 -228 429 -212 q 442 -251 429 -240 q 483 -261 456 -261 q 543 -244 517 -261 q 586 -202 569 -228 q 603 -147 603 -176 "},"Ṅ":{"ha":1014,"x_min":122,"x_max":893,"o":"m 842 972 q 805 958 819 972 q 790 921 790 943 l 790 156 l 808 178 l 222 953 q 202 967 215 963 q 176 972 189 972 q 138 957 154 972 q 122 917 122 942 l 122 51 q 136 15 122 29 q 172 0 150 0 q 210 15 196 0 q 225 51 225 29 l 225 821 l 197 804 l 792 18 q 811 5 799 10 q 836 0 824 0 q 876 16 860 0 q 893 58 893 32 l 893 921 q 879 958 893 943 q 842 972 865 972 m 507 1056 q 559 1070 542 1056 q 576 1115 576 1085 l 576 1135 q 560 1180 576 1165 q 508 1194 543 1194 q 458 1180 476 1194 q 440 1135 440 1165 l 440 1115 q 457 1070 440 1085 q 507 1056 474 1056 "},"Ṇ":{"ha":1014,"x_min":122,"x_max":893,"o":"m 842 972 q 805 958 819 972 q 790 921 790 943 l 790 156 l 808 178 l 222 953 q 202 967 215 963 q 176 972 189 972 q 138 957 154 972 q 122 917 122 942 l 122 51 q 136 15 122 29 q 172 0 150 0 q 210 15 196 0 q 225 51 225 29 l 225 821 l 197 804 l 792 18 q 811 5 799 10 q 836 0 824 0 q 876 16 860 0 q 893 58 893 32 l 893 921 q 879 958 893 943 q 842 972 865 972 m 507 -197 q 559 -183 542 -197 q 576 -137 576 -168 l 576 -118 q 560 -73 576 -87 q 508 -58 543 -58 q 458 -73 476 -58 q 440 -118 440 -87 l 440 -137 q 457 -183 440 -168 q 507 -197 474 -197 "},"Ɲ":{"ha":1014,"x_min":-29,"x_max":893,"o":"m 24 -274 q 65 -266 40 -272 q 119 -246 90 -260 q 172 -207 147 -232 q 212 -142 196 -182 q 228 -47 228 -103 l 228 821 l 197 804 l 792 18 q 811 5 799 10 q 836 0 824 0 q 876 16 860 0 q 893 58 893 32 l 893 921 q 878 958 893 943 q 840 972 864 972 q 803 958 818 972 q 788 921 788 943 l 788 156 l 808 178 l 222 953 q 202 967 215 963 q 176 972 189 972 q 138 957 154 972 q 122 917 122 942 l 122 -22 q 109 -90 122 -61 q 73 -136 96 -118 q 18 -161 50 -154 q -17 -180 -4 -167 q -29 -222 -29 -193 q -15 -258 -29 -243 q 24 -274 0 -274 "},"ǋ":{"ha":1392,"x_min":122,"x_max":1258,"o":"m 842 972 q 805 958 819 972 q 790 921 790 943 l 790 156 l 808 178 l 222 953 q 202 967 215 963 q 176 972 189 972 q 138 957 154 972 q 122 917 122 942 l 122 51 q 136 15 122 29 q 172 0 150 0 q 210 15 196 0 q 225 51 225 29 l 225 821 l 197 804 l 792 18 q 811 5 799 10 q 836 0 824 0 q 876 16 860 0 q 893 58 893 32 l 893 921 q 879 958 893 943 q 842 972 865 972 m 1247 -47 l 1247 663 q 1232 703 1247 686 q 1192 719 1217 719 q 1152 703 1168 719 q 1136 663 1136 686 l 1136 -22 q 1124 -90 1136 -61 q 1089 -135 1111 -118 q 1035 -161 1067 -153 q 1000 -179 1014 -167 q 986 -212 986 -192 l 986 -222 q 1001 -258 986 -243 q 1039 -274 1015 -274 q 1138 -246 1090 -274 q 1216 -168 1185 -218 q 1247 -47 1247 -118 m 1192 822 q 1242 836 1225 822 q 1260 879 1260 850 l 1260 899 q 1243 942 1260 928 q 1193 956 1226 956 q 1142 942 1160 956 q 1124 899 1124 928 l 1124 879 q 1140 836 1124 850 q 1192 822 1157 822 "},"Ṉ":{"ha":1014,"x_min":122,"x_max":893,"o":"m 842 972 q 805 958 819 972 q 790 921 790 943 l 790 156 l 808 178 l 222 953 q 202 967 215 963 q 176 972 189 972 q 138 957 154 972 q 122 917 122 942 l 122 51 q 136 15 122 29 q 172 0 150 0 q 210 15 196 0 q 225 51 225 29 l 225 821 l 197 804 l 792 18 q 811 5 799 10 q 836 0 824 0 q 876 16 860 0 q 893 58 893 32 l 893 921 q 879 958 893 943 q 842 972 865 972 m 365 -186 l 672 -186 q 721 -143 721 -186 q 672 -99 721 -99 l 365 -99 q 317 -143 317 -99 q 365 -186 317 -186 "},"Ñ":{"ha":1014,"x_min":122,"x_max":893,"o":"m 842 972 q 805 958 819 972 q 790 921 790 943 l 790 156 l 808 178 l 222 953 q 202 967 215 963 q 176 972 189 972 q 138 957 154 972 q 122 917 122 942 l 122 51 q 136 15 122 29 q 172 0 150 0 q 210 15 196 0 q 225 51 225 29 l 225 821 l 197 804 l 792 18 q 811 5 799 10 q 836 0 824 0 q 876 16 860 0 q 893 58 893 32 l 893 921 q 879 958 893 943 q 842 972 865 972 m 326 1054 q 355 1066 343 1054 q 364 1099 367 1078 q 379 1132 367 1121 q 408 1143 392 1143 q 467 1123 433 1143 q 541 1083 501 1103 q 619 1063 581 1063 q 680 1077 654 1063 q 720 1117 706 1092 q 739 1169 735 1142 q 728 1222 740 1201 q 690 1242 715 1242 q 661 1229 672 1242 q 654 1194 650 1217 q 643 1161 654 1174 q 614 1149 632 1149 q 557 1169 590 1149 q 487 1211 524 1190 q 413 1232 450 1232 q 322 1203 358 1232 q 281 1128 286 1174 q 291 1074 278 1094 q 326 1054 304 1054 "},"Ŋ":{"ha":1042,"x_min":122,"x_max":921,"o":"m 676 -278 q 810 -251 756 -278 q 892 -170 864 -224 q 921 -40 921 -117 l 921 64 l 921 914 q 906 953 921 938 q 865 969 890 969 q 826 953 842 969 q 810 914 810 938 l 810 174 l 826 185 l 225 949 q 205 966 217 960 q 179 972 193 972 q 139 957 156 972 q 122 917 122 942 l 122 57 q 138 17 122 33 q 176 0 153 0 q 217 17 200 0 q 233 57 233 33 l 233 781 l 221 779 l 818 22 l 810 64 l 810 -43 q 798 -112 810 -83 q 756 -157 786 -142 q 671 -174 726 -172 q 632 -189 647 -174 q 617 -228 617 -204 q 633 -264 617 -250 q 676 -278 650 -278 "},"O":{"ha":1061,"x_min":63,"x_max":999,"o":"m 999 486 q 964 685 999 594 q 867 844 929 776 q 718 949 804 911 q 531 986 632 986 q 342 949 428 986 q 194 844 257 911 q 97 685 132 776 q 63 486 63 594 q 97 288 63 379 q 194 129 132 197 q 342 24 257 61 q 531 -14 428 -14 q 718 24 632 -14 q 867 129 804 61 q 964 288 929 197 q 999 486 999 379 m 879 486 q 834 285 879 374 q 711 147 789 197 q 531 97 633 97 q 349 147 428 97 q 226 285 271 197 q 182 486 182 374 q 226 688 182 600 q 349 825 271 775 q 531 875 428 875 q 711 825 633 875 q 834 688 789 775 q 879 486 879 600 "},"Ó":{"ha":1061,"x_min":63,"x_max":999,"o":"m 999 486 q 964 685 999 594 q 867 844 929 776 q 718 949 804 911 q 531 986 632 986 q 342 949 428 986 q 194 844 257 911 q 97 685 132 776 q 63 486 63 594 q 97 288 63 379 q 194 129 132 197 q 342 24 257 61 q 531 -14 428 -14 q 718 24 632 -14 q 867 129 804 61 q 964 288 929 197 q 999 486 999 379 m 879 486 q 834 285 879 374 q 711 147 789 197 q 531 97 633 97 q 349 147 428 97 q 226 285 271 197 q 182 486 182 374 q 226 688 182 600 q 349 825 271 775 q 531 875 428 875 q 711 825 633 875 q 834 688 789 775 q 879 486 879 600 m 535 1032 q 550 1035 542 1032 q 565 1042 558 1038 l 701 1111 q 728 1133 719 1119 q 738 1164 738 1147 q 721 1201 738 1186 q 685 1215 704 1215 q 658 1209 671 1215 q 635 1194 646 1203 l 513 1094 q 501 1081 506 1088 q 497 1065 497 1074 q 507 1042 497 1051 q 535 1032 517 1032 "},"Ŏ":{"ha":1061,"x_min":63,"x_max":999,"o":"m 999 486 q 964 685 999 594 q 867 844 929 776 q 718 949 804 911 q 531 986 632 986 q 342 949 428 986 q 194 844 257 911 q 97 685 132 776 q 63 486 63 594 q 97 288 63 379 q 194 129 132 197 q 342 24 257 61 q 531 -14 428 -14 q 718 24 632 -14 q 867 129 804 61 q 964 288 929 197 q 999 486 999 379 m 879 486 q 834 285 879 374 q 711 147 789 197 q 531 97 633 97 q 349 147 428 97 q 226 285 271 197 q 182 486 182 374 q 226 688 182 600 q 349 825 271 775 q 531 875 428 875 q 711 825 633 875 q 834 688 789 775 q 879 486 879 600 m 531 1069 q 658 1105 606 1069 q 732 1207 710 1140 q 731 1244 740 1231 q 700 1258 721 1258 q 667 1249 679 1258 q 644 1222 656 1239 q 531 1156 611 1156 q 463 1172 490 1156 q 417 1222 435 1189 q 394 1249 404 1240 q 361 1258 383 1258 q 332 1244 342 1258 q 331 1206 322 1229 q 405 1105 353 1140 q 531 1069 457 1069 "},"Ǒ":{"ha":1061,"x_min":63,"x_max":999,"o":"m 999 486 q 964 685 999 594 q 867 844 929 776 q 718 949 804 911 q 531 986 632 986 q 342 949 428 986 q 194 844 257 911 q 97 685 132 776 q 63 486 63 594 q 97 288 63 379 q 194 129 132 197 q 342 24 257 61 q 531 -14 428 -14 q 718 24 632 -14 q 867 129 804 61 q 964 288 929 197 q 999 486 999 379 m 879 486 q 834 285 879 374 q 711 147 789 197 q 531 97 633 97 q 349 147 428 97 q 226 285 271 197 q 182 486 182 374 q 226 688 182 600 q 349 825 271 775 q 531 875 428 875 q 711 825 633 875 q 834 688 789 775 q 879 486 879 600 m 515 1124 l 549 1126 l 428 1213 q 379 1233 397 1233 q 358 1226 367 1233 q 349 1208 349 1218 q 352 1195 349 1201 q 364 1179 356 1189 l 464 1069 q 490 1049 476 1056 q 522 1042 503 1042 l 540 1042 q 574 1049 560 1042 q 600 1069 588 1056 l 700 1179 q 711 1195 708 1189 q 714 1208 714 1201 q 706 1226 714 1218 q 685 1235 697 1235 q 663 1230 675 1235 q 636 1214 651 1225 l 515 1124 "},"Ô":{"ha":1061,"x_min":63,"x_max":999,"o":"m 999 486 q 964 685 999 594 q 867 844 929 776 q 718 949 804 911 q 531 986 632 986 q 342 949 428 986 q 194 844 257 911 q 97 685 132 776 q 63 486 63 594 q 97 288 63 379 q 194 129 132 197 q 342 24 257 61 q 531 -14 428 -14 q 718 24 632 -14 q 867 129 804 61 q 964 288 929 197 q 999 486 999 379 m 879 486 q 834 285 879 374 q 711 147 789 197 q 531 97 633 97 q 349 147 428 97 q 226 285 271 197 q 182 486 182 374 q 226 688 182 600 q 349 825 271 775 q 531 875 428 875 q 711 825 633 875 q 834 688 789 775 q 879 486 879 600 m 546 1157 l 513 1154 l 633 1071 q 660 1055 649 1061 q 682 1049 672 1049 q 704 1057 696 1049 q 713 1074 713 1065 q 709 1088 713 1082 q 697 1103 706 1094 l 597 1213 q 572 1233 585 1226 q 539 1240 558 1240 l 521 1240 q 488 1233 501 1240 q 461 1213 475 1226 l 361 1103 q 350 1087 353 1093 q 347 1074 347 1081 q 356 1056 347 1064 q 376 1047 364 1047 q 399 1053 388 1047 q 425 1069 410 1060 l 546 1157 "},"Ố":{"ha":1061,"x_min":63,"x_max":999,"o":"m 999 486 q 964 685 999 594 q 867 844 929 776 q 718 949 804 911 q 531 986 632 986 q 342 949 428 986 q 194 844 257 911 q 97 685 132 776 q 63 486 63 594 q 97 288 63 379 q 194 129 132 197 q 342 24 257 61 q 531 -14 428 -14 q 718 24 632 -14 q 867 129 804 61 q 964 288 929 197 q 999 486 999 379 m 879 486 q 834 285 879 374 q 711 147 789 197 q 531 97 633 97 q 349 147 428 97 q 226 285 271 197 q 182 486 182 374 q 226 688 182 600 q 349 825 271 775 q 531 875 428 875 q 711 825 633 875 q 834 688 789 775 q 879 486 879 600 m 546 1157 l 513 1154 l 633 1071 q 660 1055 649 1061 q 682 1049 672 1049 q 704 1057 696 1049 q 713 1074 713 1065 q 709 1088 713 1082 q 697 1103 706 1094 l 597 1213 q 572 1233 585 1226 q 539 1240 558 1240 l 521 1240 q 488 1233 501 1240 q 461 1213 475 1226 l 361 1103 q 350 1087 353 1093 q 347 1074 347 1081 q 356 1056 347 1064 q 376 1047 364 1047 q 399 1053 388 1047 q 425 1069 410 1060 l 546 1157 m 736 1144 q 751 1147 743 1144 q 767 1154 760 1150 l 903 1224 q 930 1246 921 1232 q 939 1276 939 1260 q 922 1313 939 1299 q 886 1328 906 1328 q 860 1322 872 1328 q 836 1307 847 1315 l 714 1207 q 703 1193 707 1200 q 699 1178 699 1186 q 708 1154 699 1164 q 736 1144 718 1144 "},"Ộ":{"ha":1061,"x_min":63,"x_max":999,"o":"m 999 486 q 964 685 999 594 q 867 844 929 776 q 718 949 804 911 q 531 986 632 986 q 342 949 428 986 q 194 844 257 911 q 97 685 132 776 q 63 486 63 594 q 97 288 63 379 q 194 129 132 197 q 342 24 257 61 q 531 -14 428 -14 q 718 24 632 -14 q 867 129 804 61 q 964 288 929 197 q 999 486 999 379 m 879 486 q 834 285 879 374 q 711 147 789 197 q 531 97 633 97 q 349 147 428 97 q 226 285 271 197 q 182 486 182 374 q 226 688 182 600 q 349 825 271 775 q 531 875 428 875 q 711 825 633 875 q 834 688 789 775 q 879 486 879 600 m 529 -197 q 581 -183 564 -197 q 599 -137 599 -168 l 599 -118 q 582 -73 599 -87 q 531 -58 565 -58 q 481 -73 499 -58 q 463 -118 463 -87 l 463 -137 q 479 -183 463 -168 q 529 -197 496 -197 m 546 1157 l 513 1154 l 633 1071 q 660 1055 649 1061 q 682 1049 672 1049 q 704 1057 696 1049 q 713 1074 713 1065 q 709 1088 713 1082 q 697 1103 706 1094 l 597 1213 q 572 1233 585 1226 q 539 1240 558 1240 l 521 1240 q 488 1233 501 1240 q 461 1213 475 1226 l 361 1103 q 350 1087 353 1093 q 347 1074 347 1081 q 356 1056 347 1064 q 376 1047 364 1047 q 399 1053 388 1047 q 425 1069 410 1060 l 546 1157 "},"Ồ":{"ha":1061,"x_min":63,"x_max":999,"o":"m 999 486 q 964 685 999 594 q 867 844 929 776 q 718 949 804 911 q 531 986 632 986 q 342 949 428 986 q 194 844 257 911 q 97 685 132 776 q 63 486 63 594 q 97 288 63 379 q 194 129 132 197 q 342 24 257 61 q 531 -14 428 -14 q 718 24 632 -14 q 867 129 804 61 q 964 288 929 197 q 999 486 999 379 m 879 486 q 834 285 879 374 q 711 147 789 197 q 531 97 633 97 q 349 147 428 97 q 226 285 271 197 q 182 486 182 374 q 226 688 182 600 q 349 825 271 775 q 531 875 428 875 q 711 825 633 875 q 834 688 789 775 q 879 486 879 600 m 546 1157 l 513 1154 l 633 1071 q 660 1055 649 1061 q 682 1049 672 1049 q 704 1057 696 1049 q 713 1074 713 1065 q 709 1088 713 1082 q 697 1103 706 1094 l 597 1213 q 572 1233 585 1226 q 539 1240 558 1240 l 521 1240 q 488 1233 501 1240 q 461 1213 475 1226 l 361 1103 q 350 1087 353 1093 q 347 1074 347 1081 q 356 1056 347 1064 q 376 1047 364 1047 q 399 1053 388 1047 q 425 1069 410 1060 l 546 1157 m 726 1217 q 754 1226 744 1217 q 764 1250 764 1236 q 760 1265 764 1258 q 747 1279 756 1272 l 625 1379 q 603 1394 615 1388 q 576 1400 590 1400 q 540 1385 556 1400 q 524 1349 524 1371 q 558 1296 524 1315 l 696 1226 q 710 1219 703 1222 q 726 1217 718 1217 "},"Ổ":{"ha":1061,"x_min":63,"x_max":999,"o":"m 999 486 q 964 685 999 594 q 867 844 929 776 q 718 949 804 911 q 531 986 632 986 q 342 949 428 986 q 194 844 257 911 q 97 685 132 776 q 63 486 63 594 q 97 288 63 379 q 194 129 132 197 q 342 24 257 61 q 531 -14 428 -14 q 718 24 632 -14 q 867 129 804 61 q 964 288 929 197 q 999 486 999 379 m 879 486 q 834 285 879 374 q 711 147 789 197 q 531 97 633 97 q 349 147 428 97 q 226 285 271 197 q 182 486 182 374 q 226 688 182 600 q 349 825 271 775 q 531 875 428 875 q 711 825 633 875 q 834 688 789 775 q 879 486 879 600 m 547 1185 l 504 1189 l 625 1088 q 648 1071 639 1078 q 672 1064 657 1064 q 694 1072 686 1064 q 701 1090 701 1081 q 699 1104 701 1097 q 689 1119 697 1111 l 603 1222 q 580 1244 592 1239 q 549 1250 568 1250 l 517 1250 q 457 1222 479 1250 l 367 1119 q 357 1103 360 1110 q 354 1089 354 1097 q 363 1072 354 1079 q 383 1064 371 1064 q 409 1070 400 1064 q 431 1088 418 1076 l 547 1185 m 617 1368 q 602 1344 606 1358 q 610 1315 599 1329 q 637 1303 624 1301 q 660 1313 650 1304 q 688 1329 672 1321 q 722 1338 703 1338 q 756 1326 742 1338 q 771 1296 771 1315 q 760 1267 771 1282 q 733 1235 749 1253 q 717 1207 722 1221 q 713 1181 713 1193 q 723 1158 713 1167 q 747 1150 733 1150 q 772 1158 763 1150 q 783 1179 782 1165 q 790 1200 783 1190 q 806 1221 796 1210 q 835 1260 825 1242 q 846 1303 846 1279 q 835 1350 846 1325 q 798 1393 825 1375 q 722 1411 771 1411 q 663 1399 689 1411 q 617 1368 638 1388 "},"Ỗ":{"ha":1061,"x_min":63,"x_max":999,"o":"m 999 486 q 964 685 999 594 q 867 844 929 776 q 718 949 804 911 q 531 986 632 986 q 342 949 428 986 q 194 844 257 911 q 97 685 132 776 q 63 486 63 594 q 97 288 63 379 q 194 129 132 197 q 342 24 257 61 q 531 -14 428 -14 q 718 24 632 -14 q 867 129 804 61 q 964 288 929 197 q 999 486 999 379 m 879 486 q 834 285 879 374 q 711 147 789 197 q 531 97 633 97 q 349 147 428 97 q 226 285 271 197 q 182 486 182 374 q 226 688 182 600 q 349 825 271 775 q 531 875 428 875 q 711 825 633 875 q 834 688 789 775 q 879 486 879 600 m 546 1157 l 513 1154 l 633 1071 q 660 1055 649 1061 q 682 1049 672 1049 q 704 1057 696 1049 q 713 1074 713 1065 q 709 1088 713 1082 q 697 1103 706 1094 l 597 1213 q 572 1233 585 1226 q 539 1240 558 1240 l 521 1240 q 488 1233 501 1240 q 461 1213 475 1226 l 361 1103 q 350 1087 353 1093 q 347 1074 347 1081 q 356 1056 347 1064 q 376 1047 364 1047 q 399 1053 388 1047 q 425 1069 410 1060 l 546 1157 m 356 1244 q 384 1256 372 1244 q 393 1289 396 1268 q 408 1322 396 1311 q 438 1333 421 1333 q 497 1313 463 1333 q 570 1273 531 1293 q 649 1253 610 1253 q 709 1267 683 1253 q 749 1307 735 1282 q 768 1360 764 1332 q 757 1412 769 1392 q 719 1432 744 1432 q 690 1419 701 1432 q 683 1385 679 1407 q 672 1351 683 1364 q 643 1339 661 1339 q 586 1360 619 1339 q 516 1401 553 1381 q 442 1422 479 1422 q 351 1393 388 1422 q 310 1318 315 1364 q 320 1265 307 1285 q 356 1244 333 1244 "},"Ȍ":{"ha":1061,"x_min":63,"x_max":999,"o":"m 999 486 q 964 685 999 594 q 867 844 929 776 q 718 949 804 911 q 531 986 632 986 q 342 949 428 986 q 194 844 257 911 q 97 685 132 776 q 63 486 63 594 q 97 288 63 379 q 194 129 132 197 q 342 24 257 61 q 531 -14 428 -14 q 718 24 632 -14 q 867 129 804 61 q 964 288 929 197 q 999 486 999 379 m 879 486 q 834 285 879 374 q 711 147 789 197 q 531 97 633 97 q 349 147 428 97 q 226 285 271 197 q 182 486 182 374 q 226 688 182 600 q 349 825 271 775 q 531 875 428 875 q 711 825 633 875 q 834 688 789 775 q 879 486 879 600 m 440 1047 q 468 1057 458 1047 q 478 1081 478 1067 q 474 1096 478 1089 q 461 1110 469 1103 l 339 1210 q 317 1224 329 1218 q 290 1231 304 1231 q 253 1216 269 1231 q 238 1179 238 1201 q 272 1126 238 1146 l 410 1057 q 424 1050 417 1053 q 440 1047 432 1047 m 690 1051 q 718 1061 708 1051 q 728 1085 728 1071 q 724 1100 728 1093 q 713 1114 721 1107 l 590 1214 q 568 1228 581 1222 q 540 1235 556 1235 q 504 1220 521 1235 q 488 1183 488 1206 q 524 1131 488 1150 l 660 1061 q 676 1054 668 1057 q 690 1051 683 1051 "},"Ö":{"ha":1061,"x_min":63,"x_max":999,"o":"m 999 486 q 964 685 999 594 q 867 844 929 776 q 718 949 804 911 q 531 986 632 986 q 342 949 428 986 q 194 844 257 911 q 97 685 132 776 q 63 486 63 594 q 97 288 63 379 q 194 129 132 197 q 342 24 257 61 q 531 -14 428 -14 q 718 24 632 -14 q 867 129 804 61 q 964 288 929 197 q 999 486 999 379 m 879 486 q 834 285 879 374 q 711 147 789 197 q 531 97 633 97 q 349 147 428 97 q 226 285 271 197 q 182 486 182 374 q 226 688 182 600 q 349 825 271 775 q 531 875 428 875 q 711 825 633 875 q 834 688 789 775 q 879 486 879 600 m 657 1069 q 707 1084 690 1069 q 724 1129 724 1099 l 724 1147 q 707 1192 724 1178 q 657 1207 690 1207 q 608 1193 625 1207 q 590 1147 590 1179 l 590 1129 q 607 1084 590 1099 q 657 1069 624 1069 m 406 1069 q 456 1084 439 1069 q 472 1129 472 1099 l 472 1147 q 456 1192 472 1178 q 407 1207 439 1207 q 357 1193 375 1207 q 339 1147 339 1179 l 339 1129 q 356 1084 339 1099 q 406 1069 372 1069 "},"Ȫ":{"ha":1061,"x_min":63,"x_max":999,"o":"m 999 486 q 964 685 999 594 q 867 844 929 776 q 718 949 804 911 q 531 986 632 986 q 342 949 428 986 q 194 844 257 911 q 97 685 132 776 q 63 486 63 594 q 97 288 63 379 q 194 129 132 197 q 342 24 257 61 q 531 -14 428 -14 q 718 24 632 -14 q 867 129 804 61 q 964 288 929 197 q 999 486 999 379 m 879 486 q 834 285 879 374 q 711 147 789 197 q 531 97 633 97 q 349 147 428 97 q 226 285 271 197 q 182 486 182 374 q 226 688 182 600 q 349 825 271 775 q 531 875 428 875 q 711 825 633 875 q 834 688 789 775 q 879 486 879 600 m 657 1069 q 707 1084 690 1069 q 724 1129 724 1099 l 724 1147 q 707 1192 724 1178 q 657 1207 690 1207 q 608 1193 625 1207 q 590 1147 590 1179 l 590 1129 q 607 1084 590 1099 q 657 1069 624 1069 m 406 1069 q 456 1084 439 1069 q 472 1129 472 1099 l 472 1147 q 456 1192 472 1178 q 407 1207 439 1207 q 357 1193 375 1207 q 339 1147 339 1179 l 339 1129 q 356 1084 339 1099 q 406 1069 372 1069 m 360 1326 l 708 1326 q 758 1369 758 1326 q 708 1414 758 1414 l 360 1414 q 310 1369 310 1414 q 360 1326 310 1326 "},"Ȱ":{"ha":1061,"x_min":63,"x_max":999,"o":"m 999 486 q 964 685 999 594 q 867 844 929 776 q 718 949 804 911 q 531 986 632 986 q 342 949 428 986 q 194 844 257 911 q 97 685 132 776 q 63 486 63 594 q 97 288 63 379 q 194 129 132 197 q 342 24 257 61 q 531 -14 428 -14 q 718 24 632 -14 q 867 129 804 61 q 964 288 929 197 q 999 486 999 379 m 879 486 q 834 285 879 374 q 711 147 789 197 q 531 97 633 97 q 349 147 428 97 q 226 285 271 197 q 182 486 182 374 q 226 688 182 600 q 349 825 271 775 q 531 875 428 875 q 711 825 633 875 q 834 688 789 775 q 879 486 879 600 m 529 1056 q 581 1070 564 1056 q 599 1115 599 1085 l 599 1135 q 582 1180 599 1165 q 531 1194 565 1194 q 481 1180 499 1194 q 463 1135 463 1165 l 463 1115 q 479 1070 463 1085 q 529 1056 496 1056 m 360 1326 l 708 1326 q 758 1369 758 1326 q 708 1414 758 1414 l 360 1414 q 310 1369 310 1414 q 360 1326 310 1326 "},"Ọ":{"ha":1061,"x_min":63,"x_max":999,"o":"m 999 486 q 964 685 999 594 q 867 844 929 776 q 718 949 804 911 q 531 986 632 986 q 342 949 428 986 q 194 844 257 911 q 97 685 132 776 q 63 486 63 594 q 97 288 63 379 q 194 129 132 197 q 342 24 257 61 q 531 -14 428 -14 q 718 24 632 -14 q 867 129 804 61 q 964 288 929 197 q 999 486 999 379 m 879 486 q 834 285 879 374 q 711 147 789 197 q 531 97 633 97 q 349 147 428 97 q 226 285 271 197 q 182 486 182 374 q 226 688 182 600 q 349 825 271 775 q 531 875 428 875 q 711 825 633 875 q 834 688 789 775 q 879 486 879 600 m 529 -197 q 581 -183 564 -197 q 599 -137 599 -168 l 599 -118 q 582 -73 599 -87 q 531 -58 565 -58 q 481 -73 499 -58 q 463 -118 463 -87 l 463 -137 q 479 -183 463 -168 q 529 -197 496 -197 "},"Ò":{"ha":1061,"x_min":63,"x_max":999,"o":"m 999 486 q 964 685 999 594 q 867 844 929 776 q 718 949 804 911 q 531 986 632 986 q 342 949 428 986 q 194 844 257 911 q 97 685 132 776 q 63 486 63 594 q 97 288 63 379 q 194 129 132 197 q 342 24 257 61 q 531 -14 428 -14 q 718 24 632 -14 q 867 129 804 61 q 964 288 929 197 q 999 486 999 379 m 879 486 q 834 285 879 374 q 711 147 789 197 q 531 97 633 97 q 349 147 428 97 q 226 285 271 197 q 182 486 182 374 q 226 688 182 600 q 349 825 271 775 q 531 875 428 875 q 711 825 633 875 q 834 688 789 775 q 879 486 879 600 m 531 1035 q 558 1044 549 1035 q 568 1068 568 1054 q 564 1083 568 1076 q 551 1097 560 1090 l 429 1197 q 407 1212 419 1206 q 381 1218 394 1218 q 344 1203 360 1218 q 328 1167 328 1189 q 363 1114 328 1133 l 500 1044 q 515 1038 507 1040 q 531 1035 522 1035 "},"Ỏ":{"ha":1061,"x_min":63,"x_max":999,"o":"m 999 486 q 964 685 999 594 q 867 844 929 776 q 718 949 804 911 q 531 986 632 986 q 342 949 428 986 q 194 844 257 911 q 97 685 132 776 q 63 486 63 594 q 97 288 63 379 q 194 129 132 197 q 342 24 257 61 q 531 -14 428 -14 q 718 24 632 -14 q 867 129 804 61 q 964 288 929 197 q 999 486 999 379 m 879 486 q 834 285 879 374 q 711 147 789 197 q 531 97 633 97 q 349 147 428 97 q 226 285 271 197 q 182 486 182 374 q 226 688 182 600 q 349 825 271 775 q 531 875 428 875 q 711 825 633 875 q 834 688 789 775 q 879 486 879 600 m 415 1265 q 399 1241 403 1256 q 408 1213 396 1226 q 434 1200 421 1199 q 458 1210 447 1201 q 486 1226 471 1218 q 519 1235 501 1235 q 555 1224 540 1235 q 569 1193 569 1213 q 558 1165 569 1179 q 532 1132 547 1150 q 515 1104 519 1118 q 511 1078 511 1090 q 520 1057 511 1064 q 542 1050 529 1050 q 569 1056 558 1050 q 581 1076 581 1063 q 588 1097 582 1088 q 604 1118 594 1107 q 633 1158 622 1139 q 643 1200 643 1176 q 633 1247 643 1222 q 596 1290 622 1272 q 521 1308 569 1308 q 462 1297 488 1308 q 415 1265 436 1285 "},"Ơ":{"ha":1061,"x_min":63,"x_max":999,"o":"m 999 486 q 964 685 999 594 q 867 844 929 776 q 718 949 804 911 q 531 986 632 986 q 342 949 428 986 q 194 844 257 911 q 97 685 132 776 q 63 486 63 594 q 97 288 63 379 q 194 129 132 197 q 342 24 257 61 q 531 -14 428 -14 q 718 24 632 -14 q 867 129 804 61 q 964 288 929 197 q 999 486 999 379 m 879 486 q 834 285 879 374 q 711 147 789 197 q 531 97 633 97 q 349 147 428 97 q 226 285 271 197 q 182 486 182 374 q 226 688 182 600 q 349 825 271 775 q 531 875 428 875 q 711 825 633 875 q 834 688 789 775 q 879 486 879 600 m 638 875 q 760 901 711 875 q 833 971 808 926 q 858 1071 858 1015 q 849 1109 858 1089 q 813 1129 840 1129 q 776 1110 788 1129 q 764 1071 764 1092 q 732 994 764 1018 q 638 971 700 971 l 638 875 "},"Ớ":{"ha":1061,"x_min":63,"x_max":999,"o":"m 999 486 q 964 685 999 594 q 867 844 929 776 q 718 949 804 911 q 531 986 632 986 q 342 949 428 986 q 194 844 257 911 q 97 685 132 776 q 63 486 63 594 q 97 288 63 379 q 194 129 132 197 q 342 24 257 61 q 531 -14 428 -14 q 718 24 632 -14 q 867 129 804 61 q 964 288 929 197 q 999 486 999 379 m 879 486 q 834 285 879 374 q 711 147 789 197 q 531 97 633 97 q 349 147 428 97 q 226 285 271 197 q 182 486 182 374 q 226 688 182 600 q 349 825 271 775 q 531 875 428 875 q 711 825 633 875 q 834 688 789 775 q 879 486 879 600 m 638 875 q 760 901 711 875 q 833 971 808 926 q 858 1071 858 1015 q 849 1109 858 1089 q 813 1129 840 1129 q 776 1110 788 1129 q 764 1071 764 1092 q 732 994 764 1018 q 638 971 700 971 l 638 875 m 535 1032 q 550 1035 542 1032 q 565 1042 558 1038 l 701 1111 q 728 1133 719 1119 q 738 1164 738 1147 q 721 1201 738 1186 q 685 1215 704 1215 q 658 1209 671 1215 q 635 1194 646 1203 l 513 1094 q 501 1081 506 1088 q 497 1065 497 1074 q 507 1042 497 1051 q 535 1032 517 1032 "},"Ợ":{"ha":1061,"x_min":63,"x_max":999,"o":"m 999 486 q 964 685 999 594 q 867 844 929 776 q 718 949 804 911 q 531 986 632 986 q 342 949 428 986 q 194 844 257 911 q 97 685 132 776 q 63 486 63 594 q 97 288 63 379 q 194 129 132 197 q 342 24 257 61 q 531 -14 428 -14 q 718 24 632 -14 q 867 129 804 61 q 964 288 929 197 q 999 486 999 379 m 879 486 q 834 285 879 374 q 711 147 789 197 q 531 97 633 97 q 349 147 428 97 q 226 285 271 197 q 182 486 182 374 q 226 688 182 600 q 349 825 271 775 q 531 875 428 875 q 711 825 633 875 q 834 688 789 775 q 879 486 879 600 m 638 875 q 760 901 711 875 q 833 971 808 926 q 858 1071 858 1015 q 849 1109 858 1089 q 813 1129 840 1129 q 776 1110 788 1129 q 764 1071 764 1092 q 732 994 764 1018 q 638 971 700 971 l 638 875 m 529 -197 q 581 -183 564 -197 q 599 -137 599 -168 l 599 -118 q 582 -73 599 -87 q 531 -58 565 -58 q 481 -73 499 -58 q 463 -118 463 -87 l 463 -137 q 479 -183 463 -168 q 529 -197 496 -197 "},"Ờ":{"ha":1061,"x_min":63,"x_max":999,"o":"m 999 486 q 964 685 999 594 q 867 844 929 776 q 718 949 804 911 q 531 986 632 986 q 342 949 428 986 q 194 844 257 911 q 97 685 132 776 q 63 486 63 594 q 97 288 63 379 q 194 129 132 197 q 342 24 257 61 q 531 -14 428 -14 q 718 24 632 -14 q 867 129 804 61 q 964 288 929 197 q 999 486 999 379 m 879 486 q 834 285 879 374 q 711 147 789 197 q 531 97 633 97 q 349 147 428 97 q 226 285 271 197 q 182 486 182 374 q 226 688 182 600 q 349 825 271 775 q 531 875 428 875 q 711 825 633 875 q 834 688 789 775 q 879 486 879 600 m 638 875 q 760 901 711 875 q 833 971 808 926 q 858 1071 858 1015 q 849 1109 858 1089 q 813 1129 840 1129 q 776 1110 788 1129 q 764 1071 764 1092 q 732 994 764 1018 q 638 971 700 971 l 638 875 m 531 1035 q 558 1044 549 1035 q 568 1068 568 1054 q 564 1083 568 1076 q 551 1097 560 1090 l 429 1197 q 407 1212 419 1206 q 381 1218 394 1218 q 344 1203 360 1218 q 328 1167 328 1189 q 363 1114 328 1133 l 500 1044 q 515 1038 507 1040 q 531 1035 522 1035 "},"Ở":{"ha":1061,"x_min":63,"x_max":999,"o":"m 999 486 q 964 685 999 594 q 867 844 929 776 q 718 949 804 911 q 531 986 632 986 q 342 949 428 986 q 194 844 257 911 q 97 685 132 776 q 63 486 63 594 q 97 288 63 379 q 194 129 132 197 q 342 24 257 61 q 531 -14 428 -14 q 718 24 632 -14 q 867 129 804 61 q 964 288 929 197 q 999 486 999 379 m 879 486 q 834 285 879 374 q 711 147 789 197 q 531 97 633 97 q 349 147 428 97 q 226 285 271 197 q 182 486 182 374 q 226 688 182 600 q 349 825 271 775 q 531 875 428 875 q 711 825 633 875 q 834 688 789 775 q 879 486 879 600 m 638 875 q 760 901 711 875 q 833 971 808 926 q 858 1071 858 1015 q 849 1109 858 1089 q 813 1129 840 1129 q 776 1110 788 1129 q 764 1071 764 1092 q 732 994 764 1018 q 638 971 700 971 l 638 875 m 415 1265 q 399 1241 403 1256 q 408 1213 396 1226 q 434 1200 421 1199 q 458 1210 447 1201 q 486 1226 471 1218 q 519 1235 501 1235 q 555 1224 540 1235 q 569 1193 569 1213 q 558 1165 569 1179 q 532 1132 547 1150 q 515 1104 519 1118 q 511 1078 511 1090 q 520 1057 511 1064 q 542 1050 529 1050 q 569 1056 558 1050 q 581 1076 581 1063 q 588 1097 582 1088 q 604 1118 594 1107 q 633 1158 622 1139 q 643 1200 643 1176 q 633 1247 643 1222 q 596 1290 622 1272 q 521 1308 569 1308 q 462 1297 488 1308 q 415 1265 436 1285 "},"Ỡ":{"ha":1061,"x_min":63,"x_max":999,"o":"m 999 486 q 964 685 999 594 q 867 844 929 776 q 718 949 804 911 q 531 986 632 986 q 342 949 428 986 q 194 844 257 911 q 97 685 132 776 q 63 486 63 594 q 97 288 63 379 q 194 129 132 197 q 342 24 257 61 q 531 -14 428 -14 q 718 24 632 -14 q 867 129 804 61 q 964 288 929 197 q 999 486 999 379 m 879 486 q 834 285 879 374 q 711 147 789 197 q 531 97 633 97 q 349 147 428 97 q 226 285 271 197 q 182 486 182 374 q 226 688 182 600 q 349 825 271 775 q 531 875 428 875 q 711 825 633 875 q 834 688 789 775 q 879 486 879 600 m 638 875 q 760 901 711 875 q 833 971 808 926 q 858 1071 858 1015 q 849 1109 858 1089 q 813 1129 840 1129 q 776 1110 788 1129 q 764 1071 764 1092 q 732 994 764 1018 q 638 971 700 971 l 638 875 m 336 1065 q 365 1077 353 1065 q 374 1110 376 1089 q 389 1143 376 1132 q 418 1154 401 1154 q 477 1134 443 1154 q 551 1094 511 1114 q 629 1074 590 1074 q 690 1088 664 1074 q 730 1128 715 1103 q 749 1181 744 1153 q 738 1233 750 1213 q 700 1253 725 1253 q 671 1240 682 1253 q 664 1206 660 1228 q 653 1172 664 1185 q 624 1160 642 1160 q 567 1181 600 1160 q 497 1222 533 1201 q 422 1243 460 1243 q 332 1214 368 1243 q 290 1139 296 1185 q 301 1085 288 1106 q 336 1065 314 1065 "},"Ő":{"ha":1061,"x_min":63,"x_max":999,"o":"m 999 486 q 964 685 999 594 q 867 844 929 776 q 718 949 804 911 q 531 986 632 986 q 342 949 428 986 q 194 844 257 911 q 97 685 132 776 q 63 486 63 594 q 97 288 63 379 q 194 129 132 197 q 342 24 257 61 q 531 -14 428 -14 q 718 24 632 -14 q 867 129 804 61 q 964 288 929 197 q 999 486 999 379 m 879 486 q 834 285 879 374 q 711 147 789 197 q 531 97 633 97 q 349 147 428 97 q 226 285 271 197 q 182 486 182 374 q 226 688 182 600 q 349 825 271 775 q 531 875 428 875 q 711 825 633 875 q 834 688 789 775 q 879 486 879 600 m 396 1051 q 430 1059 415 1051 q 457 1079 444 1067 l 543 1165 q 556 1182 551 1174 q 561 1200 561 1190 q 544 1238 561 1224 q 504 1251 526 1251 q 472 1242 485 1251 q 453 1219 460 1232 l 381 1110 q 369 1076 369 1092 q 396 1051 369 1051 m 625 1051 q 659 1059 644 1051 q 686 1079 674 1067 l 774 1165 q 786 1183 782 1174 q 790 1203 790 1192 q 772 1238 790 1228 q 733 1249 753 1249 q 703 1240 715 1249 q 683 1219 690 1232 l 611 1110 q 599 1076 599 1090 q 625 1051 599 1051 "},"Ȏ":{"ha":1061,"x_min":63,"x_max":999,"o":"m 999 486 q 964 685 999 594 q 867 844 929 776 q 718 949 804 911 q 531 986 632 986 q 342 949 428 986 q 194 844 257 911 q 97 685 132 776 q 63 486 63 594 q 97 288 63 379 q 194 129 132 197 q 342 24 257 61 q 531 -14 428 -14 q 718 24 632 -14 q 867 129 804 61 q 964 288 929 197 q 999 486 999 379 m 879 486 q 834 285 879 374 q 711 147 789 197 q 531 97 633 97 q 349 147 428 97 q 226 285 271 197 q 182 486 182 374 q 226 688 182 600 q 349 825 271 775 q 531 875 428 875 q 711 825 633 875 q 834 688 789 775 q 879 486 879 600 m 529 1231 q 440 1213 481 1231 q 372 1165 399 1196 q 335 1096 344 1135 q 339 1060 328 1074 q 369 1046 350 1046 q 403 1056 390 1046 q 425 1085 415 1067 q 464 1130 436 1114 q 529 1146 492 1146 q 595 1130 568 1146 q 633 1085 622 1114 q 656 1056 644 1067 q 690 1046 668 1046 q 720 1060 710 1046 q 724 1097 731 1075 q 688 1167 715 1136 q 619 1214 660 1197 q 529 1231 579 1231 "},"Ō":{"ha":1061,"x_min":63,"x_max":999,"o":"m 999 486 q 964 685 999 594 q 867 844 929 776 q 718 949 804 911 q 531 986 632 986 q 342 949 428 986 q 194 844 257 911 q 97 685 132 776 q 63 486 63 594 q 97 288 63 379 q 194 129 132 197 q 342 24 257 61 q 531 -14 428 -14 q 718 24 632 -14 q 867 129 804 61 q 964 288 929 197 q 999 486 999 379 m 879 486 q 834 285 879 374 q 711 147 789 197 q 531 97 633 97 q 349 147 428 97 q 226 285 271 197 q 182 486 182 374 q 226 688 182 600 q 349 825 271 775 q 531 875 428 875 q 711 825 633 875 q 834 688 789 775 q 879 486 879 600 m 360 1078 l 708 1078 q 758 1121 758 1078 q 708 1165 758 1165 l 360 1165 q 310 1121 310 1165 q 360 1078 310 1078 "},"Ṓ":{"ha":1061,"x_min":63,"x_max":999,"o":"m 999 486 q 964 685 999 594 q 867 844 929 776 q 718 949 804 911 q 531 986 632 986 q 342 949 428 986 q 194 844 257 911 q 97 685 132 776 q 63 486 63 594 q 97 288 63 379 q 194 129 132 197 q 342 24 257 61 q 531 -14 428 -14 q 718 24 632 -14 q 867 129 804 61 q 964 288 929 197 q 999 486 999 379 m 879 486 q 834 285 879 374 q 711 147 789 197 q 531 97 633 97 q 349 147 428 97 q 226 285 271 197 q 182 486 182 374 q 226 688 182 600 q 349 825 271 775 q 531 875 428 875 q 711 825 633 875 q 834 688 789 775 q 879 486 879 600 m 360 1078 l 708 1078 q 758 1121 758 1078 q 708 1165 758 1165 l 360 1165 q 310 1121 310 1165 q 360 1078 310 1078 m 535 1253 q 550 1256 542 1253 q 565 1263 558 1258 l 701 1332 q 728 1354 719 1340 q 738 1385 738 1368 q 721 1422 738 1407 q 685 1436 704 1436 q 658 1430 671 1436 q 635 1415 646 1424 l 513 1315 q 501 1301 506 1308 q 497 1286 497 1294 q 507 1263 497 1272 q 535 1253 517 1253 "},"Ṑ":{"ha":1061,"x_min":63,"x_max":999,"o":"m 999 486 q 964 685 999 594 q 867 844 929 776 q 718 949 804 911 q 531 986 632 986 q 342 949 428 986 q 194 844 257 911 q 97 685 132 776 q 63 486 63 594 q 97 288 63 379 q 194 129 132 197 q 342 24 257 61 q 531 -14 428 -14 q 718 24 632 -14 q 867 129 804 61 q 964 288 929 197 q 999 486 999 379 m 879 486 q 834 285 879 374 q 711 147 789 197 q 531 97 633 97 q 349 147 428 97 q 226 285 271 197 q 182 486 182 374 q 226 688 182 600 q 349 825 271 775 q 531 875 428 875 q 711 825 633 875 q 834 688 789 775 q 879 486 879 600 m 360 1078 l 708 1078 q 758 1121 758 1078 q 708 1165 758 1165 l 360 1165 q 310 1121 310 1165 q 360 1078 310 1078 m 531 1256 q 558 1265 549 1256 q 568 1289 568 1275 q 564 1304 568 1297 q 551 1318 560 1311 l 429 1418 q 407 1433 419 1426 q 381 1439 394 1439 q 344 1424 360 1439 q 328 1388 328 1410 q 363 1335 328 1354 l 500 1265 q 515 1258 507 1261 q 531 1256 522 1256 "},"Ǫ":{"ha":1061,"x_min":63,"x_max":999,"o":"m 582 -272 q 647 -259 617 -272 q 694 -226 676 -246 q 713 -186 713 -206 q 701 -155 713 -167 q 672 -143 689 -143 q 649 -149 661 -143 q 625 -168 636 -154 q 611 -179 619 -176 q 592 -182 603 -182 q 551 -164 569 -182 q 532 -112 532 -146 q 549 -60 532 -85 q 597 -17 565 -36 q 669 8 628 1 l 624 64 q 559 40 592 56 q 499 1 526 24 q 454 -56 471 -22 q 438 -133 438 -89 q 481 -237 438 -201 q 582 -272 525 -272 m 999 486 q 964 685 999 594 q 867 844 929 776 q 718 949 804 911 q 531 986 632 986 q 342 949 428 986 q 194 844 257 911 q 97 685 132 776 q 63 486 63 594 q 97 288 63 379 q 194 129 132 197 q 342 24 257 61 q 531 -14 428 -14 q 718 24 632 -14 q 867 129 804 61 q 964 288 929 197 q 999 486 999 379 m 879 486 q 834 285 879 374 q 711 147 789 197 q 531 97 633 97 q 349 147 428 97 q 226 285 271 197 q 182 486 182 374 q 226 688 182 600 q 349 825 271 775 q 531 875 428 875 q 711 825 633 875 q 834 688 789 775 q 879 486 879 600 "},"Ø":{"ha":1014,"x_min":63,"x_max":999,"o":"m 135 -35 q 161 -28 150 -35 q 179 -10 172 -21 l 961 940 q 974 974 974 956 q 959 1007 974 994 q 926 1019 944 1019 q 905 1015 915 1019 q 885 999 894 1011 l 100 43 q 88 11 88 28 q 102 -22 88 -8 q 135 -35 117 -35 m 999 486 q 964 685 999 594 q 867 844 929 776 q 718 949 804 911 q 531 986 632 986 q 342 949 428 986 q 194 844 257 911 q 97 685 132 776 q 63 486 63 594 q 97 288 63 379 q 194 129 132 197 q 342 24 257 61 q 531 -14 428 -14 q 718 24 632 -14 q 867 129 804 61 q 964 288 929 197 q 999 486 999 379 m 879 486 q 834 285 879 374 q 711 147 789 197 q 531 97 633 97 q 349 147 428 97 q 226 285 271 197 q 182 486 182 374 q 226 688 182 600 q 349 825 271 775 q 531 875 428 875 q 711 825 633 875 q 834 688 789 775 q 879 486 879 600 "},"Ǿ":{"ha":1014,"x_min":63,"x_max":999,"o":"m 135 -35 q 161 -28 150 -35 q 179 -10 172 -21 l 961 940 q 974 974 974 956 q 959 1007 974 994 q 926 1019 944 1019 q 905 1015 915 1019 q 885 999 894 1011 l 100 43 q 88 11 88 28 q 102 -22 88 -8 q 135 -35 117 -35 m 999 486 q 964 685 999 594 q 867 844 929 776 q 718 949 804 911 q 531 986 632 986 q 342 949 428 986 q 194 844 257 911 q 97 685 132 776 q 63 486 63 594 q 97 288 63 379 q 194 129 132 197 q 342 24 257 61 q 531 -14 428 -14 q 718 24 632 -14 q 867 129 804 61 q 964 288 929 197 q 999 486 999 379 m 879 486 q 834 285 879 374 q 711 147 789 197 q 531 97 633 97 q 349 147 428 97 q 226 285 271 197 q 182 486 182 374 q 226 688 182 600 q 349 825 271 775 q 531 875 428 875 q 711 825 633 875 q 834 688 789 775 q 879 486 879 600 m 513 1032 q 528 1035 519 1032 q 543 1042 536 1038 l 679 1111 q 706 1133 697 1119 q 715 1164 715 1147 q 699 1201 715 1186 q 663 1215 682 1215 q 636 1209 649 1215 q 613 1194 624 1203 l 490 1094 q 479 1081 483 1088 q 475 1065 475 1074 q 485 1042 475 1051 q 513 1032 494 1032 "},"Õ":{"ha":1061,"x_min":63,"x_max":999,"o":"m 999 486 q 964 685 999 594 q 867 844 929 776 q 718 949 804 911 q 531 986 632 986 q 342 949 428 986 q 194 844 257 911 q 97 685 132 776 q 63 486 63 594 q 97 288 63 379 q 194 129 132 197 q 342 24 257 61 q 531 -14 428 -14 q 718 24 632 -14 q 867 129 804 61 q 964 288 929 197 q 999 486 999 379 m 879 486 q 834 285 879 374 q 711 147 789 197 q 531 97 633 97 q 349 147 428 97 q 226 285 271 197 q 182 486 182 374 q 226 688 182 600 q 349 825 271 775 q 531 875 428 875 q 711 825 633 875 q 834 688 789 775 q 879 486 879 600 m 349 1054 q 377 1066 365 1054 q 386 1099 389 1078 q 401 1132 389 1121 q 431 1143 414 1143 q 490 1123 456 1143 q 563 1083 524 1103 q 642 1063 603 1063 q 702 1077 676 1063 q 742 1117 728 1092 q 761 1169 757 1142 q 750 1222 763 1201 q 713 1242 738 1242 q 683 1229 694 1242 q 676 1194 672 1217 q 665 1161 676 1174 q 636 1149 654 1149 q 579 1169 613 1149 q 509 1211 546 1190 q 435 1232 472 1232 q 344 1203 381 1232 q 303 1128 308 1174 q 313 1074 300 1094 q 349 1054 326 1054 "},"Ṍ":{"ha":1061,"x_min":63,"x_max":999,"o":"m 999 486 q 964 685 999 594 q 867 844 929 776 q 718 949 804 911 q 531 986 632 986 q 342 949 428 986 q 194 844 257 911 q 97 685 132 776 q 63 486 63 594 q 97 288 63 379 q 194 129 132 197 q 342 24 257 61 q 531 -14 428 -14 q 718 24 632 -14 q 867 129 804 61 q 964 288 929 197 q 999 486 999 379 m 879 486 q 834 285 879 374 q 711 147 789 197 q 531 97 633 97 q 349 147 428 97 q 226 285 271 197 q 182 486 182 374 q 226 688 182 600 q 349 825 271 775 q 531 875 428 875 q 711 825 633 875 q 834 688 789 775 q 879 486 879 600 m 349 1054 q 377 1066 365 1054 q 386 1099 389 1078 q 401 1132 389 1121 q 431 1143 414 1143 q 490 1123 456 1143 q 563 1083 524 1103 q 642 1063 603 1063 q 702 1077 676 1063 q 742 1117 728 1092 q 761 1169 757 1142 q 750 1222 763 1201 q 713 1242 738 1242 q 683 1229 694 1242 q 676 1194 672 1217 q 665 1161 676 1174 q 636 1149 654 1149 q 579 1169 613 1149 q 509 1211 546 1190 q 435 1232 472 1232 q 344 1203 381 1232 q 303 1128 308 1174 q 313 1074 300 1094 q 349 1054 326 1054 m 535 1311 q 550 1314 542 1311 q 565 1321 558 1317 l 701 1390 q 728 1413 719 1399 q 738 1443 738 1426 q 721 1480 738 1465 q 685 1494 704 1494 q 658 1488 671 1494 q 635 1474 646 1482 l 513 1374 q 501 1360 506 1367 q 497 1344 497 1353 q 507 1321 497 1331 q 535 1311 517 1311 "},"Ṏ":{"ha":1061,"x_min":63,"x_max":999,"o":"m 999 486 q 964 685 999 594 q 867 844 929 776 q 718 949 804 911 q 531 986 632 986 q 342 949 428 986 q 194 844 257 911 q 97 685 132 776 q 63 486 63 594 q 97 288 63 379 q 194 129 132 197 q 342 24 257 61 q 531 -14 428 -14 q 718 24 632 -14 q 867 129 804 61 q 964 288 929 197 q 999 486 999 379 m 879 486 q 834 285 879 374 q 711 147 789 197 q 531 97 633 97 q 349 147 428 97 q 226 285 271 197 q 182 486 182 374 q 226 688 182 600 q 349 825 271 775 q 531 875 428 875 q 711 825 633 875 q 834 688 789 775 q 879 486 879 600 m 349 1054 q 377 1066 365 1054 q 386 1099 389 1078 q 401 1132 389 1121 q 431 1143 414 1143 q 490 1123 456 1143 q 563 1083 524 1103 q 642 1063 603 1063 q 702 1077 676 1063 q 742 1117 728 1092 q 761 1169 757 1142 q 750 1222 763 1201 q 713 1242 738 1242 q 683 1229 694 1242 q 676 1194 672 1217 q 665 1161 676 1174 q 636 1149 654 1149 q 579 1169 613 1149 q 509 1211 546 1190 q 435 1232 472 1232 q 344 1203 381 1232 q 303 1128 308 1174 q 313 1074 300 1094 q 349 1054 326 1054 m 657 1349 q 707 1363 690 1349 q 724 1408 724 1378 l 724 1426 q 707 1472 724 1457 q 657 1486 690 1486 q 608 1472 625 1486 q 590 1426 590 1458 l 590 1408 q 607 1363 590 1378 q 657 1349 624 1349 m 406 1349 q 456 1363 439 1349 q 472 1408 472 1378 l 472 1426 q 456 1472 472 1457 q 407 1486 439 1486 q 357 1472 375 1486 q 339 1426 339 1458 l 339 1408 q 356 1363 339 1378 q 406 1349 372 1349 "},"Ȭ":{"ha":1061,"x_min":63,"x_max":999,"o":"m 999 486 q 964 685 999 594 q 867 844 929 776 q 718 949 804 911 q 531 986 632 986 q 342 949 428 986 q 194 844 257 911 q 97 685 132 776 q 63 486 63 594 q 97 288 63 379 q 194 129 132 197 q 342 24 257 61 q 531 -14 428 -14 q 718 24 632 -14 q 867 129 804 61 q 964 288 929 197 q 999 486 999 379 m 879 486 q 834 285 879 374 q 711 147 789 197 q 531 97 633 97 q 349 147 428 97 q 226 285 271 197 q 182 486 182 374 q 226 688 182 600 q 349 825 271 775 q 531 875 428 875 q 711 825 633 875 q 834 688 789 775 q 879 486 879 600 m 349 1054 q 377 1066 365 1054 q 386 1099 389 1078 q 401 1132 389 1121 q 431 1143 414 1143 q 490 1123 456 1143 q 563 1083 524 1103 q 642 1063 603 1063 q 702 1077 676 1063 q 742 1117 728 1092 q 761 1169 757 1142 q 750 1222 763 1201 q 713 1242 738 1242 q 683 1229 694 1242 q 676 1194 672 1217 q 665 1161 676 1174 q 636 1149 654 1149 q 579 1169 613 1149 q 509 1211 546 1190 q 435 1232 472 1232 q 344 1203 381 1232 q 303 1128 308 1174 q 313 1074 300 1094 q 349 1054 326 1054 m 360 1356 l 708 1356 q 758 1399 758 1356 q 708 1443 758 1443 l 360 1443 q 310 1399 310 1443 q 360 1356 310 1356 "},"Œ":{"ha":1365,"x_min":63,"x_max":1303,"o":"m 1246 111 l 813 111 l 821 100 l 821 456 l 808 438 l 1183 438 q 1224 453 1207 438 q 1240 493 1240 469 q 1224 533 1240 517 q 1183 549 1207 549 l 808 549 l 821 531 l 821 879 l 810 861 l 1246 861 q 1286 877 1269 861 q 1303 917 1303 893 q 1286 956 1303 940 q 1246 972 1269 972 l 472 972 q 294 934 371 972 q 165 828 217 896 q 88 672 114 760 q 63 486 63 583 q 108 242 63 353 q 245 66 154 132 q 472 0 336 0 l 1246 0 q 1286 16 1269 0 q 1303 56 1303 32 q 1286 95 1303 79 q 1246 111 1269 111 m 724 111 l 479 111 q 305 162 372 111 q 206 298 238 213 q 174 486 174 383 q 192 629 174 561 q 247 749 210 697 q 341 831 283 801 q 479 861 399 861 l 721 861 l 708 878 l 708 93 l 724 111 "},"P":{"ha":832,"x_min":122,"x_max":772,"o":"m 503 972 l 178 972 q 138 956 154 972 q 122 917 122 940 l 122 57 q 137 17 122 33 q 176 0 151 0 q 215 17 200 0 q 231 57 231 33 l 231 407 l 221 390 l 503 390 q 640 429 579 390 q 737 535 701 468 q 772 683 772 601 q 737 832 772 767 q 640 935 701 897 q 503 972 579 972 m 503 497 l 221 497 l 231 483 l 231 881 l 221 865 l 503 865 q 583 841 549 865 q 639 776 618 817 q 660 683 660 736 q 639 590 660 633 q 583 522 618 547 q 503 497 549 497 "},"Þ":{"ha":824,"x_min":122,"x_max":765,"o":"m 233 57 l 233 972 q 218 1012 233 996 q 178 1028 203 1028 q 138 1012 154 1028 q 122 972 122 996 l 122 57 q 138 17 122 33 q 176 0 153 0 q 217 17 200 0 q 233 57 233 33 m 217 360 l 175 249 l 496 249 q 632 288 571 249 q 729 394 693 328 q 765 543 765 461 q 729 692 765 626 q 632 794 693 757 q 496 832 571 832 l 171 832 l 217 721 l 496 721 q 576 698 540 721 q 632 635 611 675 q 653 543 653 594 q 632 450 653 492 q 576 384 611 408 q 496 360 540 360 l 217 360 "},"Q":{"ha":1068,"x_min":63,"x_max":1096,"o":"m 1044 -64 q 1009 -78 1025 -64 q 972 -108 993 -93 q 919 -137 951 -122 q 838 -151 886 -151 q 738 -135 782 -151 q 656 -97 694 -118 q 574 -60 617 -76 q 476 -43 531 -43 l 438 -72 l 674 11 l 547 24 l 292 -68 q 260 -117 260 -81 q 276 -155 260 -137 q 315 -172 292 -172 q 354 -164 338 -172 q 389 -147 371 -156 q 433 -139 407 -139 q 524 -156 486 -139 q 602 -196 563 -174 q 695 -235 642 -218 q 833 -253 749 -253 q 917 -242 872 -253 q 1003 -211 963 -231 q 1070 -167 1044 -192 q 1096 -117 1096 -143 q 1080 -79 1096 -94 q 1044 -64 1064 -64 m 999 486 q 964 685 999 594 q 867 844 929 776 q 718 949 804 911 q 531 986 632 986 q 342 949 428 986 q 194 844 257 911 q 97 685 132 776 q 63 486 63 594 q 97 288 63 379 q 194 129 132 197 q 342 24 257 61 q 531 -14 428 -14 q 718 24 632 -14 q 867 129 804 61 q 964 288 929 197 q 999 486 999 379 m 879 486 q 834 285 879 374 q 711 147 789 197 q 531 97 633 97 q 349 147 428 97 q 226 285 271 197 q 182 486 182 374 q 226 688 182 600 q 349 825 271 775 q 531 875 428 875 q 711 825 633 875 q 834 688 789 775 q 879 486 879 600 "},"R":{"ha":939,"x_min":122,"x_max":881,"o":"m 186 0 q 224 17 210 0 q 238 57 238 33 l 238 419 l 221 394 l 531 394 q 590 388 561 394 q 643 363 619 381 q 681 315 667 344 q 694 242 694 286 q 708 117 694 163 q 743 47 722 71 q 786 10 764 22 q 813 1 797 3 q 843 5 828 0 q 867 22 858 10 q 874 63 881 42 q 849 96 868 83 q 825 123 833 106 q 813 171 817 140 q 806 253 808 201 q 781 355 804 311 q 719 427 757 399 q 635 467 682 456 l 665 444 q 754 501 715 464 q 815 588 793 538 q 838 697 838 639 q 801 840 838 778 q 701 937 764 901 q 561 972 639 972 l 178 972 q 138 956 154 972 q 122 917 122 940 l 122 57 q 141 17 122 33 q 186 0 160 0 m 221 494 l 238 469 l 238 892 l 226 865 l 554 865 q 672 817 625 865 q 718 694 718 768 q 695 592 718 638 q 637 522 672 547 q 561 494 601 497 l 221 494 "},"Ŕ":{"ha":939,"x_min":122,"x_max":881,"o":"m 186 0 q 224 17 210 0 q 238 57 238 33 l 238 419 l 221 394 l 531 394 q 590 388 561 394 q 643 363 619 381 q 681 315 667 344 q 694 242 694 286 q 708 117 694 163 q 743 47 722 71 q 786 10 764 22 q 813 1 797 3 q 843 5 828 0 q 867 22 858 10 q 874 63 881 42 q 849 96 868 83 q 825 123 833 106 q 813 171 817 140 q 806 253 808 201 q 781 355 804 311 q 719 427 757 399 q 635 467 682 456 l 665 444 q 754 501 715 464 q 815 588 793 538 q 838 697 838 639 q 801 840 838 778 q 701 937 764 901 q 561 972 639 972 l 178 972 q 138 956 154 972 q 122 917 122 940 l 122 57 q 141 17 122 33 q 186 0 160 0 m 221 494 l 238 469 l 238 892 l 226 865 l 554 865 q 672 817 625 865 q 718 694 718 768 q 695 592 718 638 q 637 522 672 547 q 561 494 601 497 l 221 494 m 471 1032 q 486 1035 478 1032 q 501 1042 494 1038 l 638 1111 q 665 1133 656 1119 q 674 1164 674 1147 q 657 1201 674 1186 q 621 1215 640 1215 q 594 1209 607 1215 q 571 1194 582 1203 l 449 1094 q 438 1081 442 1088 q 433 1065 433 1074 q 443 1042 433 1051 q 471 1032 453 1032 "},"Ř":{"ha":939,"x_min":122,"x_max":881,"o":"m 186 0 q 224 17 210 0 q 238 57 238 33 l 238 419 l 221 394 l 531 394 q 590 388 561 394 q 643 363 619 381 q 681 315 667 344 q 694 242 694 286 q 708 117 694 163 q 743 47 722 71 q 786 10 764 22 q 813 1 797 3 q 843 5 828 0 q 867 22 858 10 q 874 63 881 42 q 849 96 868 83 q 825 123 833 106 q 813 171 817 140 q 806 253 808 201 q 781 355 804 311 q 719 427 757 399 q 635 467 682 456 l 665 444 q 754 501 715 464 q 815 588 793 538 q 838 697 838 639 q 801 840 838 778 q 701 937 764 901 q 561 972 639 972 l 178 972 q 138 956 154 972 q 122 917 122 940 l 122 57 q 141 17 122 33 q 186 0 160 0 m 221 494 l 238 469 l 238 892 l 226 865 l 554 865 q 672 817 625 865 q 718 694 718 768 q 695 592 718 638 q 637 522 672 547 q 561 494 601 497 l 221 494 m 450 1124 l 483 1126 l 363 1213 q 314 1233 332 1233 q 292 1226 301 1233 q 283 1208 283 1218 q 287 1195 283 1201 q 299 1179 290 1189 l 399 1069 q 424 1049 411 1056 q 457 1042 438 1042 l 475 1042 q 508 1049 494 1042 q 535 1069 522 1056 l 635 1179 q 646 1195 643 1189 q 649 1208 649 1201 q 640 1226 649 1218 q 619 1235 632 1235 q 598 1230 610 1235 q 571 1214 586 1225 l 450 1124 "},"Ŗ":{"ha":939,"x_min":122,"x_max":881,"o":"m 186 0 q 224 17 210 0 q 238 57 238 33 l 238 419 l 221 394 l 531 394 q 590 388 561 394 q 643 363 619 381 q 681 315 667 344 q 694 242 694 286 q 708 117 694 163 q 743 47 722 71 q 786 10 764 22 q 813 1 797 3 q 843 5 828 0 q 867 22 858 10 q 874 63 881 42 q 849 96 868 83 q 825 123 833 106 q 813 171 817 140 q 806 253 808 201 q 781 355 804 311 q 719 427 757 399 q 635 467 682 456 l 665 444 q 754 501 715 464 q 815 588 793 538 q 838 697 838 639 q 801 840 838 778 q 701 937 764 901 q 561 972 639 972 l 178 972 q 138 956 154 972 q 122 917 122 940 l 122 57 q 141 17 122 33 q 186 0 160 0 m 221 494 l 238 469 l 238 892 l 226 865 l 554 865 q 672 817 625 865 q 718 694 718 768 q 695 592 718 638 q 637 522 672 547 q 561 494 601 497 l 221 494 m 561 -147 q 536 -79 561 -103 q 474 -56 511 -56 q 415 -71 438 -56 q 393 -112 393 -86 q 404 -144 393 -131 q 435 -157 415 -157 q 454 -151 450 -157 q 468 -144 458 -144 q 482 -162 482 -144 q 474 -192 482 -182 q 453 -204 465 -203 q 428 -203 438 -206 q 411 -200 418 -200 q 395 -206 403 -200 q 388 -228 388 -212 q 401 -251 388 -240 q 442 -261 414 -261 q 501 -244 475 -261 q 544 -202 528 -228 q 561 -147 561 -176 "},"Ȑ":{"ha":939,"x_min":122,"x_max":881,"o":"m 186 0 q 224 17 210 0 q 238 57 238 33 l 238 419 l 221 394 l 531 394 q 590 388 561 394 q 643 363 619 381 q 681 315 667 344 q 694 242 694 286 q 708 117 694 163 q 743 47 722 71 q 786 10 764 22 q 813 1 797 3 q 843 5 828 0 q 867 22 858 10 q 874 63 881 42 q 849 96 868 83 q 825 123 833 106 q 813 171 817 140 q 806 253 808 201 q 781 355 804 311 q 719 427 757 399 q 635 467 682 456 l 665 444 q 754 501 715 464 q 815 588 793 538 q 838 697 838 639 q 801 840 838 778 q 701 937 764 901 q 561 972 639 972 l 178 972 q 138 956 154 972 q 122 917 122 940 l 122 57 q 141 17 122 33 q 186 0 160 0 m 221 494 l 238 469 l 238 892 l 226 865 l 554 865 q 672 817 625 865 q 718 694 718 768 q 695 592 718 638 q 637 522 672 547 q 561 494 601 497 l 221 494 m 375 1047 q 403 1057 393 1047 q 413 1081 413 1067 q 408 1096 413 1089 q 396 1110 404 1103 l 274 1210 q 251 1224 264 1218 q 225 1231 239 1231 q 188 1216 204 1231 q 172 1179 172 1201 q 207 1126 172 1146 l 344 1057 q 359 1050 351 1053 q 375 1047 367 1047 m 625 1051 q 653 1061 643 1051 q 663 1085 663 1071 q 659 1100 663 1093 q 647 1114 656 1107 l 525 1214 q 503 1228 515 1222 q 475 1235 490 1235 q 439 1220 456 1235 q 422 1183 422 1206 q 458 1131 422 1150 l 594 1061 q 610 1054 603 1057 q 625 1051 618 1051 "},"Ṛ":{"ha":939,"x_min":122,"x_max":881,"o":"m 186 0 q 224 17 210 0 q 238 57 238 33 l 238 419 l 221 394 l 531 394 q 590 388 561 394 q 643 363 619 381 q 681 315 667 344 q 694 242 694 286 q 708 117 694 163 q 743 47 722 71 q 786 10 764 22 q 813 1 797 3 q 843 5 828 0 q 867 22 858 10 q 874 63 881 42 q 849 96 868 83 q 825 123 833 106 q 813 171 817 140 q 806 253 808 201 q 781 355 804 311 q 719 427 757 399 q 635 467 682 456 l 665 444 q 754 501 715 464 q 815 588 793 538 q 838 697 838 639 q 801 840 838 778 q 701 937 764 901 q 561 972 639 972 l 178 972 q 138 956 154 972 q 122 917 122 940 l 122 57 q 141 17 122 33 q 186 0 160 0 m 221 494 l 238 469 l 238 892 l 226 865 l 554 865 q 672 817 625 865 q 718 694 718 768 q 695 592 718 638 q 637 522 672 547 q 561 494 601 497 l 221 494 m 465 -197 q 517 -183 500 -197 q 535 -137 535 -168 l 535 -118 q 518 -73 535 -87 q 467 -58 501 -58 q 417 -73 435 -58 q 399 -118 399 -87 l 399 -137 q 415 -183 399 -168 q 465 -197 432 -197 "},"Ȓ":{"ha":939,"x_min":122,"x_max":881,"o":"m 186 0 q 224 17 210 0 q 238 57 238 33 l 238 419 l 221 394 l 531 394 q 590 388 561 394 q 643 363 619 381 q 681 315 667 344 q 694 242 694 286 q 708 117 694 163 q 743 47 722 71 q 786 10 764 22 q 813 1 797 3 q 843 5 828 0 q 867 22 858 10 q 874 63 881 42 q 849 96 868 83 q 825 123 833 106 q 813 171 817 140 q 806 253 808 201 q 781 355 804 311 q 719 427 757 399 q 635 467 682 456 l 665 444 q 754 501 715 464 q 815 588 793 538 q 838 697 838 639 q 801 840 838 778 q 701 937 764 901 q 561 972 639 972 l 178 972 q 138 956 154 972 q 122 917 122 940 l 122 57 q 141 17 122 33 q 186 0 160 0 m 221 494 l 238 469 l 238 892 l 226 865 l 554 865 q 672 817 625 865 q 718 694 718 768 q 695 592 718 638 q 637 522 672 547 q 561 494 601 497 l 221 494 m 465 1231 q 376 1213 417 1231 q 308 1165 335 1196 q 271 1096 281 1135 q 275 1060 264 1074 q 306 1046 286 1046 q 339 1056 326 1046 q 361 1085 351 1067 q 400 1130 372 1114 q 465 1146 428 1146 q 531 1130 504 1146 q 569 1085 558 1114 q 592 1056 581 1067 q 626 1046 604 1046 q 656 1060 646 1046 q 660 1097 667 1075 q 624 1167 651 1136 q 556 1214 596 1197 q 465 1231 515 1231 "},"Ṟ":{"ha":939,"x_min":122,"x_max":881,"o":"m 186 0 q 224 17 210 0 q 238 57 238 33 l 238 419 l 221 394 l 531 394 q 590 388 561 394 q 643 363 619 381 q 681 315 667 344 q 694 242 694 286 q 708 117 694 163 q 743 47 722 71 q 786 10 764 22 q 813 1 797 3 q 843 5 828 0 q 867 22 858 10 q 874 63 881 42 q 849 96 868 83 q 825 123 833 106 q 813 171 817 140 q 806 253 808 201 q 781 355 804 311 q 719 427 757 399 q 635 467 682 456 l 665 444 q 754 501 715 464 q 815 588 793 538 q 838 697 838 639 q 801 840 838 778 q 701 937 764 901 q 561 972 639 972 l 178 972 q 138 956 154 972 q 122 917 122 940 l 122 57 q 141 17 122 33 q 186 0 160 0 m 221 494 l 238 469 l 238 892 l 226 865 l 554 865 q 672 817 625 865 q 718 694 718 768 q 695 592 718 638 q 637 522 672 547 q 561 494 601 497 l 221 494 m 324 -186 l 631 -186 q 679 -143 679 -186 q 631 -99 679 -99 l 324 -99 q 275 -143 275 -99 q 324 -186 275 -186 "},"S":{"ha":797,"x_min":53,"x_max":733,"o":"m 406 -14 q 573 22 499 -12 q 690 115 647 56 q 733 251 733 175 q 710 373 733 324 q 646 454 688 422 q 547 508 604 486 q 421 546 489 529 q 307 584 358 563 q 225 640 256 606 q 194 726 194 674 q 222 808 194 774 q 297 860 249 842 q 410 879 346 879 q 496 867 453 879 q 575 833 539 854 q 635 786 611 813 q 663 775 647 775 q 702 792 685 775 q 719 831 719 810 q 692 882 719 856 q 570 958 646 931 q 410 986 494 986 q 240 953 314 986 q 125 861 167 921 q 83 722 83 801 q 105 613 83 660 q 165 534 126 567 q 258 479 204 501 q 375 442 311 457 q 502 401 447 425 q 588 340 557 376 q 621 249 619 304 q 592 168 621 203 q 513 114 563 133 q 403 94 464 94 q 260 122 324 94 q 143 203 197 150 q 108 218 128 218 q 69 201 85 218 q 53 161 53 183 q 59 135 53 147 q 75 114 65 124 q 225 17 147 47 q 406 -14 303 -14 "},"Ś":{"ha":797,"x_min":53,"x_max":733,"o":"m 406 -14 q 573 22 499 -12 q 690 115 647 56 q 733 251 733 175 q 710 373 733 324 q 646 454 688 422 q 547 508 604 486 q 421 546 489 529 q 307 584 358 563 q 225 640 256 606 q 194 726 194 674 q 222 808 194 774 q 297 860 249 842 q 410 879 346 879 q 496 867 453 879 q 575 833 539 854 q 635 786 611 813 q 663 775 647 775 q 702 792 685 775 q 719 831 719 810 q 692 882 719 856 q 570 958 646 931 q 410 986 494 986 q 240 953 314 986 q 125 861 167 921 q 83 722 83 801 q 105 613 83 660 q 165 534 126 567 q 258 479 204 501 q 375 442 311 457 q 502 401 447 425 q 588 340 557 376 q 621 249 619 304 q 592 168 621 203 q 513 114 563 133 q 403 94 464 94 q 260 122 324 94 q 143 203 197 150 q 108 218 128 218 q 69 201 85 218 q 53 161 53 183 q 59 135 53 147 q 75 114 65 124 q 225 17 147 47 q 406 -14 303 -14 m 403 1032 q 418 1035 410 1032 q 433 1042 426 1038 l 569 1111 q 597 1133 588 1119 q 606 1164 606 1147 q 589 1201 606 1186 q 553 1215 572 1215 q 526 1209 539 1215 q 503 1194 514 1203 l 381 1094 q 369 1081 374 1088 q 365 1065 365 1074 q 375 1042 365 1051 q 403 1032 385 1032 "},"Ṥ":{"ha":797,"x_min":53,"x_max":733,"o":"m 406 -14 q 573 22 499 -12 q 690 115 647 56 q 733 251 733 175 q 710 373 733 324 q 646 454 688 422 q 547 508 604 486 q 421 546 489 529 q 307 584 358 563 q 225 640 256 606 q 194 726 194 674 q 222 808 194 774 q 297 860 249 842 q 410 879 346 879 q 496 867 453 879 q 575 833 539 854 q 635 786 611 813 q 663 775 647 775 q 702 792 685 775 q 719 831 719 810 q 692 882 719 856 q 570 958 646 931 q 410 986 494 986 q 240 953 314 986 q 125 861 167 921 q 83 722 83 801 q 105 613 83 660 q 165 534 126 567 q 258 479 204 501 q 375 442 311 457 q 502 401 447 425 q 588 340 557 376 q 621 249 619 304 q 592 168 621 203 q 513 114 563 133 q 403 94 464 94 q 260 122 324 94 q 143 203 197 150 q 108 218 128 218 q 69 201 85 218 q 53 161 53 183 q 59 135 53 147 q 75 114 65 124 q 225 17 147 47 q 406 -14 303 -14 m 403 1032 q 418 1035 410 1032 q 433 1042 426 1038 l 569 1111 q 597 1133 588 1119 q 606 1164 606 1147 q 589 1201 606 1186 q 553 1215 572 1215 q 526 1209 539 1215 q 503 1194 514 1203 l 381 1094 q 369 1081 374 1088 q 365 1065 365 1074 q 375 1042 365 1051 q 403 1032 385 1032 m 463 1290 q 515 1305 497 1290 q 532 1350 532 1319 l 532 1369 q 515 1415 532 1400 q 464 1429 499 1429 q 414 1415 432 1429 q 396 1369 396 1400 l 396 1350 q 413 1305 396 1319 q 463 1290 429 1290 "},"Š":{"ha":797,"x_min":53,"x_max":733,"o":"m 406 -14 q 573 22 499 -12 q 690 115 647 56 q 733 251 733 175 q 710 373 733 324 q 646 454 688 422 q 547 508 604 486 q 421 546 489 529 q 307 584 358 563 q 225 640 256 606 q 194 726 194 674 q 222 808 194 774 q 297 860 249 842 q 410 879 346 879 q 496 867 453 879 q 575 833 539 854 q 635 786 611 813 q 663 775 647 775 q 702 792 685 775 q 719 831 719 810 q 692 882 719 856 q 570 958 646 931 q 410 986 494 986 q 240 953 314 986 q 125 861 167 921 q 83 722 83 801 q 105 613 83 660 q 165 534 126 567 q 258 479 204 501 q 375 442 311 457 q 502 401 447 425 q 588 340 557 376 q 621 249 619 304 q 592 168 621 203 q 513 114 563 133 q 403 94 464 94 q 260 122 324 94 q 143 203 197 150 q 108 218 128 218 q 69 201 85 218 q 53 161 53 183 q 59 135 53 147 q 75 114 65 124 q 225 17 147 47 q 406 -14 303 -14 m 383 1124 l 417 1126 l 296 1213 q 247 1233 265 1233 q 226 1226 235 1233 q 217 1208 217 1218 q 220 1195 217 1201 q 232 1179 224 1189 l 332 1069 q 358 1049 344 1056 q 390 1042 371 1042 l 408 1042 q 442 1049 428 1042 q 468 1069 456 1056 l 568 1179 q 579 1195 576 1189 q 582 1208 582 1201 q 574 1226 582 1218 q 553 1235 565 1235 q 531 1230 543 1235 q 504 1214 519 1225 l 383 1124 "},"Ṧ":{"ha":797,"x_min":53,"x_max":733,"o":"m 406 -14 q 573 22 499 -12 q 690 115 647 56 q 733 251 733 175 q 710 373 733 324 q 646 454 688 422 q 547 508 604 486 q 421 546 489 529 q 307 584 358 563 q 225 640 256 606 q 194 726 194 674 q 222 808 194 774 q 297 860 249 842 q 410 879 346 879 q 496 867 453 879 q 575 833 539 854 q 635 786 611 813 q 663 775 647 775 q 702 792 685 775 q 719 831 719 810 q 692 882 719 856 q 570 958 646 931 q 410 986 494 986 q 240 953 314 986 q 125 861 167 921 q 83 722 83 801 q 105 613 83 660 q 165 534 126 567 q 258 479 204 501 q 375 442 311 457 q 502 401 447 425 q 588 340 557 376 q 621 249 619 304 q 592 168 621 203 q 513 114 563 133 q 403 94 464 94 q 260 122 324 94 q 143 203 197 150 q 108 218 128 218 q 69 201 85 218 q 53 161 53 183 q 59 135 53 147 q 75 114 65 124 q 225 17 147 47 q 406 -14 303 -14 m 383 1124 l 417 1126 l 296 1213 q 247 1233 265 1233 q 226 1226 235 1233 q 217 1208 217 1218 q 220 1195 217 1201 q 232 1179 224 1189 l 332 1069 q 358 1049 344 1056 q 390 1042 371 1042 l 408 1042 q 442 1049 428 1042 q 468 1069 456 1056 l 568 1179 q 579 1195 576 1189 q 582 1208 582 1201 q 574 1226 582 1218 q 553 1235 565 1235 q 531 1230 543 1235 q 504 1214 519 1225 l 383 1124 m 397 1324 q 449 1338 432 1324 q 467 1383 467 1353 l 467 1403 q 450 1448 467 1433 q 399 1463 433 1463 q 349 1448 367 1463 q 331 1403 331 1433 l 331 1383 q 347 1338 331 1353 q 397 1324 364 1324 "},"Ş":{"ha":797,"x_min":53,"x_max":733,"o":"m 406 -14 q 573 22 499 -12 q 690 115 647 56 q 733 251 733 175 q 710 373 733 324 q 646 454 688 422 q 547 508 604 486 q 421 546 489 529 q 307 584 358 563 q 225 640 256 606 q 194 726 194 674 q 222 808 194 774 q 297 860 249 842 q 410 879 346 879 q 496 867 453 879 q 575 833 539 854 q 635 786 611 813 q 663 775 647 775 q 702 792 685 775 q 719 831 719 810 q 692 882 719 856 q 570 958 646 931 q 410 986 494 986 q 240 953 314 986 q 125 861 167 921 q 83 722 83 801 q 105 613 83 660 q 165 534 126 567 q 258 479 204 501 q 375 442 311 457 q 502 401 447 425 q 588 340 557 376 q 621 249 619 304 q 592 168 621 203 q 513 114 563 133 q 403 94 464 94 q 260 122 324 94 q 143 203 197 150 q 108 218 128 218 q 69 201 85 218 q 53 161 53 183 q 59 135 53 147 q 75 114 65 124 q 225 17 147 47 q 406 -14 303 -14 m 313 -203 q 356 -169 342 -203 l 440 28 l 371 28 l 254 -121 q 243 -151 243 -135 q 256 -178 243 -167 q 285 -197 268 -190 q 313 -203 301 -203 "},"Ŝ":{"ha":797,"x_min":53,"x_max":733,"o":"m 406 -14 q 573 22 499 -12 q 690 115 647 56 q 733 251 733 175 q 710 373 733 324 q 646 454 688 422 q 547 508 604 486 q 421 546 489 529 q 307 584 358 563 q 225 640 256 606 q 194 726 194 674 q 222 808 194 774 q 297 860 249 842 q 410 879 346 879 q 496 867 453 879 q 575 833 539 854 q 635 786 611 813 q 663 775 647 775 q 702 792 685 775 q 719 831 719 810 q 692 882 719 856 q 570 958 646 931 q 410 986 494 986 q 240 953 314 986 q 125 861 167 921 q 83 722 83 801 q 105 613 83 660 q 165 534 126 567 q 258 479 204 501 q 375 442 311 457 q 502 401 447 425 q 588 340 557 376 q 621 249 619 304 q 592 168 621 203 q 513 114 563 133 q 403 94 464 94 q 260 122 324 94 q 143 203 197 150 q 108 218 128 218 q 69 201 85 218 q 53 161 53 183 q 59 135 53 147 q 75 114 65 124 q 225 17 147 47 q 406 -14 303 -14 m 414 1157 l 381 1154 l 501 1071 q 528 1055 517 1061 q 550 1049 540 1049 q 572 1057 564 1049 q 581 1074 581 1065 q 577 1088 581 1082 q 565 1103 574 1094 l 465 1213 q 440 1233 453 1226 q 407 1240 426 1240 l 389 1240 q 356 1233 369 1240 q 329 1213 343 1226 l 229 1103 q 218 1087 221 1093 q 215 1074 215 1081 q 224 1056 215 1064 q 244 1047 232 1047 q 267 1053 256 1047 q 293 1069 278 1060 l 414 1157 "},"Ș":{"ha":797,"x_min":53,"x_max":733,"o":"m 406 -14 q 573 22 499 -12 q 690 115 647 56 q 733 251 733 175 q 710 373 733 324 q 646 454 688 422 q 547 508 604 486 q 421 546 489 529 q 307 584 358 563 q 225 640 256 606 q 194 726 194 674 q 222 808 194 774 q 297 860 249 842 q 410 879 346 879 q 496 867 453 879 q 575 833 539 854 q 635 786 611 813 q 663 775 647 775 q 702 792 685 775 q 719 831 719 810 q 692 882 719 856 q 570 958 646 931 q 410 986 494 986 q 240 953 314 986 q 125 861 167 921 q 83 722 83 801 q 105 613 83 660 q 165 534 126 567 q 258 479 204 501 q 375 442 311 457 q 502 401 447 425 q 588 340 557 376 q 621 249 619 304 q 592 168 621 203 q 513 114 563 133 q 403 94 464 94 q 260 122 324 94 q 143 203 197 150 q 108 218 128 218 q 69 201 85 218 q 53 161 53 183 q 59 135 53 147 q 75 114 65 124 q 225 17 147 47 q 406 -14 303 -14 m 493 -147 q 468 -79 493 -103 q 406 -56 443 -56 q 347 -71 369 -56 q 325 -112 325 -86 q 336 -144 325 -131 q 367 -157 347 -157 q 386 -151 382 -157 q 400 -144 390 -144 q 414 -162 414 -144 q 406 -192 414 -182 q 385 -204 397 -203 q 360 -203 369 -206 q 343 -200 350 -200 q 327 -206 335 -200 q 319 -228 319 -212 q 333 -251 319 -240 q 374 -261 346 -261 q 433 -244 407 -261 q 476 -202 460 -228 q 493 -147 493 -176 "},"Ṡ":{"ha":797,"x_min":53,"x_max":733,"o":"m 406 -14 q 573 22 499 -12 q 690 115 647 56 q 733 251 733 175 q 710 373 733 324 q 646 454 688 422 q 547 508 604 486 q 421 546 489 529 q 307 584 358 563 q 225 640 256 606 q 194 726 194 674 q 222 808 194 774 q 297 860 249 842 q 410 879 346 879 q 496 867 453 879 q 575 833 539 854 q 635 786 611 813 q 663 775 647 775 q 702 792 685 775 q 719 831 719 810 q 692 882 719 856 q 570 958 646 931 q 410 986 494 986 q 240 953 314 986 q 125 861 167 921 q 83 722 83 801 q 105 613 83 660 q 165 534 126 567 q 258 479 204 501 q 375 442 311 457 q 502 401 447 425 q 588 340 557 376 q 621 249 619 304 q 592 168 621 203 q 513 114 563 133 q 403 94 464 94 q 260 122 324 94 q 143 203 197 150 q 108 218 128 218 q 69 201 85 218 q 53 161 53 183 q 59 135 53 147 q 75 114 65 124 q 225 17 147 47 q 406 -14 303 -14 m 397 1056 q 449 1070 432 1056 q 467 1115 467 1085 l 467 1135 q 450 1180 467 1165 q 399 1194 433 1194 q 349 1180 367 1194 q 331 1135 331 1165 l 331 1115 q 347 1070 331 1085 q 397 1056 364 1056 "},"Ṣ":{"ha":797,"x_min":53,"x_max":733,"o":"m 406 -14 q 573 22 499 -12 q 690 115 647 56 q 733 251 733 175 q 710 373 733 324 q 646 454 688 422 q 547 508 604 486 q 421 546 489 529 q 307 584 358 563 q 225 640 256 606 q 194 726 194 674 q 222 808 194 774 q 297 860 249 842 q 410 879 346 879 q 496 867 453 879 q 575 833 539 854 q 635 786 611 813 q 663 775 647 775 q 702 792 685 775 q 719 831 719 810 q 692 882 719 856 q 570 958 646 931 q 410 986 494 986 q 240 953 314 986 q 125 861 167 921 q 83 722 83 801 q 105 613 83 660 q 165 534 126 567 q 258 479 204 501 q 375 442 311 457 q 502 401 447 425 q 588 340 557 376 q 621 249 619 304 q 592 168 621 203 q 513 114 563 133 q 403 94 464 94 q 260 122 324 94 q 143 203 197 150 q 108 218 128 218 q 69 201 85 218 q 53 161 53 183 q 59 135 53 147 q 75 114 65 124 q 225 17 147 47 q 406 -14 303 -14 m 397 -197 q 449 -183 432 -197 q 467 -137 467 -168 l 467 -118 q 450 -73 467 -87 q 399 -58 433 -58 q 349 -73 367 -58 q 331 -118 331 -87 l 331 -137 q 347 -183 331 -168 q 397 -197 364 -197 "},"Ṩ":{"ha":797,"x_min":53,"x_max":733,"o":"m 406 -14 q 573 22 499 -12 q 690 115 647 56 q 733 251 733 175 q 710 373 733 324 q 646 454 688 422 q 547 508 604 486 q 421 546 489 529 q 307 584 358 563 q 225 640 256 606 q 194 726 194 674 q 222 808 194 774 q 297 860 249 842 q 410 879 346 879 q 496 867 453 879 q 575 833 539 854 q 635 786 611 813 q 663 775 647 775 q 702 792 685 775 q 719 831 719 810 q 692 882 719 856 q 570 958 646 931 q 410 986 494 986 q 240 953 314 986 q 125 861 167 921 q 83 722 83 801 q 105 613 83 660 q 165 534 126 567 q 258 479 204 501 q 375 442 311 457 q 502 401 447 425 q 588 340 557 376 q 621 249 619 304 q 592 168 621 203 q 513 114 563 133 q 403 94 464 94 q 260 122 324 94 q 143 203 197 150 q 108 218 128 218 q 69 201 85 218 q 53 161 53 183 q 59 135 53 147 q 75 114 65 124 q 225 17 147 47 q 406 -14 303 -14 m 397 -197 q 449 -183 432 -197 q 467 -137 467 -168 l 467 -118 q 450 -73 467 -87 q 399 -58 433 -58 q 349 -73 367 -58 q 331 -118 331 -87 l 331 -137 q 347 -183 331 -168 q 397 -197 364 -197 m 397 1056 q 449 1070 432 1056 q 467 1115 467 1085 l 467 1135 q 450 1180 467 1165 q 399 1194 433 1194 q 349 1180 367 1194 q 331 1135 331 1165 l 331 1115 q 347 1070 331 1085 q 397 1056 364 1056 "},"ẞ":{"ha":999,"x_min":122,"x_max":936,"o":"m 650 -14 q 795 23 731 -12 q 898 117 860 58 q 936 247 936 176 q 917 360 936 314 q 865 436 897 406 q 794 487 832 467 q 718 525 756 507 q 649 563 682 543 q 597 611 617 583 q 578 679 578 639 q 603 751 578 722 q 674 798 628 779 q 786 826 721 817 q 826 836 808 832 q 856 849 844 840 q 867 876 867 858 q 811 946 867 919 q 696 991 765 974 q 542 1008 626 1008 q 354 975 433 1008 q 224 883 275 942 q 149 751 174 825 q 125 597 125 678 l 122 60 q 138 19 122 35 q 181 3 154 3 q 224 19 207 3 q 240 60 240 35 l 243 619 q 263 738 243 685 q 320 831 282 792 q 417 891 358 869 q 551 911 475 913 q 649 904 607 913 q 725 881 690 896 q 792 842 760 865 l 743 899 q 632 877 685 894 q 540 830 579 860 q 478 756 500 800 q 456 654 456 713 q 482 542 456 586 q 550 469 508 499 q 638 417 592 440 q 722 373 682 396 q 788 318 761 350 q 815 235 814 286 q 794 162 815 193 q 733 114 772 131 q 644 97 694 97 q 549 125 597 97 q 468 194 501 153 q 448 208 460 204 q 428 213 436 213 q 389 194 404 213 q 374 153 374 175 q 381 122 374 136 q 390 104 389 107 q 462 39 421 65 q 551 -1 503 13 q 650 -14 600 -14 "},"Ə":{"ha":1063,"x_min":63,"x_max":1000,"o":"m 531 -14 q 713 25 628 -14 q 862 133 797 64 q 963 292 926 201 q 1000 486 1000 382 q 963 681 1000 590 q 861 840 926 771 q 711 947 796 908 q 529 986 626 986 q 315 948 407 986 q 147 828 224 910 q 130 785 128 810 q 151 746 132 761 q 189 733 168 732 q 226 749 210 733 q 363 845 289 815 q 529 875 436 875 q 665 849 601 875 q 776 772 728 822 q 853 651 825 722 q 882 486 882 579 q 854 327 882 399 q 778 204 826 256 q 666 125 729 153 q 531 97 603 97 q 406 122 465 97 q 299 192 346 147 q 221 297 251 238 q 181 425 190 356 l 953 425 l 944 536 l 129 536 q 83 520 104 536 q 63 472 63 504 l 63 443 q 108 259 68 343 q 212 114 147 175 q 359 19 276 53 q 531 -14 442 -14 "},"T":{"ha":849,"x_min":46,"x_max":804,"o":"m 424 0 q 467 17 450 0 q 483 57 483 33 l 483 915 l 365 915 l 365 57 q 382 17 365 33 q 424 0 399 0 m 101 867 l 747 867 q 788 881 771 867 q 804 919 804 894 q 788 958 804 943 q 747 972 771 972 l 101 972 q 62 958 78 972 q 46 919 46 943 q 62 881 46 896 q 101 867 78 867 "},"Ŧ":{"ha":849,"x_min":46,"x_max":804,"o":"m 317 418 l 549 418 q 589 432 574 418 q 604 469 604 446 q 589 506 604 492 q 549 521 574 521 l 317 521 q 276 506 292 521 q 260 469 260 492 q 276 432 260 446 q 317 418 292 418 m 424 0 q 467 17 450 0 q 483 57 483 33 l 483 915 l 365 915 l 365 57 q 382 17 365 33 q 424 0 399 0 m 101 867 l 747 867 q 788 881 771 867 q 804 919 804 894 q 788 958 804 943 q 747 972 771 972 l 101 972 q 62 958 78 972 q 46 919 46 943 q 62 881 46 896 q 101 867 78 867 "},"Ť":{"ha":849,"x_min":46,"x_max":804,"o":"m 424 0 q 467 17 450 0 q 483 57 483 33 l 483 915 l 365 915 l 365 57 q 382 17 365 33 q 424 0 399 0 m 101 867 l 747 867 q 788 881 771 867 q 804 919 804 894 q 788 958 804 943 q 747 972 771 972 l 101 972 q 62 958 78 972 q 46 919 46 943 q 62 881 46 896 q 101 867 78 867 m 408 1124 l 442 1126 l 321 1213 q 272 1233 290 1233 q 251 1226 260 1233 q 242 1208 242 1218 q 245 1195 242 1201 q 257 1179 249 1189 l 357 1069 q 383 1049 369 1056 q 415 1042 396 1042 l 433 1042 q 467 1049 453 1042 q 493 1069 481 1056 l 593 1179 q 604 1195 601 1189 q 607 1208 607 1201 q 599 1226 607 1218 q 578 1235 590 1235 q 556 1230 568 1235 q 529 1214 544 1225 l 408 1124 "},"Ţ":{"ha":849,"x_min":46,"x_max":804,"o":"m 424 0 q 467 17 450 0 q 483 57 483 33 l 483 915 l 365 915 l 365 57 q 382 17 365 33 q 424 0 399 0 m 101 867 l 747 867 q 788 881 771 867 q 804 919 804 894 q 788 958 804 943 q 747 972 771 972 l 101 972 q 62 958 78 972 q 46 919 46 943 q 62 881 46 896 q 101 867 78 867 m 339 -203 q 382 -169 368 -203 l 467 28 l 397 28 l 281 -121 q 269 -151 269 -135 q 282 -178 269 -167 q 311 -197 294 -190 q 339 -203 328 -203 "},"Ṱ":{"ha":849,"x_min":46,"x_max":804,"o":"m 424 0 q 467 17 450 0 q 483 57 483 33 l 483 915 l 365 915 l 365 57 q 382 17 365 33 q 424 0 399 0 m 101 867 l 747 867 q 788 881 771 867 q 804 919 804 894 q 788 958 804 943 q 747 972 771 972 l 101 972 q 62 958 78 972 q 46 919 46 943 q 62 881 46 896 q 101 867 78 867 m 443 -157 l 400 -153 l 521 -253 q 544 -270 535 -264 q 568 -276 553 -276 q 590 -269 582 -276 q 597 -251 597 -261 q 595 -237 597 -243 q 585 -221 593 -231 l 499 -119 q 476 -97 488 -103 q 444 -90 464 -90 l 413 -90 q 353 -119 375 -90 l 263 -222 q 253 -237 256 -231 q 250 -251 250 -244 q 258 -269 250 -261 q 279 -278 267 -278 q 305 -271 296 -278 q 326 -254 314 -264 l 443 -157 "},"Ț":{"ha":849,"x_min":46,"x_max":804,"o":"m 424 0 q 467 17 450 0 q 483 57 483 33 l 483 915 l 365 915 l 365 57 q 382 17 365 33 q 424 0 399 0 m 101 867 l 747 867 q 788 881 771 867 q 804 919 804 894 q 788 958 804 943 q 747 972 771 972 l 101 972 q 62 958 78 972 q 46 919 46 943 q 62 881 46 896 q 101 867 78 867 m 519 -147 q 494 -79 519 -103 q 432 -56 469 -56 q 374 -71 396 -56 q 351 -112 351 -86 q 363 -144 351 -131 q 393 -157 374 -157 q 413 -151 408 -157 q 426 -144 417 -144 q 440 -162 440 -144 q 432 -192 440 -182 q 411 -204 424 -203 q 386 -203 396 -206 q 369 -200 376 -200 q 353 -206 361 -200 q 346 -228 346 -212 q 359 -251 346 -240 q 400 -261 372 -261 q 460 -244 433 -261 q 503 -202 486 -228 q 519 -147 519 -176 "},"Ṭ":{"ha":849,"x_min":46,"x_max":804,"o":"m 424 0 q 467 17 450 0 q 483 57 483 33 l 483 915 l 365 915 l 365 57 q 382 17 365 33 q 424 0 399 0 m 101 867 l 747 867 q 788 881 771 867 q 804 919 804 894 q 788 958 804 943 q 747 972 771 972 l 101 972 q 62 958 78 972 q 46 919 46 943 q 62 881 46 896 q 101 867 78 867 m 424 -197 q 476 -183 458 -197 q 493 -137 493 -168 l 493 -118 q 476 -73 493 -87 q 425 -58 460 -58 q 375 -73 393 -58 q 357 -118 357 -87 l 357 -137 q 374 -183 357 -168 q 424 -197 390 -197 "},"Ṯ":{"ha":849,"x_min":46,"x_max":804,"o":"m 424 0 q 467 17 450 0 q 483 57 483 33 l 483 915 l 365 915 l 365 57 q 382 17 365 33 q 424 0 399 0 m 101 867 l 747 867 q 788 881 771 867 q 804 919 804 894 q 788 958 804 943 q 747 972 771 972 l 101 972 q 62 958 78 972 q 46 919 46 943 q 62 881 46 896 q 101 867 78 867 m 282 -186 l 589 -186 q 638 -143 638 -186 q 589 -99 638 -99 l 282 -99 q 233 -143 233 -99 q 282 -186 233 -186 "},"U":{"ha":986,"x_min":122,"x_max":865,"o":"m 811 974 q 772 957 786 974 q 758 917 758 940 l 758 365 q 722 229 758 289 q 625 135 685 169 q 494 101 565 101 q 366 135 425 101 q 272 229 307 169 q 238 365 238 289 l 238 917 q 220 957 238 940 q 181 974 203 974 q 138 957 154 974 q 122 917 122 940 l 122 365 q 171 174 122 258 q 303 40 219 89 q 494 -10 388 -10 q 683 40 600 -10 q 816 174 767 89 q 865 365 865 258 l 865 917 q 850 957 865 940 q 811 974 835 974 "},"Ú":{"ha":986,"x_min":122,"x_max":865,"o":"m 811 974 q 772 957 786 974 q 758 917 758 940 l 758 365 q 722 229 758 289 q 625 135 685 169 q 494 101 565 101 q 366 135 425 101 q 272 229 307 169 q 238 365 238 289 l 238 917 q 220 957 238 940 q 181 974 203 974 q 138 957 154 974 q 122 917 122 940 l 122 365 q 171 174 122 258 q 303 40 219 89 q 494 -10 388 -10 q 683 40 600 -10 q 816 174 767 89 q 865 365 865 258 l 865 917 q 850 957 865 940 q 811 974 835 974 m 499 1032 q 514 1035 506 1032 q 529 1042 522 1038 l 665 1111 q 692 1133 683 1119 q 701 1164 701 1147 q 685 1201 701 1186 q 649 1215 668 1215 q 622 1209 635 1215 q 599 1194 610 1203 l 476 1094 q 465 1081 469 1088 q 461 1065 461 1074 q 471 1042 461 1051 q 499 1032 481 1032 "},"Ŭ":{"ha":986,"x_min":122,"x_max":865,"o":"m 811 974 q 772 957 786 974 q 758 917 758 940 l 758 365 q 722 229 758 289 q 625 135 685 169 q 494 101 565 101 q 366 135 425 101 q 272 229 307 169 q 238 365 238 289 l 238 917 q 220 957 238 940 q 181 974 203 974 q 138 957 154 974 q 122 917 122 940 l 122 365 q 171 174 122 258 q 303 40 219 89 q 494 -10 388 -10 q 683 40 600 -10 q 816 174 767 89 q 865 365 865 258 l 865 917 q 850 957 865 940 q 811 974 835 974 m 494 1069 q 622 1105 569 1069 q 696 1207 674 1140 q 694 1244 704 1231 q 664 1258 685 1258 q 631 1249 643 1258 q 608 1222 619 1239 q 494 1156 575 1156 q 426 1172 454 1156 q 381 1222 399 1189 q 358 1249 368 1240 q 325 1258 347 1258 q 296 1244 306 1258 q 294 1206 286 1229 q 369 1105 317 1140 q 494 1069 421 1069 "},"Ǔ":{"ha":986,"x_min":122,"x_max":865,"o":"m 811 974 q 772 957 786 974 q 758 917 758 940 l 758 365 q 722 229 758 289 q 625 135 685 169 q 494 101 565 101 q 366 135 425 101 q 272 229 307 169 q 238 365 238 289 l 238 917 q 220 957 238 940 q 181 974 203 974 q 138 957 154 974 q 122 917 122 940 l 122 365 q 171 174 122 258 q 303 40 219 89 q 494 -10 388 -10 q 683 40 600 -10 q 816 174 767 89 q 865 365 865 258 l 865 917 q 850 957 865 940 q 811 974 835 974 m 478 1124 l 511 1126 l 390 1213 q 342 1233 360 1233 q 320 1226 329 1233 q 311 1208 311 1218 q 315 1195 311 1201 q 326 1179 318 1189 l 426 1069 q 452 1049 439 1056 q 485 1042 465 1042 l 503 1042 q 536 1049 522 1042 q 563 1069 550 1056 l 663 1179 q 674 1195 671 1189 q 676 1208 676 1201 q 668 1226 676 1218 q 647 1235 660 1235 q 626 1230 638 1235 q 599 1214 614 1225 l 478 1124 "},"Û":{"ha":986,"x_min":122,"x_max":865,"o":"m 811 974 q 772 957 786 974 q 758 917 758 940 l 758 365 q 722 229 758 289 q 625 135 685 169 q 494 101 565 101 q 366 135 425 101 q 272 229 307 169 q 238 365 238 289 l 238 917 q 220 957 238 940 q 181 974 203 974 q 138 957 154 974 q 122 917 122 940 l 122 365 q 171 174 122 258 q 303 40 219 89 q 494 -10 388 -10 q 683 40 600 -10 q 816 174 767 89 q 865 365 865 258 l 865 917 q 850 957 865 940 q 811 974 835 974 m 510 1157 l 476 1154 l 597 1071 q 624 1055 613 1061 q 646 1049 636 1049 q 668 1057 660 1049 q 676 1074 676 1065 q 673 1088 676 1082 q 661 1103 669 1094 l 561 1213 q 535 1233 549 1226 q 503 1240 522 1240 l 485 1240 q 452 1233 465 1240 q 425 1213 439 1226 l 325 1103 q 314 1087 317 1093 q 311 1074 311 1081 q 319 1056 311 1064 q 340 1047 328 1047 q 363 1053 351 1047 q 389 1069 374 1060 l 510 1157 "},"Ȕ":{"ha":986,"x_min":122,"x_max":865,"o":"m 811 974 q 772 957 786 974 q 758 917 758 940 l 758 365 q 722 229 758 289 q 625 135 685 169 q 494 101 565 101 q 366 135 425 101 q 272 229 307 169 q 238 365 238 289 l 238 917 q 220 957 238 940 q 181 974 203 974 q 138 957 154 974 q 122 917 122 940 l 122 365 q 171 174 122 258 q 303 40 219 89 q 494 -10 388 -10 q 683 40 600 -10 q 816 174 767 89 q 865 365 865 258 l 865 917 q 850 957 865 940 q 811 974 835 974 m 403 1047 q 431 1057 421 1047 q 440 1081 440 1067 q 436 1096 440 1089 q 424 1110 432 1103 l 301 1210 q 279 1224 292 1218 q 253 1231 267 1231 q 216 1216 232 1231 q 200 1179 200 1201 q 235 1126 200 1146 l 372 1057 q 387 1050 379 1053 q 403 1047 394 1047 m 653 1051 q 681 1061 671 1051 q 690 1085 690 1071 q 687 1100 690 1093 q 675 1114 683 1107 l 553 1214 q 531 1228 543 1222 q 503 1235 518 1235 q 467 1220 483 1235 q 450 1183 450 1206 q 486 1131 450 1150 l 622 1061 q 638 1054 631 1057 q 653 1051 646 1051 "},"Ü":{"ha":986,"x_min":122,"x_max":865,"o":"m 811 974 q 772 957 786 974 q 758 917 758 940 l 758 365 q 722 229 758 289 q 625 135 685 169 q 494 101 565 101 q 366 135 425 101 q 272 229 307 169 q 238 365 238 289 l 238 917 q 220 957 238 940 q 181 974 203 974 q 138 957 154 974 q 122 917 122 940 l 122 365 q 171 174 122 258 q 303 40 219 89 q 494 -10 388 -10 q 683 40 600 -10 q 816 174 767 89 q 865 365 865 258 l 865 917 q 850 957 865 940 q 811 974 835 974 m 619 1069 q 669 1084 653 1069 q 686 1129 686 1099 l 686 1147 q 669 1192 686 1178 q 619 1207 653 1207 q 570 1193 588 1207 q 553 1147 553 1179 l 553 1129 q 569 1084 553 1099 q 619 1069 586 1069 m 368 1069 q 418 1084 401 1069 q 435 1129 435 1099 l 435 1147 q 418 1192 435 1178 q 369 1207 401 1207 q 319 1193 338 1207 q 301 1147 301 1179 l 301 1129 q 318 1084 301 1099 q 368 1069 335 1069 "},"Ụ":{"ha":986,"x_min":122,"x_max":865,"o":"m 811 974 q 772 957 786 974 q 758 917 758 940 l 758 365 q 722 229 758 289 q 625 135 685 169 q 494 101 565 101 q 366 135 425 101 q 272 229 307 169 q 238 365 238 289 l 238 917 q 220 957 238 940 q 181 974 203 974 q 138 957 154 974 q 122 917 122 940 l 122 365 q 171 174 122 258 q 303 40 219 89 q 494 -10 388 -10 q 683 40 600 -10 q 816 174 767 89 q 865 365 865 258 l 865 917 q 850 957 865 940 q 811 974 835 974 m 493 -197 q 545 -183 528 -197 q 563 -137 563 -168 l 563 -118 q 546 -73 563 -87 q 494 -58 529 -58 q 444 -73 463 -58 q 426 -118 426 -87 l 426 -137 q 443 -183 426 -168 q 493 -197 460 -197 "},"Ù":{"ha":986,"x_min":122,"x_max":865,"o":"m 811 974 q 772 957 786 974 q 758 917 758 940 l 758 365 q 722 229 758 289 q 625 135 685 169 q 494 101 565 101 q 366 135 425 101 q 272 229 307 169 q 238 365 238 289 l 238 917 q 220 957 238 940 q 181 974 203 974 q 138 957 154 974 q 122 917 122 940 l 122 365 q 171 174 122 258 q 303 40 219 89 q 494 -10 388 -10 q 683 40 600 -10 q 816 174 767 89 q 865 365 865 258 l 865 917 q 850 957 865 940 q 811 974 835 974 m 493 1035 q 521 1044 511 1035 q 531 1068 531 1054 q 526 1083 531 1076 q 514 1097 522 1090 l 392 1197 q 369 1212 382 1206 q 343 1218 357 1218 q 306 1203 322 1218 q 290 1167 290 1189 q 325 1114 290 1133 l 463 1044 q 477 1038 469 1040 q 493 1035 485 1035 "},"Ủ":{"ha":986,"x_min":122,"x_max":865,"o":"m 811 974 q 772 957 786 974 q 758 917 758 940 l 758 365 q 722 229 758 289 q 625 135 685 169 q 494 101 565 101 q 366 135 425 101 q 272 229 307 169 q 238 365 238 289 l 238 917 q 220 957 238 940 q 181 974 203 974 q 138 957 154 974 q 122 917 122 940 l 122 365 q 171 174 122 258 q 303 40 219 89 q 494 -10 388 -10 q 683 40 600 -10 q 816 174 767 89 q 865 365 865 258 l 865 917 q 850 957 865 940 q 811 974 835 974 m 379 1265 q 363 1241 367 1256 q 372 1213 360 1226 q 398 1200 385 1199 q 422 1210 411 1201 q 450 1226 435 1218 q 483 1235 465 1235 q 519 1224 504 1235 q 533 1193 533 1213 q 522 1165 533 1179 q 496 1132 511 1150 q 479 1104 483 1118 q 475 1078 475 1090 q 484 1057 475 1064 q 506 1050 493 1050 q 533 1056 522 1050 q 544 1076 544 1063 q 552 1097 546 1088 q 568 1118 558 1107 q 597 1158 586 1139 q 607 1200 607 1176 q 597 1247 607 1222 q 560 1290 586 1272 q 485 1308 533 1308 q 426 1297 451 1308 q 379 1265 400 1285 "},"Ư":{"ha":986,"x_min":122,"x_max":1024,"o":"m 811 974 q 772 957 786 974 q 758 917 758 940 l 758 365 q 722 229 758 289 q 625 135 685 169 q 494 101 565 101 q 366 135 425 101 q 272 229 307 169 q 238 365 238 289 l 238 917 q 220 957 238 940 q 181 974 203 974 q 138 957 154 974 q 122 917 122 940 l 122 365 q 171 174 122 258 q 303 40 219 89 q 494 -10 388 -10 q 683 40 600 -10 q 816 174 767 89 q 865 365 865 258 l 865 917 q 850 957 865 940 q 811 974 835 974 m 803 876 q 925 902 876 876 q 999 972 974 928 q 1024 1072 1024 1017 q 1015 1110 1024 1090 q 978 1131 1006 1131 q 941 1112 953 1131 q 929 1072 929 1093 q 897 996 929 1019 q 803 972 865 972 l 803 876 "},"Ứ":{"ha":986,"x_min":122,"x_max":1024,"o":"m 811 974 q 772 957 786 974 q 758 917 758 940 l 758 365 q 722 229 758 289 q 625 135 685 169 q 494 101 565 101 q 366 135 425 101 q 272 229 307 169 q 238 365 238 289 l 238 917 q 220 957 238 940 q 181 974 203 974 q 138 957 154 974 q 122 917 122 940 l 122 365 q 171 174 122 258 q 303 40 219 89 q 494 -10 388 -10 q 683 40 600 -10 q 816 174 767 89 q 865 365 865 258 l 865 917 q 850 957 865 940 q 811 974 835 974 m 803 876 q 925 902 876 876 q 999 972 974 928 q 1024 1072 1024 1017 q 1015 1110 1024 1090 q 978 1131 1006 1131 q 941 1112 953 1131 q 929 1072 929 1093 q 897 996 929 1019 q 803 972 865 972 l 803 876 m 504 1032 q 519 1035 511 1032 q 535 1042 528 1038 l 671 1111 q 698 1133 689 1119 q 707 1164 707 1147 q 690 1201 707 1186 q 654 1215 674 1215 q 628 1209 640 1215 q 604 1194 615 1203 l 482 1094 q 471 1081 475 1088 q 467 1065 467 1074 q 476 1042 467 1051 q 504 1032 486 1032 "},"Ự":{"ha":986,"x_min":122,"x_max":1024,"o":"m 811 974 q 772 957 786 974 q 758 917 758 940 l 758 365 q 722 229 758 289 q 625 135 685 169 q 494 101 565 101 q 366 135 425 101 q 272 229 307 169 q 238 365 238 289 l 238 917 q 220 957 238 940 q 181 974 203 974 q 138 957 154 974 q 122 917 122 940 l 122 365 q 171 174 122 258 q 303 40 219 89 q 494 -10 388 -10 q 683 40 600 -10 q 816 174 767 89 q 865 365 865 258 l 865 917 q 850 957 865 940 q 811 974 835 974 m 803 876 q 925 902 876 876 q 999 972 974 928 q 1024 1072 1024 1017 q 1015 1110 1024 1090 q 978 1131 1006 1131 q 941 1112 953 1131 q 929 1072 929 1093 q 897 996 929 1019 q 803 972 865 972 l 803 876 m 497 -197 q 549 -183 532 -197 q 567 -137 567 -168 l 567 -118 q 550 -73 567 -87 q 499 -58 533 -58 q 449 -73 467 -58 q 431 -118 431 -87 l 431 -137 q 447 -183 431 -168 q 497 -197 464 -197 "},"Ừ":{"ha":986,"x_min":122,"x_max":1024,"o":"m 811 974 q 772 957 786 974 q 758 917 758 940 l 758 365 q 722 229 758 289 q 625 135 685 169 q 494 101 565 101 q 366 135 425 101 q 272 229 307 169 q 238 365 238 289 l 238 917 q 220 957 238 940 q 181 974 203 974 q 138 957 154 974 q 122 917 122 940 l 122 365 q 171 174 122 258 q 303 40 219 89 q 494 -10 388 -10 q 683 40 600 -10 q 816 174 767 89 q 865 365 865 258 l 865 917 q 850 957 865 940 q 811 974 835 974 m 803 876 q 925 902 876 876 q 999 972 974 928 q 1024 1072 1024 1017 q 1015 1110 1024 1090 q 978 1131 1006 1131 q 941 1112 953 1131 q 929 1072 929 1093 q 897 996 929 1019 q 803 972 865 972 l 803 876 m 499 1035 q 526 1044 517 1035 q 536 1068 536 1054 q 532 1083 536 1076 q 519 1097 528 1090 l 397 1197 q 375 1212 388 1206 q 349 1218 363 1218 q 312 1203 328 1218 q 296 1167 296 1189 q 331 1114 296 1133 l 468 1044 q 483 1038 475 1040 q 499 1035 490 1035 "},"Ử":{"ha":986,"x_min":122,"x_max":1024,"o":"m 811 974 q 772 957 786 974 q 758 917 758 940 l 758 365 q 722 229 758 289 q 625 135 685 169 q 494 101 565 101 q 366 135 425 101 q 272 229 307 169 q 238 365 238 289 l 238 917 q 220 957 238 940 q 181 974 203 974 q 138 957 154 974 q 122 917 122 940 l 122 365 q 171 174 122 258 q 303 40 219 89 q 494 -10 388 -10 q 683 40 600 -10 q 816 174 767 89 q 865 365 865 258 l 865 917 q 850 957 865 940 q 811 974 835 974 m 803 876 q 925 902 876 876 q 999 972 974 928 q 1024 1072 1024 1017 q 1015 1110 1024 1090 q 978 1131 1006 1131 q 941 1112 953 1131 q 929 1072 929 1093 q 897 996 929 1019 q 803 972 865 972 l 803 876 m 385 1265 q 369 1241 372 1256 q 378 1213 365 1226 q 403 1200 390 1199 q 428 1210 417 1201 q 456 1226 440 1218 q 489 1235 471 1235 q 524 1224 510 1235 q 539 1193 539 1213 q 528 1165 539 1179 q 501 1132 517 1150 q 485 1104 489 1118 q 481 1078 481 1090 q 490 1057 481 1064 q 511 1050 499 1050 q 539 1056 528 1050 q 550 1076 550 1063 q 558 1097 551 1088 q 574 1118 564 1107 q 602 1158 592 1139 q 613 1200 613 1176 q 602 1247 613 1222 q 565 1290 592 1272 q 490 1308 539 1308 q 431 1297 457 1308 q 385 1265 406 1285 "},"Ữ":{"ha":986,"x_min":122,"x_max":1024,"o":"m 811 974 q 772 957 786 974 q 758 917 758 940 l 758 365 q 722 229 758 289 q 625 135 685 169 q 494 101 565 101 q 366 135 425 101 q 272 229 307 169 q 238 365 238 289 l 238 917 q 220 957 238 940 q 181 974 203 974 q 138 957 154 974 q 122 917 122 940 l 122 365 q 171 174 122 258 q 303 40 219 89 q 494 -10 388 -10 q 683 40 600 -10 q 816 174 767 89 q 865 365 865 258 l 865 917 q 850 957 865 940 q 811 974 835 974 m 803 876 q 925 902 876 876 q 999 972 974 928 q 1024 1072 1024 1017 q 1015 1110 1024 1090 q 978 1131 1006 1131 q 941 1112 953 1131 q 929 1072 929 1093 q 897 996 929 1019 q 803 972 865 972 l 803 876 m 318 1054 q 347 1066 335 1054 q 356 1099 358 1078 q 371 1132 358 1121 q 400 1143 383 1143 q 459 1123 425 1143 q 533 1083 493 1103 q 611 1063 572 1063 q 672 1077 646 1063 q 712 1117 697 1092 q 731 1169 726 1142 q 719 1222 732 1201 q 682 1242 707 1242 q 653 1229 664 1242 q 646 1194 642 1217 q 635 1161 646 1174 q 606 1149 624 1149 q 549 1169 582 1149 q 478 1211 515 1190 q 404 1232 442 1232 q 314 1203 350 1232 q 272 1128 278 1174 q 283 1074 269 1094 q 318 1054 296 1054 "},"Ű":{"ha":986,"x_min":122,"x_max":865,"o":"m 811 974 q 772 957 786 974 q 758 917 758 940 l 758 365 q 722 229 758 289 q 625 135 685 169 q 494 101 565 101 q 366 135 425 101 q 272 229 307 169 q 238 365 238 289 l 238 917 q 220 957 238 940 q 181 974 203 974 q 138 957 154 974 q 122 917 122 940 l 122 365 q 171 174 122 258 q 303 40 219 89 q 494 -10 388 -10 q 683 40 600 -10 q 816 174 767 89 q 865 365 865 258 l 865 917 q 850 957 865 940 q 811 974 835 974 m 360 1051 q 394 1059 379 1051 q 421 1079 408 1067 l 507 1165 q 520 1182 515 1174 q 525 1200 525 1190 q 508 1238 525 1224 q 468 1251 490 1251 q 436 1242 449 1251 q 417 1219 424 1232 l 344 1110 q 333 1076 333 1092 q 360 1051 333 1051 m 589 1051 q 623 1059 608 1051 q 650 1079 638 1067 l 738 1165 q 750 1183 746 1174 q 754 1203 754 1192 q 735 1238 754 1228 q 697 1249 717 1249 q 667 1240 679 1249 q 647 1219 654 1232 l 575 1110 q 563 1076 563 1090 q 589 1051 563 1051 "},"Ȗ":{"ha":986,"x_min":122,"x_max":865,"o":"m 811 974 q 772 957 786 974 q 758 917 758 940 l 758 365 q 722 229 758 289 q 625 135 685 169 q 494 101 565 101 q 366 135 425 101 q 272 229 307 169 q 238 365 238 289 l 238 917 q 220 957 238 940 q 181 974 203 974 q 138 957 154 974 q 122 917 122 940 l 122 365 q 171 174 122 258 q 303 40 219 89 q 494 -10 388 -10 q 683 40 600 -10 q 816 174 767 89 q 865 365 865 258 l 865 917 q 850 957 865 940 q 811 974 835 974 m 493 1231 q 403 1213 444 1231 q 335 1165 363 1196 q 299 1096 308 1135 q 303 1060 292 1074 q 333 1046 314 1046 q 367 1056 354 1046 q 389 1085 379 1067 q 428 1130 400 1114 q 493 1146 456 1146 q 559 1130 532 1146 q 597 1085 586 1114 q 620 1056 608 1067 q 654 1046 632 1046 q 684 1060 674 1046 q 688 1097 694 1075 q 651 1167 679 1136 q 583 1214 624 1197 q 493 1231 543 1231 "},"Ū":{"ha":986,"x_min":122,"x_max":865,"o":"m 811 974 q 772 957 786 974 q 758 917 758 940 l 758 365 q 722 229 758 289 q 625 135 685 169 q 494 101 565 101 q 366 135 425 101 q 272 229 307 169 q 238 365 238 289 l 238 917 q 220 957 238 940 q 181 974 203 974 q 138 957 154 974 q 122 917 122 940 l 122 365 q 171 174 122 258 q 303 40 219 89 q 494 -10 388 -10 q 683 40 600 -10 q 816 174 767 89 q 865 365 865 258 l 865 917 q 850 957 865 940 q 811 974 835 974 m 322 1078 l 671 1078 q 721 1121 721 1078 q 671 1165 721 1165 l 322 1165 q 272 1121 272 1165 q 322 1078 272 1078 "},"Ṻ":{"ha":986,"x_min":122,"x_max":865,"o":"m 811 974 q 772 957 786 974 q 758 917 758 940 l 758 365 q 722 229 758 289 q 625 135 685 169 q 494 101 565 101 q 366 135 425 101 q 272 229 307 169 q 238 365 238 289 l 238 917 q 220 957 238 940 q 181 974 203 974 q 138 957 154 974 q 122 917 122 940 l 122 365 q 171 174 122 258 q 303 40 219 89 q 494 -10 388 -10 q 683 40 600 -10 q 816 174 767 89 q 865 365 865 258 l 865 917 q 850 957 865 940 q 811 974 835 974 m 322 1078 l 671 1078 q 721 1121 721 1078 q 671 1165 721 1165 l 322 1165 q 272 1121 272 1165 q 322 1078 272 1078 m 619 1290 q 669 1305 653 1290 q 686 1350 686 1319 l 686 1368 q 669 1413 686 1399 q 619 1428 653 1428 q 570 1414 588 1428 q 553 1368 553 1400 l 553 1350 q 569 1305 553 1319 q 619 1290 586 1290 m 368 1290 q 418 1305 401 1290 q 435 1350 435 1319 l 435 1368 q 418 1413 435 1399 q 369 1428 401 1428 q 319 1414 338 1428 q 301 1368 301 1400 l 301 1350 q 318 1305 301 1319 q 368 1290 335 1290 "},"Ų":{"ha":986,"x_min":122,"x_max":865,"o":"m 604 -272 q 669 -259 640 -272 q 717 -226 699 -246 q 735 -186 735 -206 q 723 -155 735 -167 q 694 -143 711 -143 q 673 -148 685 -143 q 651 -167 661 -153 q 615 -182 640 -182 q 574 -164 592 -182 q 556 -112 556 -146 q 576 -50 556 -78 q 628 1 596 -22 q 694 46 660 25 q 790 129 751 78 q 847 242 828 181 q 865 365 865 304 l 865 917 q 850 957 865 940 q 811 974 835 974 q 774 957 789 974 q 758 917 758 940 l 758 365 q 722 229 758 289 q 626 135 686 169 q 494 101 567 101 q 366 135 425 101 q 272 229 307 169 q 238 365 238 289 l 238 917 q 222 957 238 940 q 181 974 207 974 q 138 957 154 974 q 122 917 122 940 l 122 365 q 171 174 122 258 q 303 40 219 89 q 494 -10 388 -10 q 522 -9 508 -10 q 549 -7 535 -8 l 650 78 q 585 51 618 69 q 523 7 551 33 q 477 -54 494 -19 q 460 -133 460 -89 q 503 -237 460 -201 q 604 -272 547 -272 "},"Ů":{"ha":986,"x_min":122,"x_max":865,"o":"m 811 974 q 772 957 786 974 q 758 917 758 940 l 758 365 q 722 229 758 289 q 625 135 685 169 q 494 101 565 101 q 366 135 425 101 q 272 229 307 169 q 238 365 238 289 l 238 917 q 220 957 238 940 q 181 974 203 974 q 138 957 154 974 q 122 917 122 940 l 122 365 q 171 174 122 258 q 303 40 219 89 q 494 -10 388 -10 q 683 40 600 -10 q 816 174 767 89 q 865 365 865 258 l 865 917 q 850 957 865 940 q 811 974 835 974 m 494 1035 q 567 1054 533 1035 q 622 1106 601 1074 q 642 1176 642 1138 q 622 1248 642 1215 q 567 1299 601 1281 q 494 1318 533 1318 q 422 1299 456 1318 q 368 1248 389 1281 q 347 1176 347 1215 q 368 1106 347 1138 q 422 1054 389 1074 q 494 1035 456 1035 m 494 1106 q 442 1126 464 1106 q 421 1176 421 1147 q 442 1228 421 1208 q 494 1247 464 1247 q 547 1228 525 1247 q 568 1176 568 1208 q 547 1126 568 1147 q 494 1106 526 1106 "},"Ũ":{"ha":986,"x_min":122,"x_max":865,"o":"m 811 974 q 772 957 786 974 q 758 917 758 940 l 758 365 q 722 229 758 289 q 625 135 685 169 q 494 101 565 101 q 366 135 425 101 q 272 229 307 169 q 238 365 238 289 l 238 917 q 220 957 238 940 q 181 974 203 974 q 138 957 154 974 q 122 917 122 940 l 122 365 q 171 174 122 258 q 303 40 219 89 q 494 -10 388 -10 q 683 40 600 -10 q 816 174 767 89 q 865 365 865 258 l 865 917 q 850 957 865 940 q 811 974 835 974 m 313 1054 q 341 1066 329 1054 q 350 1099 353 1078 q 365 1132 353 1121 q 394 1143 378 1143 q 453 1123 419 1143 q 527 1083 488 1103 q 606 1063 567 1063 q 666 1077 640 1063 q 706 1117 692 1092 q 725 1169 721 1142 q 714 1222 726 1201 q 676 1242 701 1242 q 647 1229 658 1242 q 640 1194 636 1217 q 629 1161 640 1174 q 600 1149 618 1149 q 543 1169 576 1149 q 473 1211 510 1190 q 399 1232 436 1232 q 308 1203 344 1232 q 267 1128 272 1174 q 277 1074 264 1094 q 313 1054 290 1054 "},"Ṹ":{"ha":986,"x_min":122,"x_max":865,"o":"m 811 974 q 772 957 786 974 q 758 917 758 940 l 758 365 q 722 229 758 289 q 625 135 685 169 q 494 101 565 101 q 366 135 425 101 q 272 229 307 169 q 238 365 238 289 l 238 917 q 220 957 238 940 q 181 974 203 974 q 138 957 154 974 q 122 917 122 940 l 122 365 q 171 174 122 258 q 303 40 219 89 q 494 -10 388 -10 q 683 40 600 -10 q 816 174 767 89 q 865 365 865 258 l 865 917 q 850 957 865 940 q 811 974 835 974 m 313 1054 q 341 1066 329 1054 q 350 1099 353 1078 q 365 1132 353 1121 q 394 1143 378 1143 q 453 1123 419 1143 q 527 1083 488 1103 q 606 1063 567 1063 q 666 1077 640 1063 q 706 1117 692 1092 q 725 1169 721 1142 q 714 1222 726 1201 q 676 1242 701 1242 q 647 1229 658 1242 q 640 1194 636 1217 q 629 1161 640 1174 q 600 1149 618 1149 q 543 1169 576 1149 q 473 1211 510 1190 q 399 1232 436 1232 q 308 1203 344 1232 q 267 1128 272 1174 q 277 1074 264 1094 q 313 1054 290 1054 m 499 1311 q 514 1314 506 1311 q 529 1321 522 1317 l 665 1390 q 692 1413 683 1399 q 701 1443 701 1426 q 685 1480 701 1465 q 649 1494 668 1494 q 622 1488 635 1494 q 599 1474 610 1482 l 476 1374 q 465 1360 469 1367 q 461 1344 461 1353 q 471 1321 461 1331 q 499 1311 481 1311 "},"V":{"ha":929,"x_min":46,"x_max":885,"o":"m 828 974 q 776 939 793 974 l 456 144 l 488 144 l 156 936 q 101 975 139 975 q 65 960 83 975 q 46 919 46 946 q 47 906 46 913 q 51 894 49 900 l 413 36 q 433 10 419 19 q 463 0 447 1 q 494 9 479 0 q 517 36 508 18 l 879 896 q 885 921 885 910 q 868 959 885 944 q 828 974 851 974 "},"W":{"ha":1332,"x_min":36,"x_max":1296,"o":"m 1236 976 q 1203 967 1218 976 q 1182 940 1188 957 l 924 175 l 940 182 l 721 733 q 701 760 715 750 q 669 769 686 769 q 638 760 651 769 q 617 733 624 750 l 390 174 l 410 174 l 150 940 q 129 967 144 957 q 97 976 114 976 q 56 960 76 976 q 36 917 36 944 q 39 897 36 908 l 335 36 q 355 10 340 19 q 385 0 369 1 q 417 9 401 0 q 440 36 432 18 l 671 593 l 660 597 l 892 36 q 915 9 900 18 q 947 0 931 0 q 977 10 963 1 q 997 36 992 19 l 1293 897 q 1296 918 1296 908 q 1277 961 1296 946 q 1236 976 1258 976 "},"Ẃ":{"ha":1332,"x_min":36,"x_max":1296,"o":"m 1236 976 q 1203 967 1218 976 q 1182 940 1188 957 l 924 175 l 940 182 l 721 733 q 701 760 715 750 q 669 769 686 769 q 638 760 651 769 q 617 733 624 750 l 390 174 l 410 174 l 150 940 q 129 967 144 957 q 97 976 114 976 q 56 960 76 976 q 36 917 36 944 q 39 897 36 908 l 335 36 q 355 10 340 19 q 385 0 369 1 q 417 9 401 0 q 440 36 432 18 l 671 593 l 660 597 l 892 36 q 915 9 900 18 q 947 0 931 0 q 977 10 963 1 q 997 36 992 19 l 1293 897 q 1296 918 1296 908 q 1277 961 1296 946 q 1236 976 1258 976 m 671 1032 q 686 1035 678 1032 q 701 1042 694 1038 l 838 1111 q 865 1133 856 1119 q 874 1164 874 1147 q 857 1201 874 1186 q 821 1215 840 1215 q 794 1209 807 1215 q 771 1194 782 1203 l 649 1094 q 638 1081 642 1088 q 633 1065 633 1074 q 643 1042 633 1051 q 671 1032 653 1032 "},"Ŵ":{"ha":1332,"x_min":36,"x_max":1296,"o":"m 1236 976 q 1203 967 1218 976 q 1182 940 1188 957 l 924 175 l 940 182 l 721 733 q 701 760 715 750 q 669 769 686 769 q 638 760 651 769 q 617 733 624 750 l 390 174 l 410 174 l 150 940 q 129 967 144 957 q 97 976 114 976 q 56 960 76 976 q 36 917 36 944 q 39 897 36 908 l 335 36 q 355 10 340 19 q 385 0 369 1 q 417 9 401 0 q 440 36 432 18 l 671 593 l 660 597 l 892 36 q 915 9 900 18 q 947 0 931 0 q 977 10 963 1 q 997 36 992 19 l 1293 897 q 1296 918 1296 908 q 1277 961 1296 946 q 1236 976 1258 976 m 682 1157 l 649 1154 l 769 1071 q 797 1055 785 1061 q 818 1049 808 1049 q 840 1057 832 1049 q 849 1074 849 1065 q 845 1088 849 1082 q 833 1103 842 1094 l 733 1213 q 708 1233 721 1226 q 675 1240 694 1240 l 657 1240 q 624 1233 638 1240 q 597 1213 611 1226 l 497 1103 q 486 1087 489 1093 q 483 1074 483 1081 q 492 1056 483 1064 q 513 1047 500 1047 q 535 1053 524 1047 q 561 1069 546 1060 l 682 1157 "},"Ẅ":{"ha":1332,"x_min":36,"x_max":1296,"o":"m 1236 976 q 1203 967 1218 976 q 1182 940 1188 957 l 924 175 l 940 182 l 721 733 q 701 760 715 750 q 669 769 686 769 q 638 760 651 769 q 617 733 624 750 l 390 174 l 410 174 l 150 940 q 129 967 144 957 q 97 976 114 976 q 56 960 76 976 q 36 917 36 944 q 39 897 36 908 l 335 36 q 355 10 340 19 q 385 0 369 1 q 417 9 401 0 q 440 36 432 18 l 671 593 l 660 597 l 892 36 q 915 9 900 18 q 947 0 931 0 q 977 10 963 1 q 997 36 992 19 l 1293 897 q 1296 918 1296 908 q 1277 961 1296 946 q 1236 976 1258 976 m 792 1069 q 842 1084 825 1069 q 858 1129 858 1099 l 858 1147 q 842 1192 858 1178 q 792 1207 825 1207 q 742 1193 760 1207 q 725 1147 725 1179 l 725 1129 q 742 1084 725 1099 q 792 1069 758 1069 m 540 1069 q 590 1084 574 1069 q 607 1129 607 1099 l 607 1147 q 590 1192 607 1178 q 542 1207 574 1207 q 492 1193 510 1207 q 474 1147 474 1179 l 474 1129 q 490 1084 474 1099 q 540 1069 507 1069 "},"Ẁ":{"ha":1332,"x_min":36,"x_max":1296,"o":"m 1236 976 q 1203 967 1218 976 q 1182 940 1188 957 l 924 175 l 940 182 l 721 733 q 701 760 715 750 q 669 769 686 769 q 638 760 651 769 q 617 733 624 750 l 390 174 l 410 174 l 150 940 q 129 967 144 957 q 97 976 114 976 q 56 960 76 976 q 36 917 36 944 q 39 897 36 908 l 335 36 q 355 10 340 19 q 385 0 369 1 q 417 9 401 0 q 440 36 432 18 l 671 593 l 660 597 l 892 36 q 915 9 900 18 q 947 0 931 0 q 977 10 963 1 q 997 36 992 19 l 1293 897 q 1296 918 1296 908 q 1277 961 1296 946 q 1236 976 1258 976 m 665 1035 q 693 1044 683 1035 q 703 1068 703 1054 q 699 1083 703 1076 q 686 1097 694 1090 l 564 1197 q 542 1212 554 1206 q 515 1218 529 1218 q 478 1203 494 1218 q 463 1167 463 1189 q 497 1114 463 1133 l 635 1044 q 649 1038 642 1040 q 665 1035 657 1035 "},"X":{"ha":864,"x_min":53,"x_max":813,"o":"m 760 976 q 715 950 733 976 l 432 567 l 494 479 l 800 892 q 813 926 813 908 q 797 961 813 946 q 760 976 781 976 m 110 976 q 72 960 89 976 q 54 921 54 944 q 65 888 54 901 l 710 18 q 756 -6 728 -6 q 793 10 775 -6 q 811 50 811 25 q 800 85 811 68 l 156 953 q 110 976 139 976 m 104 -6 q 149 19 132 -6 l 433 407 l 374 499 l 67 81 q 53 43 53 63 q 67 10 53 26 q 104 -6 82 -6 "},"Y":{"ha":794,"x_min":26,"x_max":769,"o":"m 714 978 q 668 950 686 978 l 392 561 l 418 557 l 131 951 q 85 978 113 978 q 46 962 65 978 q 26 922 26 946 q 30 902 26 913 q 42 881 33 892 l 354 458 l 344 494 l 344 57 q 360 17 344 33 q 401 0 376 0 q 440 17 424 0 q 456 57 456 33 l 456 506 l 438 438 l 760 886 q 767 903 765 894 q 769 921 769 913 q 753 960 769 943 q 714 978 738 978 "},"Ý":{"ha":794,"x_min":26,"x_max":769,"o":"m 714 978 q 668 950 686 978 l 392 561 l 418 557 l 131 951 q 85 978 113 978 q 46 962 65 978 q 26 922 26 946 q 30 902 26 913 q 42 881 33 892 l 354 458 l 344 494 l 344 57 q 360 17 344 33 q 401 0 376 0 q 440 17 424 0 q 456 57 456 33 l 456 506 l 438 438 l 760 886 q 767 903 765 894 q 769 921 769 913 q 753 960 769 943 q 714 978 738 978 m 401 1032 q 417 1035 408 1032 q 432 1042 425 1038 l 568 1111 q 595 1133 586 1119 q 604 1164 604 1147 q 588 1201 604 1186 q 551 1215 571 1215 q 525 1209 538 1215 q 501 1194 513 1203 l 379 1094 q 368 1081 372 1088 q 364 1065 364 1074 q 374 1042 364 1051 q 401 1032 383 1032 "},"Ŷ":{"ha":794,"x_min":26,"x_max":769,"o":"m 714 978 q 668 950 686 978 l 392 561 l 418 557 l 131 951 q 85 978 113 978 q 46 962 65 978 q 26 922 26 946 q 30 902 26 913 q 42 881 33 892 l 354 458 l 344 494 l 344 57 q 360 17 344 33 q 401 0 376 0 q 440 17 424 0 q 456 57 456 33 l 456 506 l 438 438 l 760 886 q 767 903 765 894 q 769 921 769 913 q 753 960 769 943 q 714 978 738 978 m 413 1157 l 379 1154 l 500 1071 q 527 1055 515 1061 q 549 1049 539 1049 q 571 1057 563 1049 q 579 1074 579 1065 q 576 1088 579 1082 q 564 1103 572 1094 l 464 1213 q 438 1233 451 1226 q 406 1240 425 1240 l 388 1240 q 355 1233 368 1240 q 328 1213 342 1226 l 228 1103 q 217 1087 219 1093 q 214 1074 214 1081 q 222 1056 214 1064 q 243 1047 231 1047 q 265 1053 254 1047 q 292 1069 276 1060 l 413 1157 "},"Ÿ":{"ha":794,"x_min":26,"x_max":769,"o":"m 714 978 q 668 950 686 978 l 392 561 l 418 557 l 131 951 q 85 978 113 978 q 46 962 65 978 q 26 922 26 946 q 30 902 26 913 q 42 881 33 892 l 354 458 l 344 494 l 344 57 q 360 17 344 33 q 401 0 376 0 q 440 17 424 0 q 456 57 456 33 l 456 506 l 438 438 l 760 886 q 767 903 765 894 q 769 921 769 913 q 753 960 769 943 q 714 978 738 978 m 524 1069 q 574 1084 557 1069 q 590 1129 590 1099 l 590 1147 q 574 1192 590 1178 q 524 1207 557 1207 q 474 1193 492 1207 q 457 1147 457 1179 l 457 1129 q 474 1084 457 1099 q 524 1069 490 1069 m 272 1069 q 322 1084 306 1069 q 339 1129 339 1099 l 339 1147 q 322 1192 339 1178 q 274 1207 306 1207 q 224 1193 242 1207 q 206 1147 206 1179 l 206 1129 q 222 1084 206 1099 q 272 1069 239 1069 "},"Ẏ":{"ha":794,"x_min":26,"x_max":769,"o":"m 714 978 q 668 950 686 978 l 392 561 l 418 557 l 131 951 q 85 978 113 978 q 46 962 65 978 q 26 922 26 946 q 30 902 26 913 q 42 881 33 892 l 354 458 l 344 494 l 344 57 q 360 17 344 33 q 401 0 376 0 q 440 17 424 0 q 456 57 456 33 l 456 506 l 438 438 l 760 886 q 767 903 765 894 q 769 921 769 913 q 753 960 769 943 q 714 978 738 978 m 396 1056 q 448 1070 431 1056 q 465 1115 465 1085 l 465 1135 q 449 1180 465 1165 q 397 1194 432 1194 q 347 1180 365 1194 q 329 1135 329 1165 l 329 1115 q 346 1070 329 1085 q 396 1056 363 1056 "},"Ỵ":{"ha":794,"x_min":26,"x_max":769,"o":"m 714 978 q 668 950 686 978 l 392 561 l 418 557 l 131 951 q 85 978 113 978 q 46 962 65 978 q 26 922 26 946 q 30 902 26 913 q 42 881 33 892 l 354 458 l 344 494 l 344 57 q 360 17 344 33 q 401 0 376 0 q 440 17 424 0 q 456 57 456 33 l 456 506 l 438 438 l 760 886 q 767 903 765 894 q 769 921 769 913 q 753 960 769 943 q 714 978 738 978 m 400 -197 q 452 -183 435 -197 q 469 -137 469 -168 l 469 -118 q 453 -73 469 -87 q 401 -58 436 -58 q 351 -73 369 -58 q 333 -118 333 -87 l 333 -137 q 350 -183 333 -168 q 400 -197 367 -197 "},"Ỳ":{"ha":794,"x_min":26,"x_max":769,"o":"m 714 978 q 668 950 686 978 l 392 561 l 418 557 l 131 951 q 85 978 113 978 q 46 962 65 978 q 26 922 26 946 q 30 902 26 913 q 42 881 33 892 l 354 458 l 344 494 l 344 57 q 360 17 344 33 q 401 0 376 0 q 440 17 424 0 q 456 57 456 33 l 456 506 l 438 438 l 760 886 q 767 903 765 894 q 769 921 769 913 q 753 960 769 943 q 714 978 738 978 m 397 1035 q 425 1044 415 1035 q 435 1068 435 1054 q 431 1083 435 1076 q 418 1097 426 1090 l 296 1197 q 274 1212 286 1206 q 247 1218 261 1218 q 210 1203 226 1218 q 194 1167 194 1189 q 229 1114 194 1133 l 367 1044 q 381 1038 374 1040 q 397 1035 389 1035 "},"Ỷ":{"ha":794,"x_min":26,"x_max":769,"o":"m 714 978 q 668 950 686 978 l 392 561 l 418 557 l 131 951 q 85 978 113 978 q 46 962 65 978 q 26 922 26 946 q 30 902 26 913 q 42 881 33 892 l 354 458 l 344 494 l 344 57 q 360 17 344 33 q 401 0 376 0 q 440 17 424 0 q 456 57 456 33 l 456 506 l 438 438 l 760 886 q 767 903 765 894 q 769 921 769 913 q 753 960 769 943 q 714 978 738 978 m 282 1265 q 266 1241 269 1256 q 275 1213 263 1226 q 301 1200 288 1199 q 325 1210 314 1201 q 353 1226 338 1218 q 386 1235 368 1235 q 422 1224 407 1235 q 436 1193 436 1213 q 425 1165 436 1179 q 399 1132 414 1150 q 382 1104 386 1118 q 378 1078 378 1090 q 387 1057 378 1064 q 408 1050 396 1050 q 436 1056 425 1050 q 447 1076 447 1063 q 455 1097 449 1088 q 471 1118 461 1107 q 499 1158 489 1139 q 510 1200 510 1176 q 499 1247 510 1222 q 463 1290 489 1272 q 388 1308 436 1308 q 328 1297 354 1308 q 282 1265 303 1285 "},"Ȳ":{"ha":794,"x_min":26,"x_max":769,"o":"m 714 978 q 668 950 686 978 l 392 561 l 418 557 l 131 951 q 85 978 113 978 q 46 962 65 978 q 26 922 26 946 q 30 902 26 913 q 42 881 33 892 l 354 458 l 344 494 l 344 57 q 360 17 344 33 q 401 0 376 0 q 440 17 424 0 q 456 57 456 33 l 456 506 l 438 438 l 760 886 q 767 903 765 894 q 769 921 769 913 q 753 960 769 943 q 714 978 738 978 m 226 1078 l 575 1078 q 625 1121 625 1078 q 575 1165 625 1165 l 226 1165 q 176 1121 176 1165 q 226 1078 176 1078 "},"Ỹ":{"ha":794,"x_min":26,"x_max":769,"o":"m 714 978 q 668 950 686 978 l 392 561 l 418 557 l 131 951 q 85 978 113 978 q 46 962 65 978 q 26 922 26 946 q 30 902 26 913 q 42 881 33 892 l 354 458 l 344 494 l 344 57 q 360 17 344 33 q 401 0 376 0 q 440 17 424 0 q 456 57 456 33 l 456 506 l 438 438 l 760 886 q 767 903 765 894 q 769 921 769 913 q 753 960 769 943 q 714 978 738 978 m 215 1054 q 244 1066 232 1054 q 253 1099 256 1078 q 268 1132 256 1121 q 297 1143 281 1143 q 356 1123 322 1143 q 430 1083 390 1103 q 508 1063 469 1063 q 569 1077 543 1063 q 609 1117 594 1092 q 628 1169 624 1142 q 617 1222 629 1201 q 579 1242 604 1242 q 550 1229 561 1242 q 543 1194 539 1217 q 532 1161 543 1174 q 503 1149 521 1149 q 446 1169 479 1149 q 376 1211 413 1190 q 301 1232 339 1232 q 211 1203 247 1232 q 169 1128 175 1174 q 180 1074 167 1094 q 215 1054 193 1054 "}}}
